<svg width="53" height="16" viewBox="0 0 53 16" fill="none" xmlns="http://www.w3.org/2000/svg">
<path d="M1 7C0.447715 7 0 7.44772 0 8C0 8.55228 0.447715 9 1 9V7ZM52.7071 8.70711C53.0976 8.31658 53.0976 7.68342 52.7071 7.29289L46.3431 0.928932C45.9526 0.538408 45.3195 0.538408 44.9289 0.928932C44.5384 1.31946 44.5384 1.95262 44.9289 2.34315L50.5858 8L44.9289 13.6569C44.5384 14.0474 44.5384 14.6805 44.9289 15.0711C45.3195 15.4616 45.9526 15.4616 46.3431 15.0711L52.7071 8.70711ZM1 9H3.125V7H1V9ZM7.375 9H11.625V7H7.375V9ZM15.875 9H20.125V7H15.875V9ZM24.375 9H28.625V7H24.375V9ZM32.875 9H37.125V7H32.875V9ZM41.375 9H45.625V7H41.375V9ZM49.875 9H52V7H49.875V9ZM1 7C0.447715 7 0 7.44772 0 8C0 8.55228 0.447715 9 1 9V7ZM52.7071 8.70711C53.0976 8.31658 53.0976 7.68342 52.7071 7.29289L46.3431 0.928932C45.9526 0.538408 45.3195 0.538408 44.9289 0.928932C44.5384 1.31946 44.5384 1.95262 44.9289 2.34315L50.5858 8L44.9289 13.6569C44.5384 14.0474 44.5384 14.6805 44.9289 15.0711C45.3195 15.4616 45.9526 15.4616 46.3431 15.0711L52.7071 8.70711ZM1 9H3.125V7H1V9ZM7.375 9H11.625V7H7.375V9ZM15.875 9H20.125V7H15.875V9ZM24.375 9H28.625V7H24.375V9ZM32.875 9H37.125V7H32.875V9ZM41.375 9H45.625V7H41.375V9ZM49.875 9H52V7H49.875V9Z" fill="url(#paint0_linear_277_216)"/>
<defs>
<linearGradient id="paint0_linear_277_216" x1="1" y1="8.5" x2="52" y2="8.5" gradientUnits="userSpaceOnUse">
<stop stop-color="white" stop-opacity="0"/>
<stop offset="1" stop-color="white"/>
</linearGradient>
</defs>
</svg>
