<svg width="16" height="16" viewBox="0 0 16 16" fill="none" xmlns="http://www.w3.org/2000/svg">
<g clip-path="url(#clip0_301_168)">
<path d="M2.66666 6.79066H6.13333C6.20405 6.79066 6.27188 6.76256 6.32189 6.71255C6.3719 6.66254 6.39999 6.59472 6.39999 6.52399C6.39999 6.45327 6.3719 6.38544 6.32189 6.33543C6.27188 6.28542 6.20405 6.25732 6.13333 6.25732H2.66666C2.59594 6.25732 2.52811 6.28542 2.4781 6.33543C2.42809 6.38544 2.39999 6.45327 2.39999 6.52399C2.39999 6.59472 2.42809 6.66254 2.4781 6.71255C2.52811 6.76256 2.59594 6.79066 2.66666 6.79066ZM9.59999 7.85732H2.66666C2.59594 7.85732 2.52811 7.88542 2.4781 7.93543C2.42809 7.98544 2.39999 8.05327 2.39999 8.12399C2.39999 8.19472 2.42809 8.26254 2.4781 8.31255C2.52811 8.36256 2.59594 8.39066 2.66666 8.39066H9.59999C9.67072 8.39066 9.73855 8.36256 9.78856 8.31255C9.83857 8.26254 9.86666 8.19472 9.86666 8.12399C9.86666 8.05327 9.83857 7.98544 9.78856 7.93543C9.73855 7.88542 9.67072 7.85732 9.59999 7.85732ZM9.59999 9.45732H2.66666C2.59594 9.45732 2.52811 9.48542 2.4781 9.53543C2.42809 9.58544 2.39999 9.65327 2.39999 9.72399C2.39999 9.79472 2.42809 9.86254 2.4781 9.91255C2.52811 9.96256 2.59594 9.99066 2.66666 9.99066H9.59999C9.67072 9.99066 9.73855 9.96256 9.78856 9.91255C9.83857 9.86254 9.86666 9.79472 9.86666 9.72399C9.86666 9.65327 9.83857 9.58544 9.78856 9.53543C9.73855 9.48542 9.67072 9.45732 9.59999 9.45732Z" fill="#0C5ADB"/>
<path d="M14.4192 0.675893L5.31467 0.657227C4.44267 0.657227 3.73333 1.36656 3.73333 2.23856V3.60496L1.58133 3.60949C0.709333 3.60949 0 4.31883 0 5.19083V10.8284C0 11.7004 0.709333 12.4095 1.58133 12.4095H3.2V15.0762C3.19998 15.13 3.21625 15.1826 3.24668 15.227C3.27711 15.2714 3.32026 15.3056 3.37047 15.325C3.42068 15.3444 3.47559 15.3482 3.52798 15.3358C3.58037 15.3234 3.62779 15.2955 3.664 15.2556L6.25173 12.409L10.6853 12.3908C11.5573 12.3908 12.2667 11.6815 12.2667 10.8098V10.7796L13.6693 12.3226C13.7057 12.3621 13.7531 12.3898 13.8054 12.402C13.8577 12.4142 13.9124 12.4104 13.9625 12.391C14.0126 12.3717 14.0557 12.3376 14.0862 12.2934C14.1166 12.2492 14.1331 12.1968 14.1333 12.1431V9.47643H14.4187C15.2907 9.47643 16 8.76709 16 7.89536V2.25723C15.9995 1.83807 15.8328 1.43622 15.5365 1.13979C15.2401 0.843354 14.8384 0.676528 14.4192 0.675893ZM11.7333 10.8095C11.733 11.0875 11.6223 11.354 11.4256 11.5504C11.2289 11.7469 10.9623 11.8572 10.6843 11.8572L6.13227 11.8759C6.09529 11.876 6.05875 11.8839 6.02497 11.8989C5.99118 11.9139 5.96088 11.9357 5.936 11.9631L3.73333 14.3863V12.1426C3.73333 12.0718 3.70524 12.004 3.65523 11.954C3.60522 11.904 3.53739 11.8759 3.46667 11.8759H1.58133C1.30352 11.8756 1.03716 11.7651 0.840691 11.5687C0.644222 11.3723 0.533686 11.106 0.533333 10.8282V5.19056C0.533686 4.91263 0.644287 4.64619 0.840864 4.44971C1.03744 4.25324 1.30394 4.14277 1.58187 4.14256L4 4.13749H4.00053L10.6853 4.12363C10.9632 4.12391 11.2296 4.23441 11.4261 4.43089C11.6225 4.62737 11.7331 4.89377 11.7333 5.17163V10.8095ZM15.4667 7.89483C15.4663 8.17264 15.3558 8.43897 15.1593 8.63539C14.9628 8.83181 14.6965 8.94228 14.4187 8.94256H13.8667C13.7959 8.94256 13.7281 8.97066 13.6781 9.02067C13.6281 9.07067 13.6 9.1385 13.6 9.20923V11.453L12.2667 9.98629V5.17189C12.2667 4.29989 11.5573 3.59056 10.6848 3.59056L4.26667 3.60363V2.23829C4.26695 1.96053 4.37738 1.69421 4.57374 1.49775C4.7701 1.30128 5.03637 1.19072 5.31413 1.19029L14.4184 1.20896H14.4189C14.6968 1.20924 14.9632 1.31975 15.1597 1.51622C15.3561 1.7127 15.4667 1.9791 15.4669 2.25696L15.4667 7.89483Z" fill="#0C5ADB"/>
</g>
<defs>
<clipPath id="clip0_301_168">
<rect width="16" height="16" fill="white"/>
</clipPath>
</defs>
</svg>
