<svg width="16" height="16" viewBox="0 0 16 16" fill="none" xmlns="http://www.w3.org/2000/svg">
<g clip-path="url(#clip0_299_162)">
<path d="M13.7143 1.14286H12.5714C12.5714 0.512762 12.0587 0 11.4286 0C10.7985 0 10.2857 0.512762 10.2857 1.14286H5.71428C5.71428 0.512762 5.20152 0 4.57143 0C3.94133 0 3.42857 0.512762 3.42857 1.14286H2.28571C1.23543 1.14286 0.380951 1.99733 0.380951 3.04762V14.0952C0.380951 15.1455 1.23543 16 2.28571 16H13.7143C14.7646 16 15.619 15.1455 15.619 14.0952V3.04762C15.619 1.99733 14.7646 1.14286 13.7143 1.14286ZM11.0476 1.14286C11.052 1.04477 11.0941 0.952154 11.165 0.884296C11.236 0.816437 11.3304 0.778565 11.4286 0.778565C11.5268 0.778565 11.6212 0.816437 11.6921 0.884296C11.7631 0.952154 11.8051 1.04477 11.8095 1.14286V1.90476C11.8051 2.00285 11.7631 2.09546 11.6921 2.16332C11.6212 2.23118 11.5268 2.26905 11.4286 2.26905C11.3304 2.26905 11.236 2.23118 11.165 2.16332C11.0941 2.09546 11.052 2.00285 11.0476 1.90476V1.14286ZM4.19047 1.14286C4.19486 1.04477 4.23692 0.952154 4.30788 0.884296C4.37884 0.816437 4.47324 0.778565 4.57143 0.778565C4.66961 0.778565 4.76402 0.816437 4.83498 0.884296C4.90594 0.952154 4.94799 1.04477 4.95238 1.14286V1.90476C4.94799 2.00285 4.90594 2.09546 4.83498 2.16332C4.76402 2.23118 4.66961 2.26905 4.57143 2.26905C4.47324 2.26905 4.37884 2.23118 4.30788 2.16332C4.23692 2.09546 4.19486 2.00285 4.19047 1.90476V1.14286ZM1.14286 3.04762C1.14286 2.41752 1.65562 1.90476 2.28571 1.90476H3.42857C3.42857 2.53486 3.94133 3.04762 4.57143 3.04762C5.20152 3.04762 5.71428 2.53486 5.71428 1.90476H10.2857C10.2857 2.53486 10.7985 3.04762 11.4286 3.04762C12.0587 3.04762 12.5714 2.53486 12.5714 1.90476H13.7143C14.3444 1.90476 14.8571 2.41752 14.8571 3.04762V4.57143H1.14286V3.04762ZM14.8571 14.0952C14.8571 14.7253 14.3444 15.2381 13.7143 15.2381H2.28571C1.65562 15.2381 1.14286 14.7253 1.14286 14.0952V5.33333H14.8571V14.0952Z" fill="#0C5ADB"/>
<path d="M3.42856 9.5236H4.57142C4.99161 9.5236 5.33332 9.18189 5.33332 8.7617V7.61884C5.33332 7.19865 4.99161 6.85693 4.57142 6.85693H3.42856C3.00837 6.85693 2.66666 7.19865 2.66666 7.61884V8.7617C2.66666 9.18189 3.00837 9.5236 3.42856 9.5236ZM3.42856 7.61884H4.57142L4.57218 8.7617H3.42856V7.61884ZM7.42856 9.5236H8.57142C8.99161 9.5236 9.33332 9.18189 9.33332 8.7617V7.61884C9.33332 7.19865 8.99161 6.85693 8.57142 6.85693H7.42856C7.00837 6.85693 6.66666 7.19865 6.66666 7.61884V8.7617C6.66666 9.18189 7.00837 9.5236 7.42856 9.5236ZM7.42856 7.61884H8.57142L8.57218 8.7617H7.42856V7.61884ZM11.4286 9.5236H12.5714C12.9916 9.5236 13.3333 9.18189 13.3333 8.7617V7.61884C13.3333 7.19865 12.9916 6.85693 12.5714 6.85693H11.4286C11.0084 6.85693 10.6667 7.19865 10.6667 7.61884V8.7617C10.6667 9.18189 11.0084 9.5236 11.4286 9.5236ZM11.4286 7.61884H12.5714L12.5722 8.7617H11.4286V7.61884ZM3.42856 13.7141H4.57142C4.99161 13.7141 5.33332 13.3724 5.33332 12.9522V11.8093C5.33332 11.3891 4.99161 11.0474 4.57142 11.0474H3.42856C3.00837 11.0474 2.66666 11.3891 2.66666 11.8093V12.9522C2.66666 13.3724 3.00837 13.7141 3.42856 13.7141ZM3.42856 11.8093H4.57142L4.57218 12.9522H3.42856V11.8093ZM7.42856 13.7141H8.57142C8.99161 13.7141 9.33332 13.3724 9.33332 12.9522V11.8093C9.33332 11.3891 8.99161 11.0474 8.57142 11.0474H7.42856C7.00837 11.0474 6.66666 11.3891 6.66666 11.8093V12.9522C6.66666 13.3724 7.00837 13.7141 7.42856 13.7141ZM7.42856 11.8093H8.57142L8.57218 12.9522H7.42856V11.8093ZM11.4286 13.7141H12.5714C12.9916 13.7141 13.3333 13.3724 13.3333 12.9522V11.8093C13.3333 11.3891 12.9916 11.0474 12.5714 11.0474H11.4286C11.0084 11.0474 10.6667 11.3891 10.6667 11.8093V12.9522C10.6667 13.3724 11.0084 13.7141 11.4286 13.7141ZM11.4286 11.8093H12.5714L12.5722 12.9522H11.4286V11.8093Z" fill="#0C5ADB"/>
</g>
<defs>
<clipPath id="clip0_299_162">
<rect width="16" height="16" fill="white"/>
</clipPath>
</defs>
</svg>
