<svg width="20" height="20" viewBox="0 0 20 20" fill="none" xmlns="http://www.w3.org/2000/svg">
<g clip-path="url(#clip0_38_96)">
<path d="M17.1084 8.39275C17.1324 5.57299 14.7308 2.98803 11.7548 2.63057C11.6957 2.62355 11.6312 2.61287 11.5629 2.60157C11.4156 2.57716 11.2632 2.55206 11.1095 2.55206C10.4996 2.55206 10.3365 2.98051 10.2936 3.23604C10.2519 3.48449 10.2917 3.69312 10.4117 3.85641C10.6137 4.13107 10.9691 4.17983 11.2546 4.2189C11.3383 4.23045 11.4172 4.24119 11.4833 4.25604C14.1571 4.85349 15.0574 5.79281 15.4974 8.44386C15.5081 8.50865 15.513 8.58846 15.5181 8.67312C15.5373 8.99001 15.5773 9.64933 16.2861 9.64933H16.2862C16.3452 9.64933 16.4086 9.64424 16.4747 9.63418C17.1347 9.53386 17.114 8.93119 17.1041 8.64163C17.1013 8.56008 17.0986 8.48293 17.1055 8.43163C17.1074 8.41871 17.1083 8.40573 17.1084 8.39275Z" fill="white"/>
<path d="M10.9365 1.59553C11.0156 1.60124 11.0906 1.60671 11.153 1.61627C15.5437 2.29149 17.5629 4.37174 18.1224 8.79671C18.1319 8.87193 18.1334 8.96367 18.135 9.06081C18.1406 9.40652 18.152 10.1257 18.9244 10.1406L18.9484 10.1409C19.1906 10.1409 19.3833 10.0678 19.5211 9.9236C19.7616 9.67211 19.7448 9.29851 19.7312 8.99826C19.7279 8.9246 19.7248 8.85522 19.7256 8.79447C19.7814 4.26888 15.864 0.165093 11.3425 0.0124845C11.3237 0.0118634 11.3058 0.0128571 11.2878 0.0154037C11.27 0.0176421 11.2521 0.0186176 11.2342 0.018323C11.1891 0.018323 11.1337 0.0144099 11.0748 0.0104348C11.0037 0.00559006 10.9231 0 10.8414 0C10.1213 0 9.98441 0.511801 9.96689 0.816894C9.92652 1.52199 10.6086 1.57161 10.9365 1.59553ZM17.9106 14.5157C17.8162 14.4443 17.7228 14.3716 17.6303 14.2978C17.1509 13.9121 16.6409 13.5565 16.1477 13.2125C16.0453 13.1413 15.9431 13.0699 15.841 12.9983C15.2092 12.5545 14.6412 12.3389 14.1045 12.3389C13.3817 12.3389 12.7515 12.7383 12.2314 13.5258C12.001 13.8749 11.7214 14.0447 11.3769 14.0447C11.1732 14.0447 10.9417 13.9865 10.6889 13.8718C8.64962 12.947 7.19341 11.5291 6.36068 9.65752C5.95813 8.75292 6.08863 8.16162 6.79708 7.68037C7.19938 7.40733 7.9482 6.89901 7.89515 5.92559C7.83509 4.82019 5.39608 1.49416 4.36844 1.1164C3.93335 0.956398 3.47621 0.954907 3.00726 1.11267C1.8259 1.50981 0.978134 2.20727 0.555402 3.1295C0.146892 4.02062 0.165339 5.06696 0.608756 6.1554C1.89062 9.30236 3.69285 12.0461 5.96559 14.3102C8.19018 16.5266 10.9244 18.3422 14.0922 19.7062C14.3778 19.8291 14.6773 19.8961 14.896 19.945C14.9705 19.9617 15.0348 19.976 15.0817 19.9889C15.1075 19.9959 15.1341 19.9997 15.1607 19.9999L15.1858 20.0001H15.1859C16.6758 20.0001 18.4648 18.6386 19.0143 17.0864C19.4956 15.7273 18.6168 15.0555 17.9106 14.5157ZM11.5955 5.19031C11.3404 5.19677 10.8095 5.20994 10.6232 5.75062C10.5361 6.00329 10.5465 6.22267 10.6543 6.40267C10.8124 6.66677 11.1154 6.7477 11.391 6.79211C12.3904 6.95248 12.9037 7.50516 13.0064 8.53124C13.0541 9.00969 13.3763 9.34379 13.7899 9.34379C13.8205 9.34379 13.8518 9.34199 13.8829 9.3382C14.3804 9.27901 14.6216 8.91348 14.5998 8.25186C14.6078 7.56137 14.2464 6.77745 13.6318 6.15304C13.0151 5.52671 12.2717 5.17398 11.5955 5.19031Z" fill="white"/>
</g>
<defs>
<clipPath id="clip0_38_96">
<rect width="20" height="20" fill="white"/>
</clipPath>
</defs>
</svg>
