<svg width="13" height="11" viewBox="0 0 13 11" fill="none" xmlns="http://www.w3.org/2000/svg">
<path d="M11.6273 6.39964L0.904929 6.39964C0.40803 6.39964 0.00540161 5.99701 0.00540161 5.50011C0.00540161 5.00321 0.40803 4.60059 0.904929 4.60059L11.6273 4.60059C12.1242 4.60059 12.5268 5.00321 12.5268 5.50011C12.5268 5.99701 12.1242 6.39964 11.6273 6.39964Z" fill="#0C5ADB"/>
<path d="M7.50783 10.6543C7.38393 10.6544 7.26135 10.6289 7.14778 10.5794C7.03422 10.5299 6.93213 10.4574 6.84794 10.3665C6.51008 10.0023 6.53167 9.43311 6.89579 9.09525L10.7627 5.50901L6.77886 1.91306C6.41005 1.58023 6.3809 1.01137 6.71373 0.642564C7.04656 0.273758 7.61542 0.244613 7.98422 0.577439L12.6977 4.83221C12.8852 5.00132 12.9928 5.24131 12.9946 5.4939C12.9964 5.74649 12.892 5.98792 12.7067 6.15955L8.11915 10.4143C7.95307 10.5688 7.73463 10.6545 7.50783 10.6543Z" fill="#0C5ADB"/>
</svg>
