<svg width="16" height="16" viewBox="0 0 16 16" fill="none" xmlns="http://www.w3.org/2000/svg">
<g clip-path="url(#clip0_236_1421)">
<path d="M2.99996 10.6667C3.87171 10.6667 4.65101 10.2865 5.19984 9.69079L9.47557 12.1355C9.39191 12.4112 9.33332 12.6976 9.33332 13C9.33332 14.6543 10.679 16.0001 12.3333 16.0001C13.9876 16.0001 15.3333 14.6543 15.3333 13C15.3333 11.3457 13.9876 10 12.3333 10C11.4616 10 10.6823 10.3802 10.1334 10.9759L5.85772 8.53128C5.94138 8.25556 5.99997 7.9691 5.99997 7.66669C5.99997 7.44957 5.97426 7.23896 5.92998 7.03453L10.6445 4.8353C11.194 5.53876 12.0404 6.00002 13 6.00002C14.6543 6.00002 16 4.65431 16 3.00001C16 1.34571 14.6543 0 13 0C11.3457 0 9.99999 1.34571 9.99999 3.00001C9.99999 3.21713 10.0257 3.42775 10.07 3.63218L5.35544 5.8314C4.80596 5.12795 3.9596 4.66668 2.99996 4.66668C1.34566 4.66668 -4.95911e-05 6.01239 -4.95911e-05 7.66669C-4.95911e-05 9.321 1.34566 10.6667 2.99996 10.6667ZM12.3333 11.3334C13.2523 11.3334 14 12.0811 14 13C14 13.919 13.2523 14.6667 12.3333 14.6667C11.4144 14.6667 10.6667 13.919 10.6667 13C10.6667 12.0811 11.4144 11.3334 12.3333 11.3334ZM13 1.33334C13.9189 1.33334 14.6667 2.08106 14.6667 3.00001C14.6667 3.91896 13.9189 4.66668 13 4.66668C12.081 4.66668 11.3333 3.91896 11.3333 3.00001C11.3333 2.08106 12.081 1.33334 13 1.33334ZM2.99996 6.00002C3.91891 6.00002 4.66663 6.74775 4.66663 7.66669C4.66663 8.58564 3.91891 9.33337 2.99996 9.33337C2.08101 9.33337 1.33329 8.58564 1.33329 7.66669C1.33329 6.74775 2.08101 6.00002 2.99996 6.00002Z" fill="#010619"/>
</g>
<defs>
<clipPath id="clip0_236_1421">
<rect width="16" height="16" fill="white"/>
</clipPath>
</defs>
</svg>
