<svg width="18" height="18" viewBox="0 0 18 18" fill="none" xmlns="http://www.w3.org/2000/svg">
<g opacity="0.8" clip-path="url(#clip0_564_340)">
<path d="M9 0C4.03021 0 0 4.03021 0 9C0 13.9698 4.03021 18 9 18C13.9698 18 18 13.9698 18 9C18 4.03021 13.9698 0 9 0ZM6.38473 13.6055H4.1928V7.01107H6.38469L6.38473 13.6055ZM5.2888 6.11058H5.27453C4.53899 6.11058 4.06329 5.60426 4.06329 4.97145C4.06329 4.32436 4.55354 3.83203 5.30339 3.83203C6.0532 3.83203 6.51463 4.32436 6.5289 4.97145C6.5289 5.60426 6.0532 6.11061 5.2888 6.11061V6.11058ZM14.2883 13.6055H12.0967V10.0776C12.0967 9.19104 11.7793 8.58635 10.9862 8.58635C10.3807 8.58635 10.0201 8.99423 9.86164 9.38795C9.80367 9.52886 9.78954 9.7258 9.78954 9.92285V13.6055H7.59776C7.59776 13.6055 7.62648 7.62971 7.59776 7.01107H9.78954V7.94475C10.0808 7.49545 10.602 6.85631 11.7649 6.85631C13.207 6.85631 14.2883 7.79878 14.2883 9.82424V13.6055Z" fill="white"/>
</g>
<defs>
<clipPath id="clip0_564_340">
<rect width="18" height="18" fill="white"/>
</clipPath>
</defs>
</svg>
