<svg width="18" height="18" viewBox="0 0 18 18" fill="none" xmlns="http://www.w3.org/2000/svg">
<g opacity="0.8">
<g opacity="0.8">
<path d="M17.2984 4.08743C16.6487 3.31506 15.4491 3 13.1581 3H4.84177C2.49834 3 1.27841 3.33538 0.631103 4.15769C0 4.95945 0 6.14077 0 7.77575V10.892C0 14.0595 0.7488 15.6677 4.84177 15.6677H13.1581C15.1449 15.6677 16.2458 15.3897 16.958 14.7081C17.6884 14.0091 18 12.8678 18 10.892V7.77575C18 6.05152 17.9512 4.86323 17.2984 4.08743ZM11.5561 9.76411L7.77966 11.7378C7.69116 11.7841 7.59222 11.8068 7.49239 11.8037C7.39256 11.8005 7.29522 11.7717 7.20979 11.72C7.12436 11.6682 7.05373 11.5953 7.00473 11.5083C6.95572 11.4212 6.93 11.323 6.93006 11.2232V7.28847C6.93006 7.18874 6.95575 7.0907 7.00466 7.00378C7.05356 6.91687 7.12402 6.84401 7.20926 6.79224C7.29449 6.74046 7.39162 6.71151 7.4913 6.70818C7.59097 6.70485 7.68982 6.72724 7.77832 6.77321L11.5547 8.73416C11.649 8.7831 11.728 8.85695 11.7832 8.94768C11.8384 9.0384 11.8677 9.14253 11.8678 9.24873C11.8679 9.35493 11.8389 9.45913 11.784 9.55C11.729 9.64087 11.6502 9.71493 11.5561 9.76411Z" fill="white"/>
</g>
</g>
</svg>
