<svg width="20" height="20" viewBox="0 0 20 20" fill="none" xmlns="http://www.w3.org/2000/svg">
<path d="M17.1265 4.53355C15.8133 1.78051 13.1069 0.0406943 10.0606 0.000698609C7.00759 -0.0392971 4.30121 1.64052 2.94136 4.40023C1.52817 7.25992 1.86147 10.5729 3.82126 13.0593L8.88072 19.4853C9.00699 19.6456 9.16797 19.7752 9.35156 19.8643C9.53514 19.9533 9.73655 19.9996 9.94061 19.9996C10.1447 19.9996 10.3461 19.9533 10.5297 19.8643C10.7132 19.7752 10.8742 19.6456 11.0005 19.4853L16.1933 12.886C18.0797 10.4862 18.433 7.29325 17.1265 4.54021V4.53355ZM15.1534 12.0594L9.93394 18.6587L4.87448 12.2327C3.24133 10.1596 2.96136 7.37991 4.14123 4.9935C5.27444 2.70041 7.44088 1.34056 9.94727 1.34056H10.0473C12.6203 1.38055 14.8201 2.78707 15.9266 5.11349C17.0332 7.4399 16.7465 10.033 15.1534 12.0594Z" fill="white"/>
<path d="M9.94064 4.10742C7.93418 4.10742 6.30103 5.74058 6.30103 7.74703C6.30103 9.75348 7.93418 11.3866 9.94064 11.3866C11.9471 11.3866 13.5802 9.75348 13.5802 7.74703C13.5802 5.74058 11.9471 4.10742 9.94064 4.10742ZM9.94064 10.0468C9.33854 10.0323 8.76597 9.78296 8.34525 9.352C7.92452 8.92104 7.68901 8.34264 7.68901 7.74037C7.68901 7.13809 7.92452 6.5597 8.34525 6.12874C8.76597 5.69778 9.33854 5.44842 9.94064 5.43395C10.5427 5.44842 11.1153 5.69778 11.536 6.12874C11.9568 6.5597 12.1923 7.13809 12.1923 7.74037C12.1923 8.34264 11.9568 8.92104 11.536 9.352C11.1153 9.78296 10.5427 10.0323 9.94064 10.0468Z" fill="white"/>
</svg>
