<svg width="16" height="16" viewBox="0 0 16 16" fill="none" xmlns="http://www.w3.org/2000/svg">
<g clip-path="url(#clip0_168_54)">
<path d="M15.7333 7.99995C15.7333 12.4351 12.0027 15.9965 7.50719 15.7181C3.65546 15.4794 0.520527 12.3445 0.282127 8.49275C0.00346029 3.99728 3.56479 0.266613 7.99999 0.266613C9.17754 0.264592 10.3398 0.532904 11.3973 1.05088C11.6723 1.18581 11.7731 1.52821 11.6213 1.79435L11.6203 1.79621C11.5527 1.91432 11.4425 2.0021 11.3123 2.04157C11.1821 2.08104 11.0418 2.0692 10.92 2.00848C9.90186 1.50715 8.73786 1.26315 7.50933 1.35088C4.28266 1.58101 1.64746 4.16901 1.36026 7.39115C1.00293 11.4015 4.21679 14.7677 8.17706 14.6642C11.5685 14.5757 14.3995 11.8861 14.6477 8.50261C14.7124 7.65344 14.6129 6.79975 14.3547 5.98821C14.3165 5.8677 14.3228 5.73752 14.3723 5.62121C14.4218 5.5049 14.5112 5.41015 14.6245 5.35408C14.9163 5.20821 15.2739 5.35408 15.3728 5.66475C15.6124 6.41995 15.7342 7.20764 15.7333 7.99995Z" fill="#0C5ADB" fill-opacity="0.2"/>
<path d="M4.10933 5.99246L8.3264 11.6983C8.39904 11.7976 8.49536 11.877 8.60658 11.9295C8.7178 11.9819 8.84039 12.0057 8.96315 11.9987C9.08592 11.9916 9.20498 11.954 9.30946 11.8891C9.41394 11.8243 9.50053 11.7343 9.56133 11.6274L15.6552 1.0786C15.9725 0.529264 15.2485 -0.0230028 14.8168 0.439397L8.468 7.23993L4.78427 5.201C4.2864 4.92553 3.76907 5.53193 4.10933 5.99246Z" fill="#0C5ADB"/>
</g>
<defs>
<clipPath id="clip0_168_54">
<rect width="16" height="16" fill="white"/>
</clipPath>
</defs>
</svg>
