<svg width="167" height="37" viewBox="0 0 167 37" fill="none" xmlns="http://www.w3.org/2000/svg">
<path d="M9.28483 8.95832C9.28483 8.87018 9.32209 8.78598 9.38774 8.72577L18.8067 0.0865262C19.0142 -0.103816 19.3534 0.0404607 19.3534 0.319081V18.0746C19.3534 18.1637 19.3153 18.2488 19.2484 18.3091L9.82944 26.7993C9.62123 26.987 9.28483 26.8422 9.28483 26.5649V8.95832Z" fill="url(#paint0_linear_26_43)"/>
<path d="M18.7038 18.1934C18.7038 18.1052 18.7411 18.021 18.8067 17.9608L28.2257 9.32158C28.4332 9.13124 28.7724 9.27551 28.7724 9.55413V27.3097C28.7724 27.3988 28.7343 27.4838 28.6674 27.5441L19.2484 36.0344C19.0402 36.2221 18.7038 36.0773 18.7038 35.8V18.1934Z" fill="url(#paint1_linear_26_43)"/>
<path d="M28.2978 18.5895C28.1658 18.4703 28.1574 18.2688 28.279 18.1395L32.6134 13.5274C32.7349 13.3981 32.9404 13.3898 33.0723 13.509L37.7762 17.7588C37.9082 17.8779 37.9166 18.0794 37.795 18.2087L33.4606 22.8208C33.3391 22.9501 33.1336 22.9584 33.0017 22.8392L28.2978 18.5895Z" fill="url(#paint2_linear_26_43)"/>
<path d="M0.104705 18.5895C-0.0272102 18.4703 -0.0356109 18.2688 0.085941 18.1395L4.42033 13.5274C4.54188 13.3981 4.74735 13.3898 4.87927 13.509L9.58318 17.7588C9.7151 17.8779 9.7235 18.0794 9.60195 18.2087L5.26756 22.8208C5.14601 22.9501 4.94054 22.9584 4.80862 22.8392L0.104705 18.5895Z" fill="url(#paint3_linear_26_43)"/>
<path d="M50.8634 29.9171V10.3874H44.0476V6.26146H62.5428V10.3874H55.727V29.9171H50.8634Z" fill="#010619"/>
<path d="M70.727 30.1921C69.1743 30.1921 67.8842 30.089 66.8567 29.8827C65.8292 29.6764 65.0072 29.3555 64.3907 28.92C63.797 28.4615 63.3403 27.8885 63.0207 27.2008C62.7238 26.4902 62.5298 25.6421 62.4384 24.6564C62.3699 23.6479 62.3357 22.4903 62.3357 21.1838C62.3357 19.625 62.4156 18.2726 62.5754 17.1265C62.7353 15.9804 63.0663 15.0406 63.5687 14.3071C64.0939 13.5507 64.893 13.0006 65.9662 12.6567C67.0622 12.29 68.5121 12.1066 70.316 12.1066C71.7773 12.1066 72.9647 12.2212 73.878 12.4504C74.7914 12.6796 75.5106 13.0235 76.0358 13.4819C76.5838 13.9404 76.972 14.5363 77.2003 15.2698C77.4515 15.9804 77.6113 16.8285 77.6798 17.8142C77.7483 18.7999 77.7826 19.923 77.7826 21.1838V22.5247H66.8567C66.8567 23.3957 66.891 24.1063 66.9595 24.6564C67.0508 25.1837 67.2449 25.5848 67.5417 25.8599C67.8614 26.1349 68.3523 26.3183 69.0145 26.41C69.6995 26.5017 70.6242 26.5475 71.7888 26.5475C72.2683 26.5475 72.8049 26.5361 73.3985 26.5131C74.015 26.4902 74.643 26.4558 75.2823 26.41C75.9445 26.3641 76.5496 26.3183 77.0976 26.2725V29.642C76.5952 29.7566 75.9787 29.8483 75.248 29.9171C74.5402 30.0088 73.7867 30.0775 72.9875 30.1234C72.2112 30.1692 71.4577 30.1921 70.727 30.1921ZM73.467 20.2554V19.7053C73.467 18.8113 73.4099 18.1007 73.2958 17.5735C73.2044 17.0234 73.0332 16.6108 72.782 16.3357C72.5537 16.0607 72.234 15.8887 71.823 15.82C71.412 15.7283 70.8868 15.6824 70.2475 15.6824C69.494 15.6824 68.9003 15.7397 68.4665 15.8544C68.0326 15.946 67.7016 16.1409 67.4732 16.4389C67.2449 16.7139 67.085 17.1265 66.9937 17.6767C66.9024 18.2039 66.8567 18.8801 66.8567 19.7053H74.0835L73.467 20.2554Z" fill="#010619"/>
<path d="M88.7646 30.1921C87.3718 30.1921 86.2187 30.0661 85.3053 29.8139C84.4148 29.5618 83.6956 29.195 83.1476 28.7137C82.6224 28.2323 82.2342 27.6363 81.983 26.9257C81.7319 26.1922 81.572 25.3441 81.5035 24.3814C81.435 23.3957 81.4008 22.3069 81.4008 21.115C81.4008 19.9689 81.435 18.9259 81.5035 17.9861C81.5949 17.0234 81.7775 16.1753 82.0515 15.4418C82.3255 14.7083 82.7251 14.1008 83.2503 13.6195C83.7755 13.1152 84.4833 12.737 85.3738 12.4848C86.2643 12.2327 87.3832 12.1066 88.7304 12.1066C89.598 12.1066 90.4885 12.1524 91.4019 12.2441C92.3152 12.3358 93.0916 12.4619 93.7309 12.6223V16.0607C93.2514 15.969 92.6463 15.9002 91.9156 15.8544C91.185 15.8085 90.5114 15.7856 89.8949 15.7856C89.0044 15.7856 88.2965 15.8544 87.7714 15.9919C87.269 16.1294 86.8808 16.393 86.6068 16.7827C86.3557 17.1495 86.1844 17.6881 86.0931 18.3987C86.0017 19.1093 85.9561 20.0262 85.9561 21.1494C85.9561 22.2955 86.0017 23.2238 86.0931 23.9344C86.1844 24.645 86.3671 25.1951 86.6411 25.5848C86.9151 25.9515 87.3147 26.2037 87.8398 26.3412C88.3879 26.4558 89.0957 26.5131 89.9634 26.5131C90.5114 26.5131 91.1279 26.4902 91.8129 26.4444C92.5207 26.3985 93.2057 26.3412 93.8679 26.2725V29.6764C93.2286 29.8368 92.4408 29.9629 91.5046 30.0546C90.5685 30.1463 89.6551 30.1921 88.7646 30.1921Z" fill="#010619"/>
<path d="M97.838 29.9171V12.3817H102.085L102.222 14.5822H102.496C102.816 14.0091 103.204 13.5392 103.661 13.1725C104.14 12.8057 104.722 12.5421 105.407 12.3817C106.115 12.1983 106.914 12.1066 107.805 12.1066C108.992 12.1066 109.94 12.2556 110.648 12.5536C111.378 12.8516 111.938 13.2871 112.326 13.8601C112.714 14.4332 112.965 15.1438 113.079 15.9919C113.216 16.84 113.285 17.8257 113.285 18.9488V29.9171H108.764V20.6336C108.764 19.5792 108.73 18.7425 108.661 18.1236C108.593 17.5048 108.456 17.0463 108.25 16.7483C108.045 16.4503 107.736 16.267 107.325 16.1982C106.914 16.1065 106.366 16.0607 105.681 16.0607C104.951 16.0607 104.357 16.1523 103.9 16.3357C103.466 16.4962 103.135 16.7712 102.907 17.1609C102.702 17.5277 102.553 18.0205 102.462 18.6394C102.393 19.2354 102.359 19.9689 102.359 20.8399V29.9171H97.838Z" fill="#010619"/>
<path d="M125.915 30.1921C124.363 30.1921 123.073 30.089 122.045 29.8827C121.018 29.6764 120.196 29.3555 119.579 28.92C118.986 28.4615 118.529 27.8885 118.209 27.2008C117.912 26.4902 117.718 25.6421 117.627 24.6564C117.558 23.6479 117.524 22.4903 117.524 21.1838C117.524 19.625 117.604 18.2726 117.764 17.1265C117.924 15.9804 118.255 15.0406 118.757 14.3071C119.282 13.5507 120.082 13.0006 121.155 12.6567C122.251 12.29 123.701 12.1066 125.504 12.1066C126.966 12.1066 128.153 12.2212 129.067 12.4504C129.98 12.6796 130.699 13.0235 131.224 13.4819C131.772 13.9404 132.16 14.5363 132.389 15.2698C132.64 15.9804 132.8 16.8285 132.868 17.8142C132.937 18.7999 132.971 19.923 132.971 21.1838V22.5247H122.045C122.045 23.3957 122.079 24.1063 122.148 24.6564C122.239 25.1837 122.433 25.5848 122.73 25.8599C123.05 26.1349 123.541 26.3183 124.203 26.41C124.888 26.5017 125.813 26.5475 126.977 26.5475C127.457 26.5475 127.993 26.5361 128.587 26.5131C129.204 26.4902 129.831 26.4558 130.471 26.41C131.133 26.3641 131.738 26.3183 132.286 26.2725V29.642C131.784 29.7566 131.167 29.8483 130.437 29.9171C129.729 30.0088 128.975 30.0775 128.176 30.1234C127.4 30.1692 126.646 30.1921 125.915 30.1921ZM128.656 20.2554V19.7053C128.656 18.8113 128.598 18.1007 128.484 17.5735C128.393 17.0234 128.222 16.6108 127.971 16.3357C127.742 16.0607 127.423 15.8887 127.012 15.82C126.601 15.7283 126.075 15.6824 125.436 15.6824C124.682 15.6824 124.089 15.7397 123.655 15.8544C123.221 15.946 122.89 16.1409 122.662 16.4389C122.433 16.7139 122.274 17.1265 122.182 17.6767C122.091 18.2039 122.045 18.8801 122.045 19.7053H129.272L128.656 20.2554Z" fill="#010619"/>
<path d="M138.884 29.9171V16.0607H135.528V12.3817H138.884V10.7657C138.884 9.52786 138.964 8.51929 139.124 7.73994C139.284 6.93766 139.558 6.31877 139.946 5.88324C140.357 5.4248 140.893 5.09243 141.556 4.88613C142.241 4.67983 143.085 4.55376 144.09 4.50792C145.118 4.43915 146.339 4.40477 147.755 4.40477V7.70555C146.796 7.70555 146.031 7.72847 145.46 7.77432C144.889 7.82016 144.455 7.92331 144.159 8.08377C143.885 8.24422 143.691 8.4849 143.576 8.80581C143.485 9.1038 143.439 9.5164 143.439 10.0436V12.3817H147.755V16.0607H143.439V29.9171H138.884Z" fill="#010619"/>
<path d="M158.211 37C157.526 37 156.819 36.9771 156.088 36.9312C155.357 36.9083 154.661 36.8625 153.999 36.7937C153.336 36.7479 152.754 36.6906 152.252 36.6218V33.2522C153.074 33.2752 153.77 33.2866 154.341 33.2866C154.935 33.3095 155.449 33.321 155.882 33.321C156.339 33.321 156.75 33.321 157.115 33.321C158.28 33.321 159.182 33.2637 159.821 33.1491C160.483 33.0345 160.963 32.8167 161.26 32.4958C161.579 32.1749 161.773 31.7165 161.842 31.1205C161.933 30.5474 161.979 29.791 161.979 28.8512V27.6822H161.705C161.454 28.1865 161.088 28.6105 160.609 28.9543C160.152 29.2982 159.593 29.5618 158.931 29.7452C158.268 29.9056 157.481 29.9858 156.567 29.9858C155.38 29.9858 154.421 29.8368 153.69 29.5389C152.96 29.2409 152.4 28.8053 152.012 28.2323C151.647 27.6592 151.396 26.9601 151.259 26.1349C151.122 25.2868 151.053 24.3012 151.053 23.178V12.3817H155.574V21.4932C155.574 22.5705 155.608 23.4187 155.677 24.0376C155.745 24.6564 155.882 25.1149 156.088 25.4129C156.293 25.6879 156.602 25.8713 157.013 25.963C157.424 26.0318 157.972 26.0662 158.657 26.0662C159.387 26.0662 159.981 25.9859 160.438 25.8255C160.894 25.6421 161.225 25.367 161.431 25.0003C161.659 24.6106 161.808 24.1178 161.876 23.5218C161.945 22.9029 161.979 22.1579 161.979 21.2869V12.3817H166.5V27.9228C166.5 29.5045 166.42 30.8683 166.26 32.0144C166.1 33.1605 165.746 34.1004 165.198 34.8339C164.673 35.5674 163.851 36.106 162.732 36.4499C161.614 36.8166 160.107 37 158.211 37Z" fill="#010619"/>
<defs>
<linearGradient id="paint0_linear_26_43" x1="37.8809" y1="18.0595" x2="0" y2="18.0595" gradientUnits="userSpaceOnUse">
<stop stop-color="#32A4FF"/>
<stop offset="0.5" stop-color="#174BF7"/>
<stop offset="1" stop-color="#30F9CE"/>
</linearGradient>
<linearGradient id="paint1_linear_26_43" x1="37.8809" y1="18.0595" x2="0" y2="18.0595" gradientUnits="userSpaceOnUse">
<stop stop-color="#32A4FF"/>
<stop offset="0.5" stop-color="#174BF7"/>
<stop offset="1" stop-color="#30F9CE"/>
</linearGradient>
<linearGradient id="paint2_linear_26_43" x1="37.8809" y1="18.0595" x2="0" y2="18.0595" gradientUnits="userSpaceOnUse">
<stop stop-color="#32A4FF"/>
<stop offset="0.5" stop-color="#174BF7"/>
<stop offset="1" stop-color="#30F9CE"/>
</linearGradient>
<linearGradient id="paint3_linear_26_43" x1="37.8809" y1="18.0595" x2="0" y2="18.0595" gradientUnits="userSpaceOnUse">
<stop stop-color="#32A4FF"/>
<stop offset="0.5" stop-color="#174BF7"/>
<stop offset="1" stop-color="#30F9CE"/>
</linearGradient>
</defs>
</svg>
