<svg width="10" height="10" viewBox="0 0 10 10" fill="none" xmlns="http://www.w3.org/2000/svg">
<path d="M9.14817 8.33332C8.68794 8.33332 8.31483 7.96021 8.31483 7.49998V1.66665H2.48153C2.0213 1.66665 1.64819 1.29355 1.64819 0.833313C1.64819 0.373078 2.0213 0 2.48153 0H9.14817C9.60841 0 9.98151 0.373105 9.98151 0.83334V7.49998C9.98151 7.96021 9.60841 8.33332 9.14817 8.33332Z" fill="white"/>
<path d="M0.856579 9.99997C0.746908 10.0006 0.63819 9.97959 0.53666 9.93812C0.43513 9.89665 0.342786 9.83555 0.264923 9.75831C-0.0618325 9.43422 -0.0640004 8.90658 0.260093 8.5798L0.264923 8.57497L8.5149 0.324992C8.84165 -0.00176331 9.37146 -0.00176331 9.69824 0.324992C10.025 0.651748 10.025 1.18155 9.69824 1.50833L1.44826 9.75831C1.37039 9.83554 1.27804 9.89665 1.17651 9.93812C1.07497 9.97959 0.966253 10.0006 0.856579 9.99997Z" fill="white"/>
</svg>
