<svg width="14" height="14" viewBox="0 0 14 14" fill="none" xmlns="http://www.w3.org/2000/svg">
<path d="M13.9965 14L14 13.9994V8.86492C14 6.35308 13.4592 4.41817 10.5227 4.41817C9.11108 4.41817 8.16375 5.19283 7.777 5.92725H7.73617V4.65267H4.95192V13.9994H7.85108V9.37125C7.85108 8.15267 8.08208 6.97433 9.59117 6.97433C11.0781 6.97433 11.1002 8.365 11.1002 9.44942V14H13.9965ZM0.231 4.65325H3.13367V14H0.231V4.65325ZM1.68117 0C0.753083 0 0 0.753083 0 1.68117C0 2.60925 0.753083 3.37808 1.68117 3.37808C2.60925 3.37808 3.36233 2.60925 3.36233 1.68117C3.36202 1.23539 3.1848 0.807957 2.86959 0.492744C2.55438 0.177531 2.12694 0.000309032 1.68117 0Z" fill="white"/>
</svg>
