<svg width="12" height="14" viewBox="0 0 12 14" fill="none" xmlns="http://www.w3.org/2000/svg">
<path d="M6.00002 0C3.20426 0 0.929749 2.27451 0.929749 5.07024C0.929749 8.53983 5.46714 13.6334 5.66033 13.8485C5.84178 14.0506 6.15858 14.0503 6.33971 13.8485C6.53289 13.6334 11.0703 8.53983 11.0703 5.07024C11.0702 2.27451 8.79575 0 6.00002 0ZM6.00002 7.62122C4.5934 7.62122 3.44906 6.47686 3.44906 5.07024C3.44906 3.66362 4.59343 2.51929 6.00002 2.51929C7.40661 2.51929 8.55094 3.66365 8.55094 5.07027C8.55094 6.47689 7.40661 7.62122 6.00002 7.62122Z" fill="white"/>
</svg>
