<svg width="14" height="12" viewBox="0 0 14 12" fill="none" xmlns="http://www.w3.org/2000/svg">
<path d="M5.71111 4.98039C6.5351 5.40659 7.50115 5.40659 8.29673 4.98039L12.7576 2.70732L13.7805 2.19587C13.4111 1.4003 12.5871 0.832031 11.6211 0.832031H2.41515C1.47751 0.832031 0.653525 1.4003 0.255737 2.19587L1.27862 2.70732L5.71111 4.98039Z" fill="white"/>
<path d="M8.83657 6.00327C8.2683 6.2874 7.6432 6.42947 7.01811 6.42947C6.39301 6.42947 5.76792 6.2874 5.19965 6.00327L1.13654 3.92909L0 3.36082V8.75937C0 10.0664 1.07971 11.1461 2.38672 11.1461H11.6211C12.9281 11.1461 14.0078 10.0664 14.0078 8.75937V3.36082L12.8713 3.92909L8.83657 6.00327Z" fill="white"/>
</svg>
