<svg width="23" height="23" viewBox="0 0 23 23" fill="none" xmlns="http://www.w3.org/2000/svg">
<path d="M5.63743 5.70451C5.63743 5.64838 5.66005 5.59477 5.69991 5.55642L11.4188 0.0550985C11.5448 -0.066108 11.7507 0.0257647 11.7507 0.203186V11.5096C11.7507 11.5664 11.7276 11.6205 11.687 11.6589L5.9681 17.0654C5.84168 17.1849 5.63743 17.0927 5.63743 16.9161V5.70451Z" fill="#F77C17"/>
<path d="M11.3563 11.5852C11.3563 11.5291 11.3789 11.4755 11.4188 11.4371L17.1377 5.93582C17.2637 5.81462 17.4696 5.90649 17.4696 6.08391V17.3903C17.4696 17.4471 17.4465 17.5012 17.4059 17.5396L11.687 22.9461C11.5606 23.0656 11.3563 22.9734 11.3563 22.7968V11.5852Z" fill="#F77C17"/>
<path d="M17.1814 11.8375C17.1013 11.7616 17.0962 11.6333 17.17 11.5509L19.8017 8.61403C19.8755 8.53167 20.0003 8.52642 20.0804 8.60231L22.9364 11.3085C23.0165 11.3844 23.0216 11.5127 22.9478 11.595L20.3161 14.5319C20.2423 14.6143 20.1176 14.6195 20.0375 14.5436L17.1814 11.8375Z" fill="#F77C17"/>
<path d="M0.063573 11.8375C-0.0165211 11.7616 -0.0216217 11.6333 0.0521804 11.5509L2.68387 8.61403C2.75767 8.53167 2.88243 8.52642 2.96252 8.60231L5.81858 11.3085C5.89867 11.3844 5.90377 11.5127 5.82997 11.595L3.19828 14.5319C3.12448 14.6143 2.99972 14.6195 2.91963 14.5436L0.063573 11.8375Z" fill="#F77C17"/>
</svg>
