<svg width="14" height="14" viewBox="0 0 14 14" fill="none" xmlns="http://www.w3.org/2000/svg">
<g clip-path="url(#clip0_43_273)">
<path d="M13.5782 10.8296C12.9627 9.54253 11.9136 8.70323 10.4027 8.32551C10.179 8.26951 9.94112 8.32551 9.75926 8.47951L8.51424 9.50053C8.27638 9.69653 7.92666 9.72453 7.66094 9.55653C6.34592 8.74523 5.26876 7.66793 4.45746 6.35305C4.28946 6.08733 4.31746 5.73761 4.51346 5.49975L5.53462 4.25473C5.68848 4.07287 5.74448 3.83501 5.68848 3.61129C5.29676 2.08641 4.45746 1.03725 3.17044 0.421813C2.96058 0.323813 2.72286 0.323813 2.513 0.435813C1.86956 0.785533 1.23998 1.17711 0.652397 1.61083C0.428677 1.77869 0.316677 2.05841 0.358677 2.33827C0.778397 4.84231 2.13528 7.47207 4.3316 9.66839C6.52792 11.8647 9.15768 13.2076 11.6617 13.6413C11.9416 13.6833 12.2213 13.5713 12.3892 13.3476C12.8261 12.7572 13.2188 12.1353 13.5642 11.487C13.6762 11.2771 13.6762 11.0394 13.5782 10.8296Z" fill="white"/>
</g>
<defs>
<clipPath id="clip0_43_273">
<rect width="14" height="14" fill="white"/>
</clipPath>
</defs>
</svg>
