<svg width="13" height="11" viewBox="0 0 13 11" fill="none" xmlns="http://www.w3.org/2000/svg">
<path d="M11.6273 6.39964L0.904933 6.39964C0.408034 6.39964 0.00540543 5.99701 0.00540543 5.50011C0.00540543 5.00321 0.408034 4.60059 0.904933 4.60059L11.6273 4.60059C12.1242 4.60059 12.5268 5.00321 12.5268 5.50011C12.5268 5.99701 12.1242 6.39964 11.6273 6.39964Z" fill="white"/>
<path d="M7.50783 10.6543C7.38393 10.6544 7.26134 10.6289 7.14777 10.5794C7.03421 10.5299 6.93212 10.4574 6.84793 10.3665C6.51007 10.0023 6.53166 9.43311 6.89579 9.09525L10.7627 5.50901L6.77885 1.91306C6.41004 1.58023 6.3809 1.01137 6.71372 0.642564C7.04655 0.273758 7.61541 0.244613 7.98422 0.577439L12.6977 4.83221C12.8852 5.00132 12.9928 5.24131 12.9946 5.4939C12.9964 5.74649 12.892 5.98792 12.7067 6.15955L8.11914 10.4143C7.95306 10.5688 7.73462 10.6545 7.50783 10.6543Z" fill="white"/>
</svg>
