<svg width="70" height="70" viewBox="0 0 70 70" fill="none" xmlns="http://www.w3.org/2000/svg">
<path d="M54.846 28.2676C55.1478 31.344 54.7148 34.448 53.5828 37.3244C52.4509 40.2008 50.6522 42.7674 48.3347 44.813C46.2993 46.6135 45.0658 49.1482 45.0658 51.8659V52.1188H25.6874V51.8681C25.6874 49.1398 24.437 46.604 22.3973 44.7939C20.3261 42.9611 18.6682 40.7087 17.5338 38.1863C16.3993 35.6639 15.8142 32.9291 15.8173 30.1633C15.8173 18.9349 25.278 9.91531 36.6524 10.641C46.1417 11.2461 53.9531 18.8005 54.8449 28.2665L54.846 28.2676Z" fill="#FFD542"/>
<path d="M53.7881 23.5463C50.5986 18.0379 44.776 14.2009 38.1345 13.7757C26.7538 13.0563 17.2973 22.078 17.2973 33.3064C17.2973 35.6549 17.713 37.9231 18.4821 40.0092C16.731 37.0256 15.8115 33.6272 15.8194 30.1677C15.8194 18.9392 25.2759 9.91755 36.6567 10.6369C44.503 11.1436 51.2069 16.3876 53.7881 23.5463Z" fill="#F2C538"/>
<path d="M43.5657 52.1191V62.2431C43.5663 62.5966 43.4971 62.9468 43.3621 63.2735C43.2271 63.6002 43.029 63.897 42.7791 64.147C42.5292 64.397 42.2324 64.5953 41.9058 64.7304C41.5791 64.8655 41.229 64.9348 40.8755 64.9344H29.8745C29.5211 64.9348 29.1711 64.8655 28.8445 64.7305C28.518 64.5954 28.2212 64.3973 27.9713 64.1474C27.7214 63.8975 27.5233 63.6008 27.3882 63.2742C27.2532 62.9476 27.1839 62.5976 27.1843 62.2442V52.1191H43.5657Z" fill="#2DCEF6"/>
<path d="M30.6288 64.9331C30.8402 66.037 31.4297 67.0327 32.296 67.7489C33.1623 68.465 34.2511 68.8568 35.375 68.8568C36.499 68.8568 37.5878 68.465 38.4541 67.7489C39.3203 67.0327 39.9099 66.037 40.1212 64.9331H30.6288Z" fill="#0E4A77"/>
<path d="M55.8986 28.1673C54.9624 18.2126 46.7161 10.2234 36.7201 9.58546C34.8887 9.46759 33.0497 9.59209 31.2508 9.95573C31.1147 9.98337 30.9853 10.0376 30.8701 10.1152C30.7549 10.1928 30.6561 10.2924 30.5794 10.4082C30.5027 10.5241 30.4495 10.6539 30.423 10.7902C30.3964 10.9266 30.397 11.0668 30.4246 11.203C30.4523 11.3391 30.5065 11.4685 30.5841 11.5837C30.6617 11.6989 30.7613 11.7977 30.8771 11.8744C30.993 11.9511 31.1227 12.0043 31.2591 12.0308C31.3955 12.0574 31.5357 12.0568 31.6719 12.0292C33.2884 11.7023 34.941 11.5906 36.5868 11.697C45.5546 12.2683 52.9524 19.4355 53.7934 28.3662C54.3562 34.3528 52.1114 40.058 47.6323 44.0208C45.5387 45.8721 44.2576 48.4026 44.0397 51.0611H38.9745V41.7728C38.9745 41.4923 38.863 41.2232 38.6646 41.0248C38.4663 40.8264 38.1972 40.7149 37.9166 40.7149C37.636 40.7149 37.367 40.8264 37.1686 41.0248C36.9702 41.2232 36.8587 41.4923 36.8587 41.7728V51.0611H33.8913V34.5897H36.8577V38.1485C36.8577 38.4291 36.9691 38.6981 37.1675 38.8965C37.3659 39.0949 37.635 39.2064 37.9155 39.2064C38.1961 39.2064 38.4652 39.0949 38.6636 38.8965C38.862 38.6981 38.9734 38.4291 38.9734 38.1485V34.5897H40.5867C41.3121 34.5902 42.0214 34.3753 42.6246 33.9724C43.2278 33.5694 43.6979 32.9965 43.9752 32.3262C44.2525 31.6558 44.3246 30.9183 44.1825 30.2069C44.0403 29.4956 43.6901 28.8424 43.1764 28.3302C41.7885 26.9655 39.4146 26.9444 37.9917 28.3429C37.3097 29.0321 36.9279 29.963 36.9296 30.9326V32.474H33.8236V30.9326C33.8236 29.9594 33.447 29.039 32.7499 28.3302C31.3535 26.956 28.9743 26.955 27.5662 28.3419C27.0566 28.8557 26.7105 29.5088 26.5715 30.2191C26.4325 30.9293 26.5068 31.6647 26.7851 32.3327C27.0634 33.0008 27.5332 33.5715 28.1353 33.9729C28.7375 34.3744 29.4449 34.5886 30.1686 34.5887H31.7755V51.06H26.7135C26.4946 48.4058 25.205 45.87 23.1009 44.0029C21.1448 42.2665 19.5787 40.1355 18.5058 37.7501C17.4329 35.3647 16.8775 32.7791 16.8762 30.1635C16.8776 26.5741 17.9217 23.0623 19.8817 20.0551C21.8416 17.048 24.633 14.675 27.9164 13.2246C28.1731 13.1113 28.3743 12.9006 28.4756 12.6389C28.577 12.3772 28.5703 12.086 28.4569 11.8292C28.3436 11.5725 28.1329 11.3713 27.8712 11.27C27.6095 11.1686 27.3183 11.1753 27.0616 11.2887C23.4031 12.905 20.293 15.5493 18.1092 18.9001C15.9254 22.2509 14.762 26.1639 14.7604 30.1635C14.7604 36.0528 17.2888 41.6734 21.6949 45.5855C23.561 47.24 24.6306 49.5303 24.6306 51.8693V52.119C24.6306 52.3996 24.742 52.6686 24.9404 52.867C25.1388 53.0654 25.4079 53.1769 25.6884 53.1769H26.1275V55.6312H24.9532C24.6726 55.6312 24.4036 55.7426 24.2052 55.941C24.0068 56.1394 23.8953 56.4085 23.8953 56.6891C23.8953 56.9696 24.0068 57.2387 24.2052 57.4371C24.4036 57.6355 24.6726 57.747 24.9532 57.747H26.1275V59.9876H24.9532C24.6726 59.9876 24.4036 60.099 24.2052 60.2974C24.0068 60.4958 23.8953 60.7649 23.8953 61.0455C23.8953 61.326 24.0068 61.5951 24.2052 61.7935C24.4036 61.9919 24.6726 62.1034 24.9532 62.1034H26.1275V62.244C26.1291 63.23 26.519 64.1756 27.2128 64.8762C27.9066 65.5767 28.8484 65.9757 29.8343 65.9869C30.2402 67.1327 30.9906 68.125 31.9827 68.8275C32.9748 69.5299 34.1599 69.9083 35.3755 69.9106C36.5911 69.908 37.7761 69.5295 38.7681 68.8271C39.7601 68.1246 40.5107 67.1326 40.9168 65.9869C41.9026 65.9755 42.8442 65.5763 43.538 64.8759C44.2317 64.1754 44.6217 63.2299 44.6236 62.244V62.1034H45.7979C46.0784 62.1034 46.3475 61.9919 46.5459 61.7935C46.7443 61.5951 46.8558 61.326 46.8558 61.0455C46.8558 60.7649 46.7443 60.4958 46.5459 60.2974C46.3475 60.099 46.0784 59.9876 45.7979 59.9876H44.6236V57.7448H45.7979C46.0784 57.7448 46.3475 57.6334 46.5459 57.435C46.7443 57.2366 46.8558 56.9675 46.8558 56.687C46.8558 56.4064 46.7443 56.1373 46.5459 55.9389C46.3475 55.7405 46.0784 55.6291 45.7979 55.6291H44.6236V53.1748H45.0648C45.3453 53.1748 45.6144 53.0633 45.8128 52.8649C46.0112 52.6665 46.1227 52.3974 46.1227 52.1169V51.8651C46.1227 49.5229 47.1837 47.2421 49.035 45.6045C54.0251 41.1889 56.527 34.8341 55.8986 28.1673ZM39.0454 30.9326C39.0454 30.4005 39.2919 30.0377 39.4876 29.8388C40.0884 29.2485 41.1125 29.2686 41.6806 29.8261C41.8879 30.0376 42.1355 30.4005 42.1355 30.9326C42.1355 31.7821 41.4404 32.474 40.5867 32.474H39.0454V30.9326ZM31.7078 32.474H30.1676C29.7577 32.4748 29.3643 32.313 29.0737 32.024C28.7831 31.735 28.6191 31.3425 28.6177 30.9326C28.6177 30.4005 28.8664 30.0377 29.0621 29.8377C29.3533 29.5498 29.7457 29.3874 30.1551 29.3853C30.5646 29.3831 30.9587 29.5413 31.253 29.8261C31.4614 30.0376 31.7078 30.4005 31.7078 30.9326V32.474ZM35.3755 67.7948C34.032 67.7948 32.826 67.0839 32.1553 65.9911H38.5947C38.2569 66.5417 37.7837 66.9966 37.2201 67.3123C36.6566 67.6281 36.0215 67.7942 35.3755 67.7948ZM40.8766 63.8753H29.8745C28.9753 63.8753 28.2433 63.1433 28.2433 62.244V62.1034H42.5078C42.5078 63.2353 41.7324 63.8753 40.8766 63.8753ZM42.5078 59.9876H28.2433V57.7448H42.5078V59.9876ZM42.5078 55.6312H28.2433V53.1769H42.5078V55.6312ZM9.7926 16.7463L13.4952 18.8833C13.7372 19.0087 14.0182 19.0361 14.2798 18.9596C14.5415 18.8831 14.7635 18.7087 14.8998 18.4727C15.0361 18.2366 15.0761 17.9571 15.0115 17.6923C14.9469 17.4275 14.7828 17.1978 14.5531 17.051L10.8505 14.9141C10.7302 14.8446 10.5974 14.7995 10.4596 14.7814C10.3219 14.7632 10.1819 14.7724 10.0478 14.8084C9.91357 14.8443 9.78778 14.9063 9.67756 14.9909C9.56735 15.0755 9.47487 15.1809 9.40541 15.3012C9.33595 15.4216 9.29086 15.5544 9.27273 15.6921C9.25459 15.8298 9.26376 15.9698 9.29972 16.104C9.33567 16.2382 9.3977 16.364 9.48227 16.4742C9.56684 16.5844 9.67229 16.6769 9.7926 16.7463ZM11.9951 30.2376C11.9951 29.957 11.8837 29.6879 11.6853 29.4895C11.4869 29.2912 11.2178 29.1797 10.9372 29.1797H6.66336C6.38279 29.1797 6.11371 29.2912 5.91532 29.4895C5.71692 29.6879 5.60547 29.957 5.60547 30.2376C5.60547 30.5182 5.71692 30.7872 5.91532 30.9856C6.11371 31.184 6.38279 31.2955 6.66336 31.2955H10.9372C11.2178 31.2955 11.4869 31.184 11.6853 30.9856C11.8837 30.7872 11.9951 30.5182 11.9951 30.2376ZM13.8718 41.4904L10.1692 43.6273C10.0488 43.6968 9.94331 43.7893 9.85868 43.8995C9.77404 44.0097 9.71196 44.1356 9.67595 44.2698C9.63995 44.404 9.63074 44.5441 9.64885 44.6819C9.66695 44.8197 9.71203 44.9525 9.78149 45.0729C9.85095 45.1933 9.94344 45.2988 10.0537 45.3834C10.1639 45.4681 10.2898 45.5302 10.424 45.5662C10.5582 45.6022 10.6982 45.6114 10.836 45.5933C10.9738 45.5752 11.1067 45.5301 11.2271 45.4606L14.9297 43.3237C15.1728 43.1834 15.3503 42.9523 15.423 42.6812C15.4957 42.4101 15.4577 42.1212 15.3174 41.8781C15.1771 41.635 14.946 41.4575 14.6749 41.3848C14.4038 41.3121 14.1149 41.3501 13.8718 41.4904ZM21.915 9.41303C22.2091 9.92187 22.8586 10.0901 23.36 9.80127C23.5879 9.6685 23.7573 9.45473 23.8346 9.20259C23.9118 8.95044 23.8912 8.67845 23.7768 8.44083C23.7483 8.02084 21.7309 4.66416 21.5098 4.2812C21.4403 4.16076 21.3478 4.05519 21.2375 3.97053C21.1272 3.88587 21.0013 3.82379 20.867 3.78783C20.7327 3.75186 20.5926 3.74273 20.4547 3.76096C20.3169 3.77918 20.184 3.82439 20.0637 3.89402C19.836 4.02696 19.6668 4.24081 19.5897 4.49293C19.5127 4.74506 19.5334 5.01696 19.6479 5.25446C19.6765 5.67444 21.6939 9.03007 21.915 9.41303ZM35 6.48373C35.2806 6.48373 35.5496 6.37227 35.748 6.17388C35.9464 5.97549 36.0579 5.70641 36.0579 5.42584V1.14773C36.0579 0.867164 35.9464 0.598085 35.748 0.399692C35.5496 0.2013 35.2806 0.0898438 35 0.0898438C34.7194 0.0898438 34.4503 0.2013 34.252 0.399692C34.0536 0.598085 33.9421 0.867164 33.9421 1.14773V5.42584C33.9421 5.70641 34.0536 5.97549 34.252 6.17388C34.4503 6.37227 34.7194 6.48373 35 6.48373ZM46.64 9.8055C46.8832 9.94575 47.1722 9.98363 47.4434 9.91082C47.7146 9.83801 47.9458 9.66048 48.0861 9.41726C48.3104 9.02796 50.3267 5.67868 50.3521 5.25129C50.4667 5.01376 50.4877 4.74178 50.4108 4.48949C50.334 4.23721 50.165 4.0231 49.9374 3.88978C49.817 3.8202 49.684 3.77505 49.5461 3.75691C49.4083 3.73876 49.2682 3.74798 49.1338 3.78404C48.9995 3.82011 48.8736 3.8823 48.7634 3.96706C48.6531 4.05182 48.5606 4.1575 48.4913 4.27803C48.267 4.66733 46.2507 8.01661 46.2253 8.444C46.1104 8.68149 46.0893 8.95355 46.1662 9.20591C46.243 9.45826 46.4122 9.67237 46.64 9.8055ZM56.5058 18.8885L60.2085 16.7506C60.3297 16.6816 60.4362 16.5893 60.5217 16.4791C60.6071 16.3688 60.67 16.2427 60.7065 16.1081C60.7431 15.9734 60.7526 15.8329 60.7347 15.6946C60.7167 15.5562 60.6715 15.4228 60.6017 15.302C60.532 15.1811 60.439 15.0753 60.3282 14.9906C60.2174 14.9058 60.0909 14.8438 59.956 14.8082C59.8211 14.7725 59.6805 14.7639 59.5423 14.7828C59.404 14.8017 59.2709 14.8477 59.1506 14.9183L55.448 17.0552C55.2048 17.1955 55.0274 17.4266 54.9547 17.6977C54.882 17.9688 54.92 18.2577 55.0602 18.5008C55.2005 18.7439 55.4316 18.9214 55.7027 18.9941C55.9738 19.0668 56.2627 19.0288 56.5058 18.8885ZM63.3377 29.1839H59.0628C58.7822 29.1839 58.5131 29.2954 58.3147 29.4938C58.1163 29.6922 58.0049 29.9613 58.0049 30.2418C58.0049 30.5224 58.1163 30.7915 58.3147 30.9899C58.5131 31.1883 58.7822 31.2997 59.0628 31.2997H63.3366C63.6172 31.2997 63.8863 31.1883 64.0847 30.9899C64.2831 30.7915 64.3945 30.5224 64.3945 30.2418C64.3945 29.9613 64.2831 29.6922 64.0847 29.4938C63.8863 29.2954 63.6183 29.1839 63.3377 29.1839ZM59.8308 43.6315L56.1292 41.4946C56.0089 41.424 55.8758 41.378 55.7375 41.3591C55.5993 41.3402 55.4587 41.3488 55.3238 41.3845C55.1889 41.4201 55.0624 41.4821 54.9516 41.5669C54.8408 41.6516 54.7478 41.7574 54.6781 41.8783C54.6083 41.9991 54.5631 42.1325 54.5451 42.2709C54.5272 42.4092 54.5367 42.5498 54.5733 42.6844C54.6098 42.819 54.6727 42.9451 54.7581 43.0554C54.8436 43.1656 54.9501 43.2579 55.0713 43.3269L58.774 45.4638C59.0159 45.5893 59.297 45.6166 59.5586 45.5402C59.8202 45.4637 60.0423 45.2893 60.1785 45.0532C60.3148 44.8172 60.3548 44.5377 60.2903 44.2729C60.2257 44.0081 60.0604 43.7783 59.8308 43.6315Z" fill="#000033"/>
</svg>
