<svg width="70" height="70" viewBox="0 0 70 70" fill="none" xmlns="http://www.w3.org/2000/svg">
<g clip-path="url(#clip0_277_235)">
<path d="M68.3254 67.8001V54.1057C68.3252 53.3667 68.147 52.6385 67.8057 51.983C67.4645 51.3275 66.9703 50.7639 66.365 50.3399L57.7245 44.2909C57.1449 43.8852 56.4544 43.6677 55.7469 43.668H48.7899L48.9049 63.33C48.9474 65.379 50.2861 67.174 52.2374 67.8003H68.3254V67.8001Z" fill="#FEC9A3"/>
<path d="M61.4306 67.8002H53.3865C50.8481 67.8002 48.7899 65.742 48.7899 63.2036V58.6069H56.834L61.4306 67.8002Z" fill="#FABD91"/>
<path d="M31.5525 9.19298C30.7612 9.19423 29.9786 9.35934 29.2542 9.67792V1.14893H8.56948C4.76121 1.14893 1.67454 4.2356 1.67454 8.04387V28.7286H10.2035C8.92796 25.8235 10.2484 22.4335 13.1546 21.158C16.0597 19.8824 19.4496 21.2028 20.7252 24.109C21.0452 24.8372 21.2104 25.624 21.2104 26.4194C21.2104 27.2148 21.0452 28.0016 20.7252 28.7298H29.2542V20.2008C32.1593 21.4764 35.5492 20.156 36.8248 17.2498C38.1004 14.3435 36.7799 10.9547 33.8737 9.67915C33.1425 9.35675 32.3517 9.19113 31.5525 9.19298Z" fill="#88B337"/>
<path d="M56.8338 8.04387C56.8338 4.2356 53.7471 1.14893 49.9389 1.14893H29.2542V9.67792C32.1593 8.40235 35.5492 9.72276 36.8248 12.629C38.1003 15.5341 36.7799 18.924 33.8737 20.1996C33.1455 20.5196 32.3587 20.6848 31.5633 20.6848C30.7679 20.6848 29.9812 20.5196 29.2529 20.1996V28.7286H37.7819C36.5063 31.6337 37.8268 35.0236 40.733 36.2992C43.6381 37.5748 47.028 36.2543 48.3036 33.3481C48.6236 32.6199 48.7888 31.8332 48.7888 31.0377C48.7888 30.2423 48.6236 29.4556 48.3036 28.7273H56.8326V8.04387H56.8338Z" fill="#E8594A"/>
<path d="M56.8338 8.7002C50.2652 17.8383 38.4071 23.029 29.2542 25.8226V28.7288H37.7832C36.5076 31.6339 37.828 35.0238 40.7342 36.2994C43.6393 37.575 47.0292 36.2545 48.3048 33.3483C48.6248 32.6201 48.79 31.8334 48.79 31.038C48.79 30.2425 48.6248 29.4558 48.3048 28.7276H56.8338V8.7002Z" fill="#D65245"/>
<path d="M26.9559 37.9219C27.7473 37.9231 28.5299 38.0883 29.2543 38.4068V28.7287H20.7253C22.0009 25.8236 20.6805 22.4337 17.7743 21.1581C14.8681 19.8825 11.4792 21.203 10.2037 24.1092C9.88367 24.8374 9.71845 25.6241 9.71845 26.4196C9.71845 27.215 9.88367 28.0017 10.2037 28.73H1.67452V49.4147C1.67452 53.2229 4.7612 56.3096 8.56947 56.3096H29.2542V48.9297C26.3491 50.2053 22.9591 48.8849 21.6836 45.9787C20.408 43.0736 21.7284 39.6836 24.6346 38.4081C25.3659 38.0857 26.1567 37.92 26.9559 37.9219Z" fill="#FDB62F"/>
<path d="M1.67452 49.4137C1.67452 53.222 4.7612 56.3087 8.56947 56.3087H29.2542V48.9288C26.3629 50.202 22.9868 48.8909 21.7134 45.9996C21.4178 45.328 21.254 44.6059 21.2308 43.8726C15.0699 46.6201 8.4191 48.0993 1.67452 48.2221V49.4137Z" fill="#FFA719"/>
<path d="M59.8389 52.7463L52.5682 33.3257L44.5828 36.3331C46.8087 38.6004 46.7743 42.2431 44.5069 44.4679C42.2396 46.6927 38.5969 46.6593 36.3721 44.392C35.8116 43.821 35.3764 43.1393 35.0942 42.3906C34.812 41.6419 34.6892 40.8425 34.7334 40.0436L26.7491 43.051L30.1506 52.1395C29.3607 52.0949 28.57 52.2154 27.8293 52.4935C24.8622 53.6449 23.3913 56.9832 24.5427 59.9504C25.6746 62.8657 28.9256 64.3471 31.8686 63.2852C32.6103 63.0055 33.2854 62.5742 33.8509 62.0188L36.4433 68.9492L55.8088 61.6556C59.3792 60.3043 61.1823 56.319 59.8389 52.7463Z" fill="#4398D1"/>
<path d="M56.0893 42.7314C48.16 54.5907 33.2958 58.7322 24.5899 60.1583C25.8115 63.0645 29.1578 64.4296 32.064 63.2082C32.7296 62.9285 33.3359 62.5249 33.8509 62.0189L36.4433 68.9494L55.8088 61.6558C59.3769 60.3043 61.1788 56.3215 59.8389 52.7498L56.0893 42.7314Z" fill="#3E8FC9"/>
<path d="M31.5525 9.19321C30.7611 9.19446 29.9786 9.35957 29.2542 9.67815V8.01074C20.6494 15.9319 8.99124 20.3067 1.67452 22.4384V28.7289H10.2035C8.92794 25.8238 10.2484 22.4339 13.1546 21.1583C16.0597 19.8828 19.4496 21.2032 20.7252 24.1094C21.0452 24.8376 21.2104 25.6244 21.2104 26.4198C21.2104 27.2152 21.0452 28.0019 20.7252 28.7302H29.2542V20.2012C32.1593 21.4767 35.5492 20.1563 36.8248 17.2501C38.1004 14.3439 36.7799 10.9551 33.8737 9.67952C33.1425 9.35701 32.3517 9.19134 31.5525 9.19321Z" fill="#80A834"/>
<path d="M54.5562 52.8816C53.4565 51.76 51.6558 51.7416 50.5341 52.8414C49.4125 53.9411 49.3942 55.7419 50.4939 56.8635C50.5078 56.8773 50.5203 56.8911 50.5341 56.9037L54.5355 60.905C54.5355 64.7133 57.6221 67.7999 61.4304 67.7999H68.3253V66.6508L54.5562 52.8816Z" fill="#FEC9A3"/>
<path d="M26.9559 36.6775C23.1477 36.6764 20.0599 39.7619 20.0587 43.5702C20.0576 46.3131 21.6836 48.7965 24.1979 49.8928L25.1172 47.7876C22.7891 46.7752 21.7227 44.0667 22.7362 41.7385C23.0936 40.9168 23.6834 40.2175 24.4331 39.7267C25.1829 39.2359 26.0597 38.9749 26.9558 38.976C27.589 38.976 28.2153 39.1082 28.7944 39.3644C28.9692 39.4407 29.1603 39.4723 29.3504 39.4563C29.5405 39.4403 29.7236 39.3772 29.8833 39.2728C30.0429 39.1683 30.174 39.0258 30.2648 38.858C30.3556 38.6902 30.4032 38.5025 30.4033 38.3117V29.8781H36.2467C36.1815 30.2577 36.1489 30.6421 36.1491 31.0273C36.156 34.3012 38.459 37.1224 41.665 37.7843L42.1246 35.5331C39.9872 35.0906 38.452 33.2106 38.4473 31.0273C38.4473 30.3941 38.5796 29.7678 38.8358 29.1887C38.9121 29.0138 38.9436 28.8227 38.9276 28.6326C38.9116 28.4426 38.8486 28.2594 38.7441 28.0998C38.6397 27.9402 38.4971 27.809 38.3293 27.7183C38.1615 27.6275 37.9738 27.5799 37.783 27.5798H30.4031V21.7363C30.7824 21.8018 31.1674 21.834 31.5523 21.834C35.3605 21.834 38.4472 18.7473 38.4472 14.939C38.4472 11.1307 35.3605 8.04406 31.5523 8.04406C31.1673 8.04406 30.7823 8.07619 30.4031 8.14167V2.29836H49.9387C53.1105 2.30178 55.681 4.87248 55.6844 8.04406V27.5797H48.3046C48.1536 27.5797 48.0041 27.6095 47.8647 27.6673C47.7253 27.7251 47.5986 27.8099 47.492 27.9168C47.3854 28.0236 47.3009 28.1504 47.2433 28.29C47.1857 28.4295 47.1562 28.579 47.1565 28.73C47.1565 28.8875 47.1887 29.0438 47.252 29.1885C47.5081 29.7676 47.6404 30.3939 47.6404 31.0271H49.9387C49.9387 30.6421 49.9066 30.2571 49.8411 29.878H56.8337C57.1384 29.8779 57.4306 29.7568 57.6461 29.5413C57.8616 29.3258 57.9827 29.0336 57.9828 28.7289V8.04406C57.9773 3.60374 54.3793 0.00574214 49.939 0H8.56947C4.12915 0.00574214 0.531156 3.60374 0.525414 8.04406V49.3182C0.531156 53.7585 4.12915 57.3565 8.56947 57.3622H21.2101V55.0639H8.56947C5.39776 55.0605 2.82719 52.4897 2.82377 49.3182V29.878H10.2037C10.8851 29.8287 11.3965 29.2356 11.347 28.5542C11.3376 28.4229 11.3069 28.294 11.2562 28.1726C10.2347 25.8491 11.2907 23.137 13.6154 22.1155C15.9391 21.0939 18.651 22.1499 19.6726 24.4747C19.9289 25.0576 20.0613 25.6874 20.0613 26.3242C20.0613 26.961 19.9289 27.5909 19.6726 28.1738C19.5364 28.459 19.519 28.7865 19.6241 29.0845C19.7293 29.3826 19.9484 29.6266 20.2334 29.7632C20.3871 29.8366 20.5548 29.8761 20.7252 29.8792H28.1051V36.7742C27.7256 36.7086 27.3411 36.6763 26.9559 36.6775ZM8.56947 2.29836H28.1051V9.67825C28.1051 9.8292 28.1349 9.97866 28.1927 10.1181C28.2506 10.2575 28.3353 10.3842 28.4422 10.4908C28.549 10.5974 28.6758 10.6819 28.8154 10.7395C28.9549 10.7971 29.1045 10.8266 29.2554 10.8263C29.4132 10.8264 29.5693 10.7939 29.714 10.7308C30.2931 10.4747 30.9193 10.3424 31.5525 10.3424C34.091 10.3424 36.1491 12.4006 36.1491 14.939C36.1491 17.4774 34.091 19.5356 31.5525 19.5356C30.9193 19.5356 30.2931 19.4033 29.714 19.1472C29.5391 19.0709 29.348 19.0393 29.1579 19.0553C28.9678 19.0713 28.7847 19.1344 28.6251 19.2388C28.4654 19.3433 28.3343 19.4858 28.2435 19.6536C28.1527 19.8214 28.1052 20.0091 28.1051 20.1999V27.4844H22.2697C22.3271 27.1361 22.357 26.7834 22.3594 26.4305V26.3351C22.3594 22.5268 19.2727 19.4402 15.4644 19.4402C11.6561 19.4402 8.56947 22.5268 8.56947 26.3351V26.4305C8.5718 26.7833 8.6016 27.1361 8.65916 27.4844H2.82377V8.04406C2.82829 4.87235 5.39789 2.30178 8.56947 2.29836Z" fill="black"/>
<path d="M67.0166 49.3929L57.3557 42.7405L53.645 32.8268C53.5925 32.6853 53.5125 32.5556 53.4098 32.4451C53.307 32.3345 53.1835 32.2453 53.0462 32.1826C52.909 32.1198 52.7607 32.0847 52.6099 32.0793C52.459 32.074 52.3086 32.0984 52.1672 32.1512C52.1454 32.1592 52.1247 32.1673 52.1041 32.1765L44.6346 35.4802C44.3651 35.5994 44.1517 35.8175 44.0383 36.0896C43.925 36.3616 43.9204 36.6667 44.0256 36.942C44.1497 37.2637 44.2658 37.5074 44.3887 37.7603C44.5116 38.0132 44.6255 38.2499 44.7645 38.6232C45.6563 41.0066 44.4554 43.6635 42.0767 44.5679C39.699 45.4573 37.0502 44.2507 36.1609 41.8732C35.938 41.2767 35.8413 40.6404 35.8771 40.0046C35.8871 39.8139 35.8495 39.6236 35.7675 39.451C35.6855 39.2785 35.5618 39.1291 35.4076 39.0164C35.2533 38.9037 35.0734 38.8312 34.8841 38.8055C34.6948 38.7799 34.5021 38.8018 34.3234 38.8693L26.3391 41.8767C26.0541 41.984 25.8233 42.2 25.6974 42.4773C25.5716 42.7546 25.561 43.0706 25.6679 43.3557L28.5339 51.0114C28.1539 51.0805 27.7809 51.1836 27.4193 51.3194C23.8432 52.6524 22.0252 56.6307 23.357 60.207C24.69 63.7831 28.6683 65.6011 32.2446 64.2693C32.6124 64.1326 32.9685 63.9636 33.3087 63.7659L35.3634 69.2543C35.4704 69.5396 35.6863 69.7707 35.9636 69.897C36.2409 70.0232 36.557 70.0342 36.8424 69.9276C36.8435 69.9276 36.8435 69.9276 36.8447 69.9265L48.2306 65.6367C48.5845 66.3974 49.0897 67.0778 49.7155 67.6366C50.3412 68.1953 51.0743 68.6206 51.87 68.8865L52.5963 66.7031C51.6492 66.3838 50.8621 65.7111 50.3991 64.8255L53.8638 63.5212C55.0014 66.7227 58.0341 68.859 61.431 68.8544V66.556C58.2662 66.5365 55.7047 63.9751 55.6853 60.8103C55.6854 60.6594 55.6557 60.5099 55.5979 60.3705C55.5401 60.2311 55.4554 60.1044 55.3485 59.9978L51.3472 55.9965C50.7543 55.3978 50.6865 54.4556 51.1897 53.7798C51.3344 53.5846 51.5199 53.4232 51.7332 53.307C51.9465 53.1907 52.1826 53.1222 52.4251 53.1064C52.6678 53.0858 52.912 53.1193 53.1401 53.2046C53.3683 53.2898 53.5746 53.4247 53.7443 53.5994L61.7677 61.6228L63.3926 59.998L61.0185 57.6239C61.6036 55.8747 61.5675 53.9772 60.9162 52.2515L58.7626 46.5L65.7069 51.2815C66.1606 51.5999 66.5309 52.0227 66.7867 52.5143C67.0425 53.006 67.1763 53.5519 67.1767 54.1061V68.9497H69.475V54.1056C69.4741 53.1803 69.2501 52.2689 68.8222 51.4485C68.3942 50.6282 67.7749 49.9231 67.0166 49.3929ZM59.0988 55.703L55.3686 51.974C53.8288 50.395 51.3006 50.3629 49.7216 51.9028C48.1427 53.4426 48.1106 55.9708 49.6504 57.5497C49.6734 57.5739 49.6976 57.598 49.7216 57.621L53.3564 61.2558L37.1165 67.3726L34.9263 61.52C34.8592 61.3409 34.7484 61.1814 34.6041 61.056C34.4597 60.9305 34.2863 60.843 34.0996 60.8015C33.9129 60.76 33.7188 60.7657 33.5349 60.8181C33.351 60.8706 33.183 60.9681 33.0463 61.1018C31.2008 62.8451 28.2922 62.7624 26.5478 60.9168C24.8046 59.0713 24.8873 56.1628 26.7328 54.4184C27.1667 54.0081 27.6765 53.6865 28.2336 53.4715C28.5994 53.336 28.9816 53.2495 29.3701 53.214C29.6091 53.1853 29.8502 53.1772 30.0906 53.1898C30.2811 53.1999 30.471 53.1623 30.6433 53.0806C30.8156 52.9989 30.9649 52.8756 31.0777 52.7218C31.1904 52.568 31.2631 52.3886 31.2892 52.1997C31.3153 52.0108 31.294 51.8183 31.2271 51.6397L28.2255 43.6256L33.6978 41.5651C34.416 45.3045 38.0301 47.7545 41.7694 47.0363C42.1516 46.9628 42.5268 46.8571 42.8911 46.7203C46.4546 45.3689 48.2553 41.3918 46.9211 37.8213C46.8323 37.5821 46.7346 37.3464 46.6281 37.1146L51.9142 34.7737L58.7632 53.0556C59.0815 53.8994 59.1965 54.8064 59.0988 55.703Z" fill="black"/>
</g>
<defs>
<clipPath id="clip0_277_235">
<rect width="70" height="70" fill="white"/>
</clipPath>
</defs>
</svg>
