<svg width="70" height="70" viewBox="0 0 70 70" fill="none" xmlns="http://www.w3.org/2000/svg">
<g clip-path="url(#clip0_277_202)">
<path d="M68.5988 2.36719C68.5988 2.36719 68.3349 9.72676 65.2765 18.3797L52.5863 5.68945C61.2392 2.63105 68.5988 2.36719 68.5988 2.36719Z" fill="#FF5249"/>
<path d="M52.5864 5.68945L65.2766 18.3797C63.2887 24.0098 60.1155 30.1867 55.0651 35.2371C50.411 39.8912 44.8121 43.6166 38.9583 46.1992L24.7668 32.0078C26.495 28.0908 28.9067 23.9113 32.0936 19.9533C33.232 18.5385 34.4456 17.1858 35.729 15.901C40.7793 10.8506 46.9563 7.67734 52.5864 5.68945Z" fill="white"/>
<path d="M53.1305 17.8355C55.266 19.9711 55.266 23.4342 53.1305 25.5697C50.9949 27.7053 47.5332 27.7053 45.3963 25.5697C43.2607 23.4328 43.2607 19.9711 45.3963 17.8355C47.5318 15.7 50.9949 15.7 53.1305 17.8355Z" fill="#7BD8E8"/>
<path d="M51.1972 39.1036C58.2437 49.6733 45.0531 56.5052 37.6635 56.5052C41.5299 52.6388 40.4006 47.6417 40.4006 47.6417L38.9582 46.1993C42.8752 44.4712 47.0547 42.0595 51.0127 38.8726L51.1972 39.1036Z" fill="#FF5249"/>
<path d="M23.1782 42.0213L22.9567 41.7998C22.3032 41.1449 21.9819 40.1961 22.2116 39.2992C22.7817 37.0789 23.6239 34.6016 24.7669 32.008L38.9583 46.1994C36.3647 47.3424 33.8874 48.1846 31.6671 48.7547C30.7702 48.9844 29.8214 48.6631 29.1665 48.0096L28.945 47.7881L23.1782 42.0213ZM31.8626 19.769L32.0936 19.9535C28.9067 23.9116 26.495 28.091 24.7669 32.008L23.3245 30.5657C23.3245 30.5657 18.3274 29.4364 14.461 33.3028C14.461 25.9131 21.2928 12.7225 31.8626 19.769Z" fill="#FF5249"/>
<path d="M23.1782 42.021L28.945 47.7878C28.5307 49.4271 27.5477 51.1524 26.0616 52.6386C22.8583 55.8419 14.461 56.505 14.461 56.505C14.461 56.505 15.1241 48.1077 18.3274 44.9044C19.8135 43.4183 21.5389 42.4353 23.1782 42.021Z" fill="#FFDD78"/>
<path d="M36.7311 36.2037C37.2643 35.6691 37.2643 34.8037 36.7311 34.2705C36.6041 34.1434 36.4533 34.0425 36.2873 33.9737C36.1214 33.9049 35.9435 33.8695 35.7638 33.8695C35.5841 33.8695 35.4062 33.9049 35.2402 33.9737C35.0743 34.0425 34.9235 34.1434 34.7965 34.2705C34.2633 34.8037 34.2633 35.6691 34.7965 36.2037C35.3311 36.7369 36.1965 36.7369 36.7311 36.2037ZM54.1314 26.5365C56.8026 23.8652 56.8032 19.5404 54.1314 16.8688C51.4599 14.1974 47.1352 14.1973 44.4636 16.8688C41.7991 19.5333 41.799 23.87 44.464 26.5367C47.1295 29.2006 51.4662 29.2016 54.1314 26.5365ZM46.3972 18.8023C48 17.1995 50.5949 17.1992 52.1979 18.8023C53.8007 20.4049 53.801 22.9999 52.1979 24.6028C50.5993 26.2016 47.997 26.2016 46.3975 24.6031C44.7986 23.0032 44.7984 20.4009 46.3972 18.8023Z" fill="black"/>
<path d="M13.9718 34.5656C14.2216 34.6691 14.4965 34.6962 14.7617 34.6435C15.0269 34.5907 15.2706 34.4605 15.4618 34.2693C18.2075 31.5236 21.5942 31.6953 22.7005 31.8408L23.1793 32.3196C22.237 34.5618 21.478 36.7914 20.9212 38.9599C20.7203 39.7446 20.7881 40.5751 21.0868 41.3347C19.7705 41.9413 18.5005 42.832 17.3947 43.9378C13.8754 47.4572 13.1608 56.0341 13.1321 56.3975C13.1165 56.5946 13.1439 56.7927 13.2123 56.9781C13.2807 57.1636 13.3885 57.332 13.5282 57.4718C13.668 57.6116 13.8364 57.7194 14.0219 57.7878C14.2074 57.8562 14.4054 57.8836 14.6025 57.8681C14.9659 57.8395 23.5431 57.1249 27.0624 53.6056C28.1677 52.5002 29.0583 51.2304 29.6649 49.9143C30.4691 50.2306 31.2968 50.2695 32.0411 50.0788C34.2087 49.5222 36.438 48.7634 38.6805 47.821L39.1592 48.2998C39.3046 49.4063 39.4763 52.7929 36.7307 55.5384C36.5395 55.7296 36.4094 55.9732 36.3567 56.2384C36.3039 56.5036 36.331 56.7784 36.4345 57.0282C36.538 57.278 36.7132 57.4915 36.938 57.6417C37.1628 57.792 37.4271 57.8722 37.6974 57.8722C43.1088 57.8722 50.6741 54.6496 53.4604 49.4432C54.6705 47.1823 55.4944 43.6054 52.8669 39.1417C53.9736 38.2074 55.0407 37.2273 56.0656 36.2039C60.5801 31.6894 64.1241 25.8457 66.5995 18.8353C69.6921 10.0856 69.9878 2.72517 69.9989 2.41619C70.0056 2.22852 69.9736 2.04148 69.9048 1.86673C69.8361 1.69198 69.7321 1.53327 69.5993 1.40048C69.4665 1.26769 69.3078 1.16368 69.133 1.09493C68.9583 1.02618 68.7712 0.994163 68.5836 1.00087C68.2745 1.01195 60.9142 1.30781 52.1649 4.40025C45.1539 6.87568 39.3102 10.4198 34.7959 14.9343C33.7725 15.9592 32.7924 17.0263 31.858 18.133C27.3945 15.5055 23.8176 16.3294 21.5564 17.5395C16.35 20.3258 13.1274 27.8913 13.1274 33.3026C13.1276 33.573 13.2079 33.8373 13.3582 34.0621C13.5085 34.2869 13.722 34.4621 13.9718 34.5656ZM25.1289 51.672C23.249 53.5519 18.8391 54.5434 16.0519 54.9482C16.4568 52.1608 17.4484 47.751 19.3282 45.8713C20.3809 44.8186 21.6015 44.0204 22.8285 43.5709L27.4293 48.1717C26.9798 49.3986 26.1818 50.6193 25.1289 51.672ZM31.3619 47.43C30.9662 47.5313 30.5079 47.3826 30.1672 47.0424L23.9586 40.8337C23.6176 40.4921 23.4688 40.0339 23.5699 39.639C24.0078 37.9335 24.5805 36.1838 25.277 34.4173L36.5829 45.7232C34.8161 46.4198 33.0666 46.9924 31.3619 47.43ZM51.0499 48.153C49.2587 51.4997 44.7486 53.9667 40.6385 54.8158C41.949 52.3498 42.2379 49.2106 41.7591 47.3071C41.6479 46.865 41.3595 46.6427 41.3433 46.6165C44.6473 45.0173 47.7839 43.0931 50.7066 40.8723C52.1295 43.4719 52.2466 45.9168 51.0499 48.153ZM64.7105 15.8458L55.1544 6.2897C60.3608 4.67259 64.8901 4.06706 67.1509 3.84941C66.9331 6.1106 66.3274 10.64 64.7105 15.8458ZM36.7299 16.8678C40.7802 12.8173 46.0075 9.59378 52.2708 7.27339L63.7268 18.7293C61.4067 24.9926 58.1831 30.2199 54.1324 34.2704C52.882 35.5188 51.5658 36.6996 50.1894 37.8076C46.8614 40.4873 43.1985 42.7571 39.2905 44.564L26.4362 31.71C28.2431 27.8017 30.5129 24.1387 33.1923 20.8111C34.3085 19.4258 35.4985 18.0991 36.7299 16.8678ZM22.8472 19.9502C25.0838 18.7534 27.5284 18.8707 30.1277 20.2935C27.9069 23.2162 25.9826 26.3529 24.3835 29.657C24.3631 29.6444 24.117 29.335 23.6598 29.2319C23.4719 29.1894 19.8544 28.4113 16.1842 30.3619C17.0335 26.2517 19.5003 21.7415 22.8472 19.9502Z" fill="black"/>
<path d="M28.9971 63.2727L32.8635 59.4049C33.3972 58.8709 33.3971 58.0052 32.8632 57.4714C32.3291 56.9375 31.4634 56.9378 30.9296 57.4717L27.0632 61.3395C26.5294 61.8735 26.5296 62.7392 27.0635 63.2729C27.5976 63.8067 28.4633 63.8067 28.9971 63.2727ZM9.66068 43.9368L13.5285 40.0704C14.0625 39.5366 14.0626 38.6709 13.5289 38.1369C12.9951 37.6029 12.1295 37.6029 11.5954 38.1366L7.72761 42.003C7.19359 42.5368 7.19345 43.4025 7.7272 43.9365C8.26082 44.4703 9.12638 44.4708 9.66068 43.9368ZM21.2626 59.406L12.0013 68.6659C11.4673 69.1998 11.4673 70.0655 12.0012 70.5994C12.5348 71.1333 13.4006 71.1336 13.9346 70.5996L23.196 61.3396C23.73 60.8057 23.73 59.94 23.1961 59.4061C22.6625 58.8722 21.7967 58.8722 21.2626 59.406ZM10.3251 59.406L1.0638 68.6659C0.52978 69.1998 0.52978 70.0655 1.06367 70.5994C1.59728 71.1333 2.46312 71.1336 2.99714 70.5996L12.2585 61.3396C12.7925 60.8057 12.7925 59.94 12.2586 59.4061C11.7249 58.8722 10.859 58.8722 10.3251 59.406ZM2.33419 58.9988L11.5942 49.7375C12.128 49.2035 12.128 48.3379 11.594 47.8039C11.0603 47.2701 10.1944 47.2701 9.66054 47.804L0.400581 57.0654C-0.133306 57.5994 -0.133306 58.4649 0.400718 58.999C0.934604 59.5329 1.80031 59.5329 2.33419 58.9988ZM40.5977 32.3361L42.5309 30.4029C43.0648 29.869 43.0648 29.0033 42.5309 28.4693C41.9969 27.9354 41.1314 27.9354 40.5973 28.4693L38.6641 30.4025C38.1302 30.9364 38.1302 31.8021 38.6641 32.3361C39.1981 32.87 40.0636 32.87 40.5977 32.3361Z" fill="black"/>
</g>
<defs>
<clipPath id="clip0_277_202">
<rect width="70" height="70" fill="white"/>
</clipPath>
</defs>
</svg>
