<svg width="70" height="70" viewBox="0 0 70 70" fill="none" xmlns="http://www.w3.org/2000/svg">
<g clip-path="url(#clip0_277_140)">
<path d="M6.3636 0.000488281H63.6349C67.1494 0.000488281 69.9985 2.84962 69.9985 6.36408V57.2729C69.9985 60.7873 67.1494 63.6364 63.6349 63.6364H6.3636C2.84913 63.6364 0 60.7873 0 57.2729V6.36408C0 2.84962 2.84913 0.000488281 6.3636 0.000488281Z" fill="#F0EAF9"/>
<path d="M3.18172 12.728H66.8168C68.574 12.728 69.9985 14.1525 69.9985 15.9098V15.9099C69.9985 17.6671 68.574 19.0916 66.8168 19.0916H3.18172C1.42449 19.0916 0 17.6671 0 15.9099V15.9098C0 14.1525 1.42449 12.728 3.18172 12.728Z" fill="#E1D5F3"/>
<path d="M6.3636 0.000488281H63.6355C67.15 0.000488281 69.9991 2.84962 69.9991 6.36408V15.9094H0V6.36408C0 2.84962 2.84913 0.000488281 6.3636 0.000488281Z" fill="#5628B4"/>
<path d="M6.36361 0.000488281H63.6361C65.3934 0.000488281 66.8178 1.42498 66.8178 3.18221C66.8178 4.93945 65.3934 6.36408 63.6361 6.36408H6.36361C4.60637 6.36408 3.18188 4.93959 3.18188 3.18236C3.18188 1.42513 4.60637 0.000488281 6.36361 0.000488281Z" fill="#6F48BF"/>
<path d="M4.59094 13H65.045C65.9236 13 66.636 13.7123 66.636 14.5909C66.636 15.4696 65.9236 16.1819 65.045 16.1819H4.59094C3.71232 16.1819 3 15.4696 3 14.5909C3 13.7123 3.71232 13 4.59094 13Z" fill="#421198"/>
<path d="M68.4082 22.2729C67.5295 22.2729 66.8172 22.9851 66.8172 23.8637V57.2725C66.8172 59.0297 65.3927 60.4542 63.6355 60.4542H46.1358C45.2572 60.4542 44.5449 61.1665 44.5449 62.0452C44.5449 62.9238 45.2572 63.6361 46.1358 63.6361H63.6355C67.15 63.6361 69.9989 60.787 69.9991 57.2725V23.8639C69.9991 22.9851 69.2868 22.2729 68.4082 22.2729Z" fill="#D9C9EF"/>
<path d="M1.59094 28.6362C2.46955 28.6362 3.18187 29.3486 3.18187 30.2272V55.6813C3.18187 56.5599 2.46955 57.2722 1.59094 57.2722C0.712319 57.2722 0 56.5599 0 55.6813V30.2272C0 29.3486 0.712319 28.6362 1.59094 28.6362Z" fill="#DFD2F2"/>
<path d="M7.95498 9.54662C8.83363 9.54662 9.54592 8.83433 9.54592 7.95568C9.54592 7.07703 8.83363 6.36475 7.95498 6.36475C7.07633 6.36475 6.36404 7.07703 6.36404 7.95568C6.36404 8.83433 7.07633 9.54662 7.95498 9.54662Z" fill="#F7B236"/>
<path d="M14.3175 9.54662C15.1962 9.54662 15.9085 8.83433 15.9085 7.95568C15.9085 7.07703 15.1962 6.36475 14.3175 6.36475C13.4389 6.36475 12.7266 7.07703 12.7266 7.95568C12.7266 8.83433 13.4389 9.54662 14.3175 9.54662Z" fill="#B39DDD"/>
<path d="M20.6816 9.54662C21.5602 9.54662 22.2725 8.83433 22.2725 7.95568C22.2725 7.07703 21.5602 6.36475 20.6816 6.36475C19.8029 6.36475 19.0906 7.07703 19.0906 7.95568C19.0906 8.83433 19.8029 9.54662 20.6816 9.54662Z" fill="#D80E70"/>
<path d="M60.4538 44.5454H28.636C26.8787 44.5454 25.4543 43.1209 25.4543 41.3636V25.4552C25.4543 23.6979 26.8787 22.2734 28.636 22.2734H60.4538C62.211 22.2734 63.6355 23.6979 63.6355 25.4552V41.3636C63.6355 43.1209 62.211 44.5454 60.4538 44.5454ZM15.9085 35H9.54534C7.78811 35 6.36362 33.5755 6.36362 31.8183V25.4552C6.36362 23.6979 7.78811 22.2734 9.54534 22.2734H15.9085C17.6657 22.2734 19.0902 23.6979 19.0902 25.4552V31.8183C19.0902 33.5755 17.6657 35 15.9085 35ZM15.9085 57.2719H9.54534C7.78811 57.2719 6.36362 55.8475 6.36362 54.0902V47.7271C6.36362 45.9698 7.78811 44.5454 9.54534 44.5454H15.9085C17.6657 44.5454 19.0902 45.9698 19.0902 47.7271V54.0902C19.0902 55.8475 17.6657 57.2719 15.9085 57.2719ZM27.0452 47.7266H36.5899C37.4685 47.7266 38.1808 48.4389 38.1808 49.3176C38.1808 50.1962 37.4685 50.9085 36.5899 50.9085H27.0452C26.1666 50.9085 25.4543 50.1962 25.4543 49.3176C25.4543 48.4389 26.1666 47.7266 27.0452 47.7266ZM58.8624 47.7266H62.0441C62.9228 47.7266 63.6351 48.4389 63.6351 49.3176C63.6351 50.1962 62.9228 50.9085 62.0441 50.9085H58.8624C57.9838 50.9085 57.2715 50.1962 57.2715 49.3176C57.2715 48.4389 57.9838 47.7266 58.8624 47.7266ZM42.9546 47.7266H52.4993C53.3779 47.7266 54.0902 48.4389 54.0902 49.3176C54.0902 50.1962 53.3779 50.9085 52.4993 50.9085H42.9546C42.0759 50.9085 41.3636 50.1962 41.3636 49.3176C41.3636 48.4389 42.0759 47.7266 42.9546 47.7266ZM27.0452 54.0907H39.7727C40.6513 54.0907 41.3636 54.803 41.3636 55.6816C41.3636 56.5602 40.6513 57.2725 39.7727 57.2725H27.0452C26.1666 57.2725 25.4543 56.5602 25.4543 55.6816C25.4543 54.803 26.1666 54.0907 27.0452 54.0907ZM46.1358 54.0907H49.3176C50.1962 54.0907 50.9085 54.803 50.9085 55.6816C50.9085 56.5602 50.1962 57.2725 49.3176 57.2725H46.1358C45.2572 57.2725 44.5449 56.5602 44.5449 55.6816C44.5449 54.803 45.2572 54.0907 46.1358 54.0907ZM17.4993 41.3641H7.95455C7.07594 41.3641 6.36362 40.6518 6.36362 39.7731C6.36362 38.8945 7.07594 38.1822 7.95455 38.1822H17.4993C18.3779 38.1822 19.0902 38.8945 19.0902 39.7731C19.0902 40.6518 18.3779 41.3641 17.4993 41.3641Z" fill="#B39DDD"/>
<path d="M34.9996 47.7271H31.8181C23.032 47.7271 15.9092 54.8497 15.9092 63.636V63.7205C15.9205 65.4585 14.3866 66.8178 12.6486 66.8178H11.1363C10.2576 66.8178 9.54532 67.5302 9.54532 68.4088C9.54532 69.2874 10.2576 69.9997 11.1363 69.9997H22.2725C31.0587 69.9996 38.1813 62.8768 38.1813 54.0907V47.7271H34.9996Z" fill="#F7B236"/>
<path d="M38.1813 54.0907V47.7271H34.9996C34.9996 56.5132 27.877 63.636 19.0906 63.636H15.9094V63.7204C15.9207 65.4582 14.3866 66.8177 12.6487 66.8177H11.1363C10.2576 66.8177 9.54532 67.53 9.54532 68.4086C9.54532 69.2872 10.2576 69.9996 11.1363 69.9996H22.2725C31.0587 69.9994 38.1813 62.8768 38.1813 54.0907Z" fill="#F58B04"/>
<path d="M68.9327 16.9759C68.4547 16.4978 67.853 16.1624 67.195 16.007C66.5371 15.8517 65.8488 15.8827 65.2075 16.0965C53.9935 20.0588 44.7544 28.2178 39.4354 38.8557L38.1813 41.3637V47.7273H44.5449L47.0529 46.4733C57.6907 41.1543 65.8497 31.9152 69.8121 20.7012C70.0259 20.0599 70.0569 19.3716 69.9016 18.7136C69.7463 18.0556 69.4108 17.4539 68.9327 16.9759Z" fill="#D80E70"/>
<path d="M56.8939 25.8346C55.6514 24.5921 51.9642 26.2646 48.6583 29.5704C45.3524 32.8761 43.6798 36.5632 44.9223 37.8058C46.1648 39.0484 49.852 37.3758 53.1579 34.0701C56.4637 30.7643 58.1364 27.0772 56.8939 25.8346Z" fill="#E976AF"/>
<path d="M65.2074 16.0965C64.6566 16.2911 64.1338 16.5418 63.5927 16.7563C63.1784 31.0222 52.3579 42.8228 38.1813 44.4695V47.7274H44.5449L47.0529 46.4733C57.6907 41.1542 65.8497 31.9152 69.8122 20.7012C70.4479 18.7938 69.4168 16.7321 67.5094 16.0965C66.7623 15.8474 65.9545 15.8474 65.2074 16.0965Z" fill="#A60068"/>
<path d="M34.9996 47.7272L38.1813 50.9091L44.5449 47.7272L38.1813 41.3638L34.9996 47.7272Z" fill="#5628B4"/>
<path d="M36.7195 49.4472L38.1813 50.909L44.5449 47.7272L41.4922 44.6745C40.1742 43.3565 38.0375 43.3565 36.7195 44.6745C36.0866 45.3074 35.7311 46.1658 35.7311 47.0609C35.7311 47.9559 36.0866 48.8143 36.7195 49.4472Z" fill="#420F9B"/>
<path d="M28.4355 51.255C27.4677 50.2872 24.6792 51.5064 22.2072 53.9783C19.7352 56.4502 18.5159 59.2386 19.4837 60.2065C20.4516 61.1744 23.2401 59.9551 25.7121 57.4833C28.184 55.0114 29.4033 52.2229 28.4355 51.255Z" fill="#FBDA9E"/>
</g>
<defs>
<clipPath id="clip0_277_140">
<rect width="70" height="70" fill="white"/>
</clipPath>
</defs>
</svg>
