<svg width="16" height="8" viewBox="0 0 16 8" fill="none" xmlns="http://www.w3.org/2000/svg">
<path d="M15.8167 4.44241L15.8161 4.443L12.5504 7.693C12.3057 7.93647 11.91 7.93556 11.6665 7.69088C11.423 7.44622 11.4239 7.0505 11.6686 6.807L13.8612 4.625H0.625C0.279813 4.625 0 4.34519 0 4C0 3.65481 0.279813 3.375 0.625 3.375H13.8612L11.6686 1.193C11.4239 0.949502 11.423 0.553784 11.6665 0.309128C11.91 0.0644093 12.3058 0.0635657 12.5504 0.307003L15.8162 3.557L15.8167 3.5576C16.0615 3.80191 16.0607 4.19891 15.8167 4.44241Z" fill="white" fill-opacity="0.8"/>
</svg>
