<svg width="14" height="14" viewBox="0 0 14 14" fill="none" xmlns="http://www.w3.org/2000/svg">
<g clip-path="url(#clip0_304_186)">
<path d="M13.8396 6.61289L13.8391 6.61237L10.9816 3.76862C10.7675 3.55559 10.4213 3.55638 10.2082 3.77048C9.9951 3.98456 9.99592 4.33081 10.21 4.54387L12.1285 6.45312H0.546875C0.244836 6.45312 0 6.69796 0 7C0 7.30204 0.244836 7.54687 0.546875 7.54687H12.1285L10.21 9.45612C9.99594 9.66919 9.99512 10.0154 10.2082 10.2295C10.4213 10.4436 10.7676 10.4444 10.9816 10.2314L13.8391 7.38762L13.8396 7.3871C14.0538 7.17333 14.0531 6.82596 13.8396 6.61289Z" fill="#0C5ADB"/>
</g>
<defs>
<clipPath id="clip0_304_186">
<rect width="14" height="14" fill="white"/>
</clipPath>
</defs>
</svg>
