<svg width="15" height="15" viewBox="0 0 15 15" fill="none" xmlns="http://www.w3.org/2000/svg">
<path d="M13.4161 8.53799H1.04414C0.470797 8.53799 0.00622559 8.07342 0.00622559 7.50007C0.00622559 6.92673 0.470797 6.46216 1.04414 6.46216H13.4161C13.9895 6.46216 14.454 6.92673 14.454 7.50007C14.454 8.07342 13.9895 8.53799 13.4161 8.53799Z" fill="#010619"/>
<path d="M8.66288 13.4473C8.51992 13.4474 8.37847 13.418 8.24743 13.3609C8.1164 13.3037 7.9986 13.22 7.90146 13.1151C7.51162 12.695 7.53653 12.0382 7.95668 11.6484L12.4185 7.5104L7.82175 3.36122C7.3962 2.97719 7.36258 2.32081 7.7466 1.89527C8.13063 1.46972 8.78701 1.43609 9.21256 1.82012L14.6512 6.72947C14.8675 6.9246 14.9917 7.20151 14.9938 7.49296C14.9958 7.78441 14.8754 8.06298 14.6616 8.26102L9.36825 13.1704C9.17661 13.3486 8.92456 13.4475 8.66288 13.4473Z" fill="#010619"/>
</svg>
