<svg width="86" height="86" viewBox="0 0 86 86" fill="none" xmlns="http://www.w3.org/2000/svg">
<path d="M39.0999 2.33605C41.3453 0.41541 44.6547 0.41541 46.9001 2.33605L51.5136 6.28233C52.8158 7.39616 54.532 7.90009 56.2296 7.66708L62.2443 6.8415C65.1716 6.4397 67.9557 8.22892 68.8062 11.0586L70.5538 16.8727C71.0471 18.5137 72.2184 19.8655 73.7725 20.5873L79.2787 23.1445C81.9585 24.3891 83.3333 27.3995 82.519 30.2398L80.8459 36.0758C80.3736 37.7229 80.6282 39.4934 81.5454 40.9408L84.7949 46.069C86.3764 48.5649 85.9055 51.8406 83.6848 53.7898L79.1221 57.7947C77.8343 58.9251 77.0913 60.5522 77.0803 62.2657L77.0415 68.3366C77.0226 71.2913 74.8554 73.7924 71.9335 74.2316L65.9299 75.134C64.2354 75.3887 62.7306 76.3557 61.795 77.7913L58.4802 82.8775C56.8669 85.3529 53.6915 86.2853 50.996 85.0751L45.4576 82.5884C43.8944 81.8866 42.1056 81.8866 40.5424 82.5884L35.004 85.0751C32.3085 86.2853 29.1331 85.3529 27.5198 82.8775L24.205 77.7913C23.2694 76.3557 21.7646 75.3887 20.0701 75.134L14.0665 74.2316C11.1446 73.7924 8.97735 71.2913 8.95846 68.3366L8.91966 62.2657C8.90871 60.5522 8.16566 58.9251 6.87785 57.7947L2.31517 53.7898C0.0945287 51.8406 -0.376454 48.5649 1.20509 46.069L4.45463 40.9408C5.3718 39.4934 5.62636 37.7229 5.15412 36.0758L3.48098 30.2398C2.66666 27.3995 4.04146 24.3891 6.7213 23.1445L12.2275 20.5873C13.7816 19.8655 14.9529 18.5137 15.4462 16.8727L17.1938 11.0586C18.0444 8.22892 20.8284 6.4397 23.7557 6.8415L29.7704 7.66708C31.468 7.90009 33.1842 7.39616 34.4864 6.28233L39.0999 2.33605Z" fill="#010619"/>
</svg>
