<svg width="114" height="22" viewBox="0 0 114 22" fill="none" xmlns="http://www.w3.org/2000/svg">
<g clip-path="url(#clip0_299_104)">
<path d="M69.6479 4.16705V18.604H73.6591V4.16705H69.6479ZM38.0883 4.14258V18.5918H42.1357V7.37255L45.2916 7.38478C46.3275 7.38478 47.0503 7.64171 47.5442 8.18004C48.1826 8.86518 48.4355 9.97854 48.4355 11.9973V18.5918H52.3624V10.6147C52.3624 4.91337 48.7849 4.14258 45.2916 4.14258H38.0883ZM76.1164 4.16705V18.604H82.6211C86.0902 18.604 87.2225 18.0168 88.4391 16.7076C89.3064 15.79 89.8605 13.7591 89.8605 11.5446C89.8605 9.51362 89.3907 7.70288 88.5596 6.57729C87.09 4.55856 84.9459 4.16705 81.7417 4.16705H76.1164ZM80.0915 7.29914H81.814C84.3195 7.29914 85.9336 8.43697 85.9336 11.3978C85.9336 14.3586 84.3195 15.5086 81.814 15.5086H80.0915V7.29914ZM63.866 4.16705L60.5173 15.6065L57.3132 4.16705H52.9767L57.5541 18.604H63.336L67.9615 4.16705H63.866ZM91.7396 18.604H95.7508V4.16705H91.7396V18.604ZM102.99 4.16705L97.389 18.5918H101.34L102.231 16.0347H108.856L109.7 18.5796H114L108.351 4.16705H102.99ZM105.592 6.79751L108.025 13.5511H103.087L105.592 6.79751Z" fill="black"/>
<path d="M12.2022 6.56514V4.58311C12.395 4.57088 12.5877 4.55864 12.7804 4.55864C18.1287 4.38736 21.634 9.23231 21.634 9.23231C21.634 9.23231 17.8516 14.5667 13.7923 14.5667C13.2502 14.5667 12.7202 14.481 12.2143 14.3097V8.29024C14.2982 8.54716 14.7198 9.477 15.9605 11.5936L18.743 9.22008C18.743 9.22008 16.7073 6.5162 13.2863 6.5162C12.925 6.50397 12.5636 6.52843 12.2022 6.56514ZM12.2022 0.00732422V2.96813L12.7804 2.93142C20.2126 2.67449 25.067 9.1222 25.067 9.1222C25.067 9.1222 19.5019 15.9981 13.7079 15.9981C13.202 15.9981 12.7082 15.9492 12.2143 15.8635V17.6987C12.6238 17.7477 13.0454 17.7844 13.455 17.7844C18.8514 17.7844 22.7542 14.9826 26.5366 11.6793C27.1629 12.1931 29.7287 13.4288 30.2587 13.9671C26.6691 17.0258 18.2973 19.485 13.5514 19.485C13.0936 19.485 12.66 19.4605 12.2263 19.4116V21.9931H32.728V0.00732422L12.2022 0.00732422ZM12.2022 14.3097V15.8758C7.21534 14.9704 5.83009 9.69723 5.83009 9.69723C5.83009 9.69723 8.22718 7.00559 12.2022 6.56514V8.278H12.1902C10.1063 8.02107 8.46809 10.0031 8.46809 10.0031C8.46809 10.0031 9.39561 13.3432 12.2022 14.3097ZM3.34869 9.477C3.34869 9.477 6.29987 5.04803 12.2143 4.58311V2.96813C5.66145 3.50646 0 9.13443 0 9.13443C0 9.13443 3.20414 18.5552 12.2022 19.4116V17.6987C5.60123 16.8668 3.34869 9.477 3.34869 9.477Z" fill="#76B900"/>
</g>
<defs>
<clipPath id="clip0_299_104">
<rect width="114" height="22" fill="white"/>
</clipPath>
</defs>
</svg>
