<svg width="114" height="25" viewBox="0 0 114 25" fill="none" xmlns="http://www.w3.org/2000/svg">
<g clip-path="url(#clip0_299_91)">
<path d="M41.2796 5.93172C38 5.93172 35.6354 8.49913 35.6354 13.1181C35.6354 17.773 37.9644 20.3404 41.3627 20.3404C44.4046 20.3404 46.3415 18.4928 46.4009 15.5655H41.7192V12.6622H49.9537V15.1216C49.9537 20.4124 46.3534 23.6876 41.339 23.6876C35.7423 23.6876 31.94 19.6565 31.94 13.154C31.94 6.54358 35.9206 2.5965 41.232 2.5965C45.7117 2.5965 49.1576 5.40384 49.7874 9.43491H46.0444C45.3909 7.25142 43.7273 5.93172 41.2796 5.93172ZM52.4253 8.01924H56.0019V23.3997H52.4253V8.01924ZM54.2195 5.57181C53.0788 5.57181 52.152 4.70801 52.152 3.61626C52.152 2.52451 53.0907 1.63672 54.2314 1.63672C55.3721 1.63672 56.2989 2.53651 56.2989 3.61626C56.2989 4.69601 55.3721 5.57181 54.2314 5.57181H54.2195ZM66.7436 10.8146H63.7374V18.7807C63.7374 20.2444 64.4622 20.5683 65.3652 20.5683C65.4524 20.5683 65.5395 20.5643 65.6267 20.5563C65.7138 20.5483 65.8009 20.5363 65.8881 20.5203C65.9752 20.5043 66.0623 20.4923 66.1495 20.4843C66.2366 20.4683 66.3238 20.4484 66.4109 20.4244L67.0169 23.2557C66.8426 23.3197 66.6683 23.3717 66.4941 23.4117C66.3198 23.4517 66.1455 23.4876 65.9712 23.5196C65.797 23.5516 65.6187 23.5756 65.4365 23.5916C65.2623 23.6076 65.084 23.6196 64.9018 23.6276C62.2164 23.7116 60.137 22.2839 60.1489 19.3806V10.8266H57.9981V8.01924H60.1489V4.3121H63.7374V8.01924H66.7436V10.8146ZM69.5122 2.87243H73.1839V20.2804H82.1076V23.3997H69.5122V2.87243ZM83.9018 19.0807C83.9018 15.6135 86.718 14.7257 89.6648 14.4018C92.3502 14.1138 93.4315 14.0658 93.4315 13.0221V12.9621C93.4315 11.4504 92.5166 10.5866 90.853 10.5866C89.0944 10.5866 88.0844 11.4864 87.7399 12.5422L84.389 12.0503C85.1851 9.24295 87.6329 7.80329 90.8293 7.80329C93.7286 7.80329 97.0081 9.027 97.0081 13.0941V23.3997H93.5622V21.2882H93.4434C92.7899 22.5839 91.364 23.7116 88.9756 23.7116C86.0763 23.7116 83.8899 22.116 83.9018 19.0807ZM90.152 21.0482C92.3146 21.0482 93.6811 19.5966 93.6692 17.8809V16.0694C93.2058 16.4533 91.3283 16.6932 90.3777 16.8252C88.7855 17.0531 87.5854 17.629 87.5854 19.0327C87.5854 20.3644 88.6548 21.0482 90.152 21.0482ZM99.646 2.87243H103.223V10.5506H103.377C103.924 9.43491 105.041 7.80329 107.726 7.80329C111.243 7.80329 114 10.5986 114 15.7214C114 20.7963 111.315 23.6756 107.738 23.6756C105.124 23.6756 103.947 22.104 103.377 20.9762H103.175V23.3997H99.646V2.87243ZM106.74 20.7003C109.104 20.7003 110.352 18.5768 110.352 15.7095C110.352 12.8421 109.116 10.7786 106.74 10.7786C104.435 10.7786 103.163 12.7101 103.163 15.7095C103.163 18.6968 104.447 20.7003 106.74 20.7003Z" fill="#171321"/>
<path d="M25.6066 11.9662C25.6423 12.674 25.5591 13.3698 25.3571 14.0537C25.167 14.7255 24.8699 15.3734 24.4778 15.9492C24.0857 16.5371 23.5985 17.053 23.04 17.4729L23.0281 17.4849L17.6929 21.5279L15.055 23.5435L13.4628 24.7672C13.3677 24.8392 13.2647 24.8912 13.1538 24.9232C13.0429 24.9632 12.9281 24.9831 12.8093 24.9831C12.6904 24.9831 12.5756 24.9632 12.4647 24.9232C12.3538 24.8912 12.2547 24.8392 12.1676 24.7672L10.5635 23.5435L7.93746 21.5279L2.6379 17.5089L2.61414 17.4849L2.59037 17.4729C2.04378 17.053 1.5566 16.5371 1.16448 15.9492C0.760477 15.3734 0.463416 14.7255 0.273298 14.0537C0.0831788 13.3698 1.86451e-06 12.674 0.0237667 11.9662C0.059414 11.2583 0.202003 10.5625 0.451534 9.90265L0.487181 9.81866L3.96873 0.6168C3.98458 0.568811 4.00438 0.524821 4.02814 0.48483C4.05191 0.44484 4.07963 0.404849 4.11132 0.364858C4.14301 0.324868 4.17469 0.288876 4.20638 0.256883C4.24599 0.224891 4.2856 0.196897 4.3252 0.172903C4.44403 0.10092 4.58662 0.0529306 4.72921 0.0289362C4.8718 0.016939 5.01439 0.0409334 5.14509 0.0889223C5.28768 0.136911 5.40651 0.220892 5.50156 0.328867C5.59662 0.436842 5.66792 0.568811 5.70357 0.712778L8.05629 7.99509H17.5741L19.9268 0.712778C19.9744 0.568811 20.0338 0.436842 20.1407 0.328867C20.2358 0.220892 20.3546 0.136911 20.4853 0.0889223C20.6279 0.0409334 20.7705 0.016939 20.9131 0.0289362C21.0557 0.0529306 21.1864 0.10092 21.3171 0.172903C21.3567 0.196897 21.3923 0.224891 21.424 0.256883C21.4636 0.288876 21.4993 0.324868 21.531 0.364858L21.6023 0.48483C21.626 0.524821 21.6498 0.568811 21.6735 0.6168L25.1551 9.80667L25.1907 9.90265C25.4403 10.5625 25.5829 11.2583 25.6066 11.9662Z" fill="#E24329"/>
<path d="M25.6066 11.9661C25.6423 12.674 25.5591 13.3698 25.369 14.0537C25.167 14.7255 24.8699 15.3733 24.4778 15.9492C24.0857 16.5371 23.5985 17.053 23.04 17.4729L23.0281 17.4849L17.6929 21.5279L12.8211 17.7968L20.4734 11.9421C20.814 11.6782 21.1705 11.4383 21.5428 11.2223C21.9152 10.9984 22.2994 10.7984 22.6954 10.6225C23.0915 10.4385 23.4955 10.2785 23.9074 10.1426C24.3114 10.0066 24.7273 9.89462 25.1551 9.80664L25.1907 9.90262C25.4403 10.5625 25.5829 11.2583 25.6066 11.9661Z" fill="#FC6D26"/>
<path d="M12.8211 17.7969L17.6929 21.528L15.055 23.5435L13.4628 24.7673C13.3677 24.8392 13.2648 24.8912 13.1539 24.9232C13.043 24.9632 12.9281 24.9832 12.8093 24.9832C12.6904 24.9832 12.5756 24.9632 12.4647 24.9232C12.3538 24.8912 12.2548 24.8392 12.1676 24.7673L10.5635 23.5435L7.93747 21.528L12.8211 17.7969Z" fill="#FCA326"/>
<path d="M12.8093 17.797L7.93746 21.5281L2.6379 17.5091L2.61414 17.4851L2.59037 17.4731C2.04378 17.0532 1.5566 16.5373 1.16448 15.9494C0.760477 15.3736 0.463416 14.7257 0.273298 14.0539C0.0831788 13.37 1.86451e-06 12.6742 0.0237667 11.9663C0.059414 11.2585 0.202003 10.5627 0.451534 9.90283L0.487181 9.81885C0.907027 9.90683 1.32291 10.0148 1.73484 10.1428C2.14676 10.2787 2.55076 10.4387 2.94684 10.6227C3.335 10.7986 3.71524 10.9986 4.08756 11.2225C4.45987 11.4465 4.82031 11.6864 5.16886 11.9424L12.8093 17.797Z" fill="#FC6D26"/>
</g>
<defs>
<clipPath id="clip0_299_91">
<rect width="114" height="25" fill="white"/>
</clipPath>
</defs>
</svg>
