<svg width="114" height="28" viewBox="0 0 114 28" fill="none" xmlns="http://www.w3.org/2000/svg">
<g clip-path="url(#clip0_299_117)">
<path d="M109.898 4.10887C110.365 4.58408 110.916 4.82155 111.551 4.82155C112.206 4.82155 112.767 4.58408 113.233 4.10887C113.7 3.63379 113.933 3.07287 113.933 2.42596C113.933 1.77906 113.7 1.21298 113.233 0.727736C112.767 0.242623 112.206 0 111.551 0C110.916 0 110.365 0.242623 109.898 0.727736C109.432 1.21298 109.199 1.77906 109.199 2.42596C109.199 3.07287 109.432 3.63379 109.898 4.10887ZM59.6643 10.3117C59.6643 10.3613 59.6246 10.4016 59.5757 10.4016H56.2995V16.709C56.2995 17.2347 56.4286 17.6187 56.6866 17.8614C56.9447 18.104 57.3218 18.2404 57.8181 18.2708C58.2722 18.2985 58.8259 18.2967 59.4793 18.2651L59.4961 18.2643L59.5262 18.2629L59.571 18.2605C59.6218 18.2578 59.6643 18.2989 59.6643 18.3504V21.7231C59.6643 21.7452 59.6563 21.7666 59.6418 21.783C59.6272 21.7995 59.6072 21.81 59.5856 21.8124L59.5255 21.819C56.9587 22.0977 55.144 21.8399 54.0811 21.0454C52.9992 20.2367 52.4582 18.7913 52.4582 16.709V10.4016H49.9563C49.9328 10.4016 49.9103 10.3921 49.8937 10.3753C49.8771 10.3585 49.8677 10.3356 49.8677 10.3118V6.73123C49.8677 6.6817 49.9074 6.64142 49.9563 6.64142H52.4582V4.137C52.4582 4.06568 52.4998 4.00123 52.5639 3.97243L56.1751 2.35385C56.1886 2.34777 56.2033 2.34521 56.218 2.3464C56.2328 2.3476 56.2469 2.35251 56.2593 2.36069C56.2717 2.36886 56.2818 2.38005 56.2888 2.39323C56.2959 2.4064 56.2995 2.42115 56.2995 2.43613V6.64142H59.5757C59.6246 6.64142 59.6643 6.6817 59.6643 6.73123V10.3117ZM66.6296 9.24911C66.987 8.27876 67.5775 7.55089 68.4014 7.06577C69.1552 6.62174 69.9882 6.38083 70.9 6.34332C70.9442 6.34134 71.0117 6.34002 71.0662 6.33923C71.1155 6.33843 71.1558 6.37885 71.1558 6.42877V10.5436C71.1558 10.6294 71.0822 10.6956 70.9979 10.6878C69.8902 10.5858 68.8956 10.834 68.0142 11.4325C67.0912 12.0592 66.6296 13.1003 66.6296 14.5558V21.7133C66.6296 21.7372 66.6203 21.7601 66.6037 21.7769C66.5871 21.7938 66.5645 21.8033 66.541 21.8033H62.877C62.8535 21.8033 62.831 21.7938 62.8143 21.7769C62.7977 21.7601 62.7884 21.7372 62.7884 21.7133V6.73109C62.7884 6.68143 62.8281 6.64128 62.877 6.64128H66.541C66.5899 6.64128 66.6296 6.68143 66.6296 6.73109V9.24911Z" fill="#212067"/>
<path fill-rule="evenodd" clip-rule="evenodd" d="M84.7925 6.64093C84.7691 6.64093 84.7466 6.65039 84.7299 6.66723C84.7133 6.68407 84.704 6.70691 84.7039 6.73074V8.43003C83.5525 6.95421 81.9347 6.21644 79.8503 6.21644C77.8651 6.21644 76.163 6.98961 74.7435 8.53608C73.3241 10.0827 72.6145 11.978 72.6145 14.2219C72.6145 16.4659 73.3241 18.3612 74.7435 19.9078C76.163 21.4543 77.8651 22.2276 79.8503 22.2276C81.9347 22.2276 83.5525 21.4896 84.7039 20.0138V21.7131C84.7039 21.7628 84.7436 21.8029 84.7925 21.8029H88.4565C88.4682 21.8029 88.4797 21.8006 88.4905 21.7961C88.5012 21.7916 88.511 21.785 88.5192 21.7767C88.5274 21.7683 88.534 21.7584 88.5384 21.7475C88.5429 21.7366 88.5452 21.7249 88.5452 21.7131V6.73074C88.5451 6.70691 88.5358 6.68407 88.5192 6.66723C88.5026 6.65039 88.48 6.64093 88.4565 6.64093H84.7925ZM77.6167 17.315C78.391 18.1035 79.3736 18.4977 80.5647 18.4977C81.7558 18.4977 82.7434 18.0985 83.5274 17.2999C84.3116 16.5014 84.7037 15.4755 84.7037 14.2219C84.7037 12.9685 84.3116 11.9426 83.5274 11.144C82.7434 10.3455 81.7558 9.94625 80.5647 9.94625C79.3736 9.94625 78.391 10.3455 77.6167 11.1442C76.8425 11.9426 76.4554 12.9685 76.4554 14.2219C76.4554 15.4755 76.8425 16.5064 77.6167 17.315ZM105.229 8.53608C103.81 6.98948 102.097 6.21631 100.092 6.21631C98.008 6.21631 96.3999 6.95421 95.2684 8.42989V6.73087C95.2684 6.70704 95.2591 6.6842 95.2424 6.66736C95.2258 6.65052 95.2033 6.64106 95.1798 6.64106H91.5158C91.4923 6.64106 91.4698 6.65052 91.4532 6.66736C91.4366 6.6842 91.4272 6.70704 91.4272 6.73087V27.778C91.4272 27.8277 91.4669 27.868 91.5158 27.868H95.1798C95.2033 27.868 95.2259 27.8585 95.2425 27.8416C95.2591 27.8248 95.2684 27.8019 95.2684 27.778V20.014C96.3999 21.4898 98.008 22.2277 100.092 22.2277C102.097 22.2277 103.81 21.4544 105.229 19.9079C106.648 18.3613 107.358 16.466 107.358 14.2221C107.358 11.9781 106.648 10.0828 105.229 8.53621V8.53608ZM96.4295 17.3151C97.2036 18.1036 98.1863 18.4979 99.3774 18.4979C100.568 18.4979 101.556 18.0986 102.34 17.3001C103.124 16.5016 103.516 15.4756 103.516 14.2221C103.516 12.9687 103.124 11.9427 102.34 11.1442C101.556 10.3456 100.568 9.94638 99.3774 9.94638C98.1863 9.94638 97.2036 10.3456 96.4295 11.1443C95.6552 11.9427 95.2682 12.9687 95.2682 14.2221C95.2682 15.4756 95.6552 16.5066 96.4295 17.3151Z" fill="#212067"/>
<path d="M109.734 21.8033C109.711 21.8033 109.688 21.7938 109.672 21.777C109.655 21.7601 109.646 21.7372 109.646 21.7134V6.73114C109.646 6.68148 109.685 6.6412 109.734 6.6412H113.398C113.447 6.6412 113.487 6.68148 113.487 6.73114V21.7134C113.487 21.7372 113.477 21.7601 113.461 21.777C113.444 21.7938 113.422 21.8033 113.398 21.8033H109.734ZM41.1677 11.9324C40.6416 11.6797 40.3786 11.3513 40.3786 10.9469C40.3786 10.5628 40.5423 10.2595 40.8699 10.0371C41.1974 9.81484 41.6094 9.70363 42.1056 9.70363C43.0572 9.70363 43.7762 10.0814 44.2623 10.8368C44.2784 10.8625 44.3031 10.8815 44.3318 10.8904C44.3605 10.8994 44.3914 10.8976 44.419 10.8854L47.6598 9.42535C47.6712 9.42025 47.6814 9.41277 47.6897 9.40338C47.698 9.39399 47.7043 9.38292 47.7081 9.37089C47.7119 9.35886 47.7132 9.34614 47.7118 9.33358C47.7104 9.32102 47.7064 9.30891 47.7001 9.29803C47.6629 9.23376 47.6249 9.17001 47.5861 9.10678C47.0306 8.21738 46.312 7.55489 45.4109 7.05023C44.4183 6.4942 43.3166 6.21631 42.1056 6.21631C40.4977 6.21631 39.1528 6.64595 38.0708 7.5051C36.9889 8.36425 36.448 9.54184 36.448 11.0379C36.448 12.0284 36.7111 12.8523 37.2371 13.5093C37.7632 14.1663 38.4033 14.6464 39.1577 14.9497C39.9121 15.2529 40.6665 15.5056 41.4208 15.7078C42.1751 15.91 42.8153 16.1374 43.3415 16.3901C43.8675 16.6427 44.1304 16.9713 44.1304 17.3756C44.1304 18.2449 43.4456 18.6796 42.0759 18.6796C40.772 18.6796 39.8685 18.1888 39.3653 17.2075C39.3221 17.1231 39.2232 17.0845 39.1375 17.1232L35.9058 18.5815C35.895 18.5863 35.8853 18.5933 35.8772 18.6021C35.8691 18.6108 35.8628 18.6211 35.8587 18.6324C35.8546 18.6437 35.8528 18.6556 35.8534 18.6676C35.8539 18.6796 35.8569 18.6914 35.862 18.7022C35.8751 18.7297 35.8889 18.7585 35.8989 18.7789C37.0284 21.078 39.0873 22.2276 42.0759 22.2276C43.7831 22.2276 45.2074 21.8081 46.3488 20.969C47.4903 20.1301 48.0611 18.9323 48.0611 17.3756C48.0611 16.3446 47.798 15.4854 47.272 14.798C46.7458 14.1107 46.1057 13.6205 45.3513 13.3274C44.612 13.0391 43.8563 12.7961 43.0884 12.5996C42.334 12.4075 41.6937 12.1851 41.1677 11.9324Z" fill="#212067"/>
<path d="M0.0669556 9.70662C0.0669556 5.13087 0.0669556 2.84306 1.46757 1.42153C2.86818 0 5.12233 0 9.63075 0H18.0912C22.5996 0 24.8537 0 26.2543 1.42153C27.655 2.84306 27.655 5.13087 27.655 9.70662V18.2934C27.655 22.8691 27.655 25.1569 26.2543 26.5785C24.8537 28 22.5996 28 18.0912 28H9.63075C5.12233 28 2.86818 28 1.46757 26.5785C0.0669556 25.1569 0.0669556 22.8691 0.0669556 18.2934V9.70662Z" fill="#4945FF"/>
<path fill-rule="evenodd" clip-rule="evenodd" d="M19.1027 8.49316H9.81464V13.2998H14.5507V18.1064H19.2866V8.67979C19.2866 8.57677 19.2042 8.49316 19.1027 8.49316Z" fill="white"/>
<path d="M14.3666 13.2998H14.5505V13.4864H14.3666V13.2998Z" fill="white"/>
<path d="M9.81464 13.2998H14.3667C14.4683 13.2998 14.5507 13.3834 14.5507 13.4864V18.1064H9.99865C9.89701 18.1064 9.81464 18.0229 9.81464 17.9198V13.2998ZM14.5507 18.1064H19.2866L14.7076 22.7537C14.6948 22.7668 14.6784 22.7757 14.6606 22.7794C14.6427 22.783 14.6242 22.7811 14.6074 22.7741C14.5906 22.767 14.5762 22.7551 14.5661 22.7397C14.556 22.7244 14.5507 22.7063 14.5507 22.6878V18.1064ZM9.81464 13.2998H5.30088C5.28271 13.2998 5.26495 13.2943 5.24984 13.284C5.23473 13.2738 5.22296 13.2592 5.216 13.2422C5.20904 13.2251 5.20721 13.2064 5.21073 13.1883C5.21426 13.1702 5.22299 13.1536 5.23581 13.1405L9.81477 8.49316L9.81464 13.2998Z" fill="#9593FF"/>
</g>
<defs>
<clipPath id="clip0_299_117">
<rect width="114" height="28" fill="white"/>
</clipPath>
</defs>
</svg>
