<svg width="114" height="32" viewBox="0 0 114 32" fill="none" xmlns="http://www.w3.org/2000/svg">
<g clip-path="url(#clip0_299_51)">
<path d="M104.881 11.3901C104.604 11.3901 104.335 11.4469 104.096 11.5806L96.5509 15.8995C96.0627 16.1784 95.7659 16.705 95.7659 17.2653V25.8875C95.7659 26.4474 96.0627 26.9733 96.5509 27.2529L98.5214 28.3804C99.4788 28.848 99.8318 28.8407 100.267 28.8407C101.685 28.8407 102.494 27.9882 102.494 26.5067V17.9956C102.494 17.8753 102.389 17.7893 102.27 17.7893H101.325C101.204 17.7893 101.101 17.8753 101.101 17.9956V26.5067C101.101 27.1633 100.41 27.8238 99.2905 27.2688L97.2398 26.0779C97.1673 26.0389 97.1116 25.9698 97.1116 25.8875V17.2651C97.1116 17.1835 97.1666 17.1003 97.2398 17.0588L104.769 12.756C104.803 12.7363 104.842 12.7259 104.881 12.7259C104.921 12.7259 104.959 12.7363 104.993 12.756L112.523 17.059C112.594 17.1018 112.651 17.181 112.651 17.2656V25.8877C112.651 25.97 112.609 26.0543 112.539 26.094L104.993 30.397C104.929 30.4352 104.84 30.4352 104.769 30.397L102.831 29.2539C102.801 29.238 102.768 29.2297 102.735 29.2297C102.701 29.2297 102.668 29.238 102.639 29.2539C102.103 29.5544 102.003 29.5893 101.501 29.7619C101.377 29.8047 101.19 29.8711 101.565 30.0797L104.096 31.5561C104.335 31.6926 104.606 31.7638 104.881 31.7627C105.157 31.7644 105.428 31.6931 105.666 31.5563L113.212 27.2531C113.7 26.9717 113.997 26.4476 113.997 25.8877V17.2653C113.997 16.7052 113.7 16.1795 113.212 15.8999L105.666 11.581C105.43 11.4471 105.159 11.3904 104.881 11.3904L104.881 11.3901Z" fill="#83CD29"/>
<path d="M106.9 17.5513C104.751 17.5513 103.471 18.4576 103.471 19.965C103.471 21.5998 104.742 22.0491 106.804 22.2513C109.271 22.4907 109.463 22.8498 109.463 23.3311C109.463 24.166 108.791 24.522 107.204 24.522C105.21 24.522 104.772 24.0285 104.625 23.0453C104.608 22.9398 104.526 22.8547 104.417 22.8547H103.439C103.319 22.8547 103.215 22.9575 103.215 23.0771C103.215 24.3357 103.906 25.824 107.204 25.824C109.592 25.824 110.969 24.8952 110.969 23.2676C110.969 21.6543 109.857 21.2211 107.54 20.9177C105.2 20.6107 104.977 20.4604 104.977 19.9173C104.977 19.4688 105.167 18.869 106.9 18.869C108.448 18.869 109.02 19.2 109.255 20.2349C109.275 20.332 109.362 20.4094 109.463 20.4094H110.44C110.5 20.4094 110.559 20.3728 110.6 20.33C110.641 20.2843 110.67 20.2329 110.665 20.1713C110.513 18.3894 109.314 17.5513 106.9 17.5513Z" fill="#83CD29"/>
<path d="M60.522 0.0845752C60.4376 0.0846306 60.3547 0.10646 60.2815 0.147913C60.2087 0.190125 60.1483 0.250402 60.1062 0.322806C60.064 0.39521 60.0417 0.477243 60.0413 0.560823V12.708C60.0413 12.8272 59.9854 12.934 59.8812 12.9938C59.8301 13.0233 59.7721 13.0388 59.713 13.0388C59.6539 13.0388 59.5958 13.0233 59.5447 12.9938L57.5422 11.8506C57.3961 11.7669 57.2304 11.7228 57.0616 11.7228C56.8928 11.7228 56.7271 11.7669 56.581 11.8506L48.5871 16.4236C48.2883 16.5946 48.1066 16.9232 48.1066 17.2653V26.4113C48.1066 26.7529 48.2885 27.0659 48.5871 27.2369L56.581 31.81C56.727 31.894 56.8928 31.9383 57.0616 31.9383C57.2304 31.9383 57.3962 31.894 57.5422 31.81L65.5361 27.2369C65.6825 27.1534 65.804 27.0331 65.8884 26.8881C65.9728 26.7432 66.0171 26.5787 66.0168 26.4113V3.60965C66.0166 3.43835 65.9705 3.27018 65.8833 3.1223C65.7961 2.97443 65.6708 2.85214 65.5203 2.76794L60.7622 0.132023C60.6876 0.0907545 60.6048 0.0834717 60.522 0.0845752ZM9.09784 11.5013C8.94555 11.5073 8.80216 11.5337 8.66545 11.6123L0.671287 16.1854C0.52485 16.2688 0.403271 16.3891 0.318886 16.5341C0.2345 16.6791 0.19031 16.8436 0.1908 17.011L0.206831 29.2856C0.206831 29.4562 0.29567 29.6148 0.447074 29.6983C0.519661 29.7415 0.602747 29.7643 0.687429 29.7643C0.772111 29.7643 0.855197 29.7415 0.927784 29.6983L5.66964 26.999C5.97 26.822 6.16616 26.5144 6.16616 26.1732V20.441C6.16616 20.0989 6.34762 19.7851 6.64687 19.6152L8.66523 18.4561C8.81116 18.372 8.97713 18.3281 9.14594 18.329C9.3107 18.329 9.47992 18.3698 9.62642 18.4561L11.645 19.6152C11.7916 19.6985 11.9133 19.8188 11.9977 19.9638C12.0821 20.1089 12.1263 20.2735 12.1257 20.441V26.173C12.1257 26.5141 12.3239 26.824 12.6222 26.9988L17.3641 29.6983C17.4367 29.7415 17.5198 29.7643 17.6044 29.7643C17.6891 29.7643 17.7722 29.7415 17.8448 29.6983C17.9179 29.6563 17.9785 29.5961 18.0207 29.5237C18.0629 29.4512 18.0852 29.369 18.0853 29.2853L18.1008 17.011C18.1018 16.8435 18.0578 16.6788 17.9734 16.5338C17.8889 16.3887 17.7671 16.2685 17.6204 16.1854L9.62642 11.6123C9.49127 11.5337 9.34744 11.5075 9.19403 11.5013H9.09784ZM80.9313 11.6123C80.7643 11.6123 80.6007 11.6542 80.4508 11.7394L72.4569 16.3125C72.3105 16.396 72.1889 16.5163 72.1045 16.6613C72.0201 16.8063 71.9758 16.9708 71.9762 17.1381V26.2842C71.9762 26.6282 72.1717 26.9399 72.4727 27.11L80.4027 31.5878C80.6955 31.7533 81.0531 31.7659 81.3479 31.6032L86.1539 28.9517C86.3064 28.8678 86.4095 28.7111 86.4101 28.539C86.411 28.4552 86.3891 28.3726 86.3469 28.3C86.3046 28.2274 86.2435 28.1673 86.1699 28.1261L78.1279 23.5529C77.9774 23.4677 77.8716 23.2954 77.8716 23.1241V20.2662C77.8716 20.0952 77.9785 19.9385 78.1279 19.8533L80.6269 18.4241C80.7 18.3822 80.7829 18.3601 80.8673 18.3601C80.9517 18.3601 81.0346 18.3822 81.1076 18.4241L83.6065 19.8533C83.6797 19.895 83.7405 19.9551 83.7827 20.0276C83.825 20.1 83.8471 20.1823 83.8469 20.266V22.5208C83.8467 22.6044 83.8688 22.6867 83.911 22.7592C83.9532 22.8316 84.014 22.8918 84.0872 22.9335C84.237 23.0193 84.4183 23.0195 84.5677 22.9335L89.3579 20.1711C89.504 20.0873 89.6253 19.9669 89.7097 19.8219C89.7941 19.677 89.8385 19.5126 89.8386 19.3453V17.1384C89.8386 16.7974 89.656 16.4838 89.3579 16.3125L81.412 11.7394C81.2659 11.6557 81.1 11.6117 80.9313 11.6123ZM57.0294 18.4402C57.0713 18.4402 57.1203 18.4504 57.1577 18.4718L59.8972 20.0437C59.9716 20.0863 60.0254 20.1651 60.0254 20.2501V23.394C60.0254 23.4794 59.972 23.558 59.8972 23.6006L57.1577 25.1726C57.1211 25.1933 57.0797 25.2042 57.0375 25.2042C56.9954 25.2042 56.954 25.1933 56.9174 25.1726L54.1781 23.6006C54.1035 23.5578 54.0499 23.4794 54.0499 23.394V20.2501C54.0499 20.1649 54.1037 20.0868 54.1781 20.0437L56.9174 18.472C56.9511 18.4512 56.99 18.4403 57.0296 18.4404L57.0294 18.4402Z" fill="#404137"/>
<path d="M33.1118 11.5645C32.9452 11.5645 32.7804 11.6064 32.6313 11.6916L24.6373 16.2488C24.3383 16.4194 24.1566 16.7487 24.1566 17.0903V26.2363C24.1566 26.5784 24.3385 26.8909 24.6373 27.0622L32.6313 31.6351C32.7772 31.7191 32.943 31.7634 33.1119 31.7634C33.2807 31.7634 33.4465 31.7191 33.5925 31.6351L41.5864 27.0622C41.7327 26.9786 41.8542 26.8583 41.9386 26.7133C42.023 26.5683 42.0672 26.4037 42.0669 26.2363V17.0903C42.0669 16.7482 41.8852 16.4194 41.5864 16.2488L33.5925 11.6916C33.4463 11.6079 33.2805 11.5641 33.1118 11.5645ZM80.9153 19.7262C80.8835 19.7262 80.8481 19.7262 80.8193 19.7421L79.2815 20.6313C79.2528 20.6471 79.2288 20.6701 79.2119 20.698C79.195 20.7258 79.1858 20.7576 79.1853 20.7902V22.5367C79.1853 22.6025 79.2236 22.6627 79.2815 22.6956L80.8193 23.5689C80.877 23.602 80.9385 23.602 80.9955 23.5689L82.5333 22.6954C82.5619 22.6795 82.5858 22.6565 82.6027 22.6287C82.6195 22.6009 82.6288 22.5692 82.6295 22.5367V20.7899C82.6288 20.7575 82.6195 20.7258 82.6027 20.698C82.5858 20.6701 82.5619 20.6471 82.5333 20.6313L80.9955 19.7419C80.967 19.7253 80.9474 19.7262 80.9153 19.7262Z" fill="#83CD29"/>
</g>
<defs>
<clipPath id="clip0_299_51">
<rect width="114" height="32" fill="white"/>
</clipPath>
</defs>
</svg>
