<svg width="10" height="10" viewBox="0 0 10 10" fill="none" xmlns="http://www.w3.org/2000/svg">
<g clip-path="url(#clip0_290_318)">
<path d="M9.14822 8.33332C8.68798 8.33332 8.31488 7.96021 8.31488 7.49998V1.66665H2.48158C2.02134 1.66665 1.64824 1.29355 1.64824 0.833313C1.64824 0.373078 2.02134 0 2.48158 0H9.14822C9.60845 0 9.98156 0.373105 9.98156 0.83334V7.49998C9.98156 7.96021 9.60845 8.33332 9.14822 8.33332Z" fill="white"/>
<path d="M0.856579 10.0001C0.746908 10.0008 0.63819 9.97974 0.53666 9.93827C0.43513 9.8968 0.342786 9.8357 0.264923 9.75846C-0.0618325 9.43437 -0.0640004 8.90674 0.260093 8.57995L0.264923 8.57512L8.5149 0.325145C8.84165 -0.00161072 9.37146 -0.00161072 9.69824 0.325145C10.025 0.6519 10.025 1.1817 9.69824 1.50848L1.44826 9.75846C1.37039 9.8357 1.27804 9.8968 1.17651 9.93827C1.07497 9.97974 0.966253 10.0008 0.856579 10.0001Z" fill="white"/>
</g>
<defs>
<clipPath id="clip0_290_318">
<rect width="10" height="10" fill="white"/>
</clipPath>
</defs>
</svg>
