<svg width="114" height="30" viewBox="0 0 114 30" fill="none" xmlns="http://www.w3.org/2000/svg">
<g clip-path="url(#clip0_299_63)">
<path d="M34.4588 22.6696V17.2216C34.4588 16.0283 34.3033 15.2404 34.0147 14.8126C33.7259 14.3849 33.2595 14.1823 32.6821 14.1823C32.2379 14.1823 31.8383 14.2951 31.4829 14.5651C31.1276 14.8353 30.861 15.173 30.6834 15.6456C30.5059 16.096 30.3948 16.8162 30.3948 17.8295V22.6696H27.7743V17.4692C27.7743 16.5237 27.7075 15.8709 27.5742 15.443C27.441 15.0153 27.2189 14.7002 26.9525 14.4977C26.686 14.2949 26.3751 14.2049 25.9753 14.2049C25.5311 14.2049 25.1092 14.3177 24.7539 14.5877C24.3985 14.8577 24.1319 15.2179 23.9544 15.6907C23.7768 16.1635 23.6878 16.9516 23.6878 17.9644V22.6696H21.1118V12.0212H23.7323V13.237C24.1764 12.7417 24.6651 12.404 25.2203 12.1563C25.7754 11.9086 26.3529 11.7961 27.0191 11.7961C27.6632 11.7961 28.2629 11.9538 28.7736 12.2914C29.3065 12.6065 29.7284 13.1242 30.0615 13.7547C30.4836 13.1242 30.972 12.6291 31.5717 12.2914C32.1894 11.967 32.8748 11.7971 33.5706 11.7961C34.3033 11.7961 34.9475 11.9761 35.5026 12.3138C36.0578 12.674 36.4797 13.1242 36.724 13.6872C36.9683 14.25 37.1016 15.1279 37.1016 16.3886V22.6696H34.4588ZM48.4721 20.1257C47.9835 21.0036 47.3173 21.6789 46.4733 22.1517C45.6295 22.6471 44.6967 22.8947 43.6751 22.8947C42.1872 22.8947 40.8991 22.3543 39.8552 21.2738C38.7894 20.1934 38.2785 18.8874 38.2785 17.3341C38.2785 15.6907 38.8782 14.3174 40.0775 13.2144C41.1211 12.2463 42.3205 11.7735 43.6974 11.7735C44.6745 11.7735 45.6072 12.0212 46.4733 12.5165C47.3395 13.0117 48.0057 13.6872 48.4944 14.5426C48.9828 15.3981 49.2271 16.3211 49.2271 17.3116C49.2049 18.3246 48.9608 19.2476 48.4721 20.1257ZM45.7848 15.1279C45.2519 14.5651 44.5634 14.2723 43.7417 14.2723C42.9202 14.2723 42.2537 14.5651 41.7208 15.1279C41.1879 15.6907 40.8991 16.4337 40.8991 17.3341C40.8991 18.2571 41.1656 19.0001 41.6986 19.5627C42.2317 20.1257 42.9202 20.4183 43.7197 20.4183C44.5412 20.4183 45.2296 20.1257 45.7628 19.5629C46.2957 18.9776 46.5843 18.2346 46.5843 17.3341C46.5843 16.4337 46.318 15.6905 45.7848 15.1279ZM57.222 22.6696V17.9644C57.222 16.7037 57.1553 15.9158 57.0445 15.4881C56.9332 15.0828 56.7334 14.7677 56.467 14.5426C56.2005 14.3174 55.8451 14.2049 55.4232 14.2049C54.8903 14.2049 54.446 14.3849 54.0686 14.7451C53.691 15.1053 53.4244 15.6007 53.2691 16.2311C53.2023 16.5688 53.1578 17.3341 53.1578 18.4371V22.6696H50.5375V12.0212H53.158V13.1017C53.7575 12.584 54.2906 12.2689 54.7791 12.0663C55.2677 11.8635 55.7563 11.7735 56.267 11.7735C57.3108 11.7735 58.1771 12.1338 58.8876 12.854C59.4872 13.4844 59.8426 14.4074 59.8426 15.6232V22.6247H57.222V22.6696ZM70.8132 25.0561C69.8586 26.2042 68.4592 26.7893 66.5271 26.7893C65.5058 26.7893 64.6173 26.6542 63.9288 26.3842C63.2404 26.114 62.6407 25.7538 62.1745 25.2361C61.6859 24.7408 61.286 24.1105 61.0642 23.3901H64.0399C64.3065 23.6826 64.573 23.9303 64.9949 24.0654C65.3945 24.2229 65.8832 24.2905 66.4161 24.2905C67.1268 24.2905 67.6822 24.1777 68.1041 23.9529C68.526 23.7277 68.8368 23.4575 69.0146 23.0973C69.1922 22.7371 69.281 22.1743 69.281 21.3187C68.8146 21.7915 68.3262 22.0843 67.8153 22.2868C67.3046 22.4894 66.7494 22.6245 66.1053 22.6245C64.7061 22.6245 63.5292 22.0843 62.5519 21.0487C61.5971 20.0357 61.153 18.7525 61.153 17.199C61.153 15.5332 61.5971 14.1598 62.6187 13.1242C63.5512 12.2012 64.6173 11.751 65.9052 11.751C66.5051 11.751 67.1046 11.8638 67.6377 12.0886C68.1706 12.3138 68.7036 12.6965 69.2587 13.2142V11.9986H71.8793V21.0713C71.9015 22.8722 71.5242 24.2003 70.8134 25.0559L70.8132 25.0561ZM68.5925 15.0828C68.0596 14.5426 67.3489 14.2049 66.5271 14.2049C65.7056 14.2049 65.0392 14.5426 64.5063 15.1053C63.9734 15.6681 63.6625 16.3888 63.6625 17.2441C63.6625 18.122 63.9734 18.8199 64.5285 19.3827C65.0837 19.9455 65.7722 20.2383 66.5939 20.2383C67.4156 20.2383 68.0819 19.968 68.5925 19.4053C69.1257 18.865 69.392 18.122 69.392 17.2441C69.392 16.3437 69.1257 15.6458 68.5925 15.0828ZM83.4276 20.1257C82.9389 21.0036 82.2727 21.6789 81.4289 22.1517C80.5849 22.6471 79.6521 22.8947 78.6306 22.8947C77.1426 22.8947 75.8547 22.3543 74.8109 21.2738C73.7448 20.1934 73.2342 18.8874 73.2342 17.3341C73.2342 15.6907 73.8336 14.3174 75.033 13.2144C76.0766 12.2463 77.2759 11.7735 78.6528 11.7735C79.6299 11.7735 80.5627 12.0212 81.4289 12.5165C82.295 13.0117 82.9612 13.6872 83.4498 14.5426C83.9384 15.3981 84.1825 16.3211 84.1825 17.3116C84.1603 18.3246 83.9162 19.2476 83.4276 20.1257ZM80.7182 15.1279C80.1851 14.5651 79.4966 14.2723 78.6751 14.2723C77.8533 14.2723 77.1871 14.5651 76.654 15.1279C76.1211 15.6907 75.8325 16.4337 75.8325 17.3341C75.8325 18.2571 76.0988 19.0001 76.632 19.5627C77.1649 20.1257 77.8533 20.4183 78.6528 20.4183C79.4746 20.4183 80.163 20.1257 80.696 19.5629C81.2289 18.9776 81.5177 18.2346 81.5177 17.3341C81.5177 16.4337 81.2511 15.6905 80.7182 15.1279Z" fill="#24292C"/>
<path d="M88.9353 22.9172C87.4251 22.9172 85.604 22.3767 85.604 19.18V7.06836H88.2245V18.6849C88.2245 19.9005 88.7132 20.2607 89.4239 20.2607H89.779V22.6695C89.779 22.6695 89.4017 22.9172 88.9353 22.9172ZM98.4847 22.6695V21.4537C97.9738 21.949 97.4631 22.3541 96.9522 22.5567C96.4416 22.782 95.8641 22.8946 95.2645 22.8946C93.9098 22.8946 92.7549 22.3541 91.7777 21.2963C90.8008 20.2381 90.2454 18.9098 90.2454 17.334C90.2454 15.7131 90.7786 14.3847 91.7111 13.3269C92.6662 12.2913 93.821 11.7734 95.1757 11.7734C95.7974 11.7734 96.3973 11.8862 96.9302 12.1336C97.4854 12.3813 97.996 12.7415 98.4624 13.2366V12.0211H101.083V22.6469H98.4847V22.6695ZM97.774 15.0826C97.2411 14.5199 96.5524 14.2273 95.7308 14.2273C94.9314 14.2273 94.2429 14.5199 93.71 15.1052C93.1768 15.6905 92.866 16.4561 92.866 17.3563C92.866 18.2796 93.1768 19 93.71 19.5851C94.2651 20.1705 94.9316 20.4632 95.7308 20.4632C96.5526 20.4632 97.2411 20.1705 97.774 19.5851C98.3069 19 98.5957 18.257 98.5957 17.3114C98.5957 16.411 98.3291 15.6454 97.774 15.0826ZM112.276 21.2963C111.299 22.3541 110.077 22.8946 108.745 22.8946C108.145 22.8946 107.634 22.7818 107.101 22.5569C106.591 22.3318 106.035 21.949 105.525 21.4539V22.6695H102.904V8.03625H105.525V13.2366C105.991 12.7641 106.546 12.3813 107.101 12.1336C107.657 11.886 108.234 11.7734 108.878 11.7734C110.233 11.7734 111.388 12.2913 112.343 13.3269C113.297 14.3622 113.764 15.6908 113.764 17.334C113.742 18.9323 113.253 20.2381 112.276 21.2963ZM110.344 15.1052C109.811 14.5199 109.122 14.2273 108.323 14.2273C107.501 14.2273 106.813 14.5199 106.28 15.0826C105.747 15.6457 105.458 16.3887 105.458 17.3114C105.458 18.257 105.724 19 106.28 19.5851C106.813 20.1705 107.501 20.4632 108.323 20.4632C109.122 20.4632 109.789 20.1705 110.344 19.5851C110.899 19 111.166 18.2344 111.166 17.334C111.143 16.4335 110.877 15.6903 110.344 15.1052Z" fill="#FC9E18"/>
<path d="M10.8739 29.1982V28.3652H12.2951V29.1982C12.2951 29.6036 11.9842 29.9187 11.5846 29.9187C11.1848 29.9187 10.8739 29.581 10.8739 29.1982Z" fill="#6086A9"/>
<path d="M6.92096 29.1982V28.3652H8.34216V29.1982C8.34216 29.6036 8.03131 29.9187 7.63145 29.9187C7.25406 29.9187 6.92096 29.581 6.92096 29.1982Z" fill="#466E93"/>
<path d="M2.96777 29.1982V28.3652H4.38919V29.1982C4.38919 29.6036 4.07834 29.9187 3.67848 29.9187C3.30088 29.9187 2.96777 29.581 2.96777 29.1982Z" fill="#6086A9"/>
<path d="M13.672 27.4648L13.0281 28.433H2.21277L1.6131 27.4648H13.672Z" fill="url(#paint0_linear_299_63)"/>
<path opacity="0.1" d="M13.9831 26.9917L13.3389 27.9598H1.92392L1.32446 26.9917H13.9831Z" fill="black"/>
<path d="M0.435974 20.4856V7.74394C0.458226 4.23191 3.25657 1.35033 6.83192 0.96777C7.03197 0.922657 7.16503 0.787544 7.20953 0.697545C7.32079 0.494988 7.4316 0.269875 7.49835 0.0896498C7.54286 -0.0229066 7.74245 -0.045463 7.78696 0.0896498C7.85371 0.269875 7.98677 0.494988 8.07556 0.697545C8.12006 0.78777 8.23132 0.922657 8.45316 0.96777C12.0287 1.3501 14.8046 4.23145 14.8269 7.74348V20.4856H0.435974Z" fill="#FAAC18"/>
<path d="M11.207 7.7661V18.7973H11.2293V19.0001C11.2288 19.1332 11.2543 19.2652 11.3043 19.3883C11.3544 19.5114 11.428 19.6233 11.5209 19.7174C11.6138 19.8116 11.7241 19.8862 11.8456 19.9369C11.9671 19.9876 12.0972 20.0134 12.2286 20.0129H13.5167C13.6481 20.0134 13.7782 19.9875 13.8997 19.9368C14.0211 19.8861 14.1314 19.8115 14.2243 19.7174C14.3172 19.6232 14.3908 19.5114 14.4408 19.3883C14.4908 19.2652 14.5163 19.1332 14.5158 19.0001V7.92377C14.494 4.34429 11.5849 1.46271 8.34238 1.19271C7.98703 1.17016 7.74271 0.449707 7.74271 0.449707C7.74271 0.449707 7.47636 1.46271 8.14257 1.95805C9.96362 3.30873 11.2073 5.37986 11.2073 7.76632L11.207 7.7661Z" fill="#F7941D"/>
<path opacity="0.35" d="M7.63145 2.88135C10.6741 2.88135 13.1614 5.38014 13.1614 8.48706C13.1614 11.5712 10.6961 14.0926 7.63145 14.0926C4.58901 14.0926 2.10175 11.5938 2.10175 8.48706C2.124 5.38014 4.58901 2.88135 7.63145 2.88135Z" fill="white"/>
<path d="M12.0288 16.4339C11.1625 16.4339 10.8962 16.7715 10.8962 17.4243C10.8962 18.5273 12.2286 19.8108 12.2286 21.8142C12.2286 23.2775 11.3846 24.4933 9.51926 24.4933H8.65301V22.7147H9.03062C9.71908 22.7147 9.94115 22.3096 9.94115 21.6568C9.94115 20.1708 9.14165 18.8427 9.14165 17.7171C9.14165 16.5915 9.51926 16.0511 10.8294 15.7585C9.49701 15.4657 9.14165 14.5878 9.14165 13.4623C9.14165 12.359 9.94115 11.4586 9.94115 9.97281C9.94115 9.3198 9.60805 8.80213 8.80855 8.80213H8.03131V7.4289C10.0299 6.39334 11.6957 8.23935 11.6957 9.61236C11.6957 11.5937 10.8739 13.1244 10.8739 14.2274C10.8739 14.8578 11.1405 15.1281 12.0065 15.1281H12.6062V16.4339H12.0288ZM7.23182 8.80213H6.54336C5.74386 8.80213 5.41076 9.3198 5.41076 9.97281C5.41076 11.4586 6.21025 12.3816 6.21025 13.4623C6.21025 14.5878 5.76611 15.4657 4.43348 15.7585C5.76611 16.0511 6.21025 16.569 6.21025 17.7171C6.21025 18.8201 5.41076 20.1708 5.41076 21.6568C5.41076 22.3096 5.63283 22.7147 6.32129 22.7147H6.69889V24.4933H5.83265C3.96709 24.4933 3.12331 23.2775 3.12331 21.8142C3.12331 19.8108 4.45573 18.5275 4.45573 17.4243C4.45573 16.7941 4.23366 16.4339 3.36763 16.4339H2.65692V15.1055H3.36763C4.23366 15.1055 4.45573 14.8355 4.45573 14.2051C4.45573 13.1021 3.63398 11.5712 3.63398 9.59003C3.63398 8.23935 5.25522 6.41567 7.23182 7.38401V8.80213Z" fill="#162331"/>
<path d="M5.47726 1.53027C3.30107 2.81351 1.83515 5.08719 1.8129 7.69832V19.7202C1.8129 19.8776 1.70186 19.9902 1.54655 19.9902H1.21345C1.13726 19.9889 1.06455 19.9576 1.01067 19.903C0.956789 19.8483 0.925937 19.7747 0.924622 19.6974V7.85621C0.924622 4.97463 2.81243 2.52072 5.47726 1.53027Z" fill="#FDECB2"/>
<path d="M14.6493 21.3186C14.5825 21.544 14.538 21.814 14.538 22.0391V27.1269C14.538 27.5322 14.2272 27.8473 13.8275 27.8473H1.45774C1.05788 27.8473 0.747027 27.5322 0.747027 27.1269V22.0391V22.0165C0.724775 21.7914 0.702524 21.544 0.635769 21.3186C0.458426 20.801 0.0363159 20.4858 0.0363159 20.4858H15.2267C15.2267 20.4858 14.8268 20.801 14.6493 21.3186Z" fill="url(#paint1_linear_299_63)"/>
<path d="M14.516 23.7727H9.8301C9.43046 23.7727 9.11938 23.4576 9.11938 23.0523C9.11938 22.6471 9.43046 22.332 9.8301 22.332H14.516V23.7727Z" fill="url(#paint2_linear_299_63)"/>
<path d="M0.747049 22.332H5.43298C5.83261 22.332 6.14346 22.6471 6.14346 23.0523C6.14346 23.4576 5.83261 23.7727 5.43298 23.7727H0.746826L0.747049 22.332Z" fill="url(#paint3_linear_299_63)"/>
</g>
<defs>
<linearGradient id="paint0_linear_299_63" x1="1.13074" y1="75.3684" x2="1206.87" y2="75.3684" gradientUnits="userSpaceOnUse">
<stop stop-color="#6C91B0"/>
<stop offset="0.5" stop-color="#193A62"/>
<stop offset="1" stop-color="#6C91B0"/>
</linearGradient>
<linearGradient id="paint1_linear_299_63" x1="0.0363159" y1="387.059" x2="1520.18" y2="387.059" gradientUnits="userSpaceOnUse">
<stop stop-color="#92BCDA"/>
<stop offset="0.1533" stop-color="#739EC2"/>
<stop offset="0.4872" stop-color="#245184"/>
<stop offset="0.5" stop-color="#214E82"/>
<stop offset="0.5128" stop-color="#245184"/>
<stop offset="0.8467" stop-color="#739EC2"/>
<stop offset="1" stop-color="#92BCDA"/>
</linearGradient>
<linearGradient id="paint2_linear_299_63" x1="9.45398" y1="94.7073" x2="549.587" y2="94.7073" gradientUnits="userSpaceOnUse">
<stop stop-color="#5992CA"/>
<stop offset="1" stop-color="#B2D4EB"/>
</linearGradient>
<linearGradient id="paint3_linear_299_63" x1="540.556" y1="94.7073" x2="0.385257" y2="94.7073" gradientUnits="userSpaceOnUse">
<stop stop-color="#5992CA"/>
<stop offset="1" stop-color="#B2D4EB"/>
</linearGradient>
<clipPath id="clip0_299_63">
<rect width="114" height="30" fill="white"/>
</clipPath>
</defs>
</svg>
