<svg width="114" height="33" viewBox="0 0 114 33" fill="none" xmlns="http://www.w3.org/2000/svg">
<g clip-path="url(#clip0_298_44)">
<path d="M43.0853 14.1206C43.0853 10.706 42.0898 8.95313 40.0989 8.85723C39.3079 8.82 38.5177 8.94697 37.7805 9.2298C37.1801 9.43989 36.7759 9.64786 36.563 9.85818V18.0079C37.8366 18.7896 38.9677 19.1528 39.9539 19.0958C42.0407 18.961 43.0853 17.3042 43.0853 14.1206ZM45.5416 14.2622C45.5416 15.9968 45.1256 17.4365 44.2889 18.5816C43.3565 19.8773 42.0642 20.5446 40.412 20.5812C39.1665 20.6201 37.8833 20.2384 36.563 19.4386V26.8455L34.427 26.1006V9.65935C34.7778 9.23895 35.2287 8.87786 35.7756 8.57141C37.0468 7.8469 38.5916 7.47456 40.4096 7.45627L40.4401 7.48605C42.1016 7.46542 43.3821 8.13272 44.2819 9.48561C45.1211 10.7267 45.5416 12.3173 45.5416 14.2622ZM58.5956 19.1232C58.5956 21.4496 58.3573 23.0609 57.8804 23.9568C57.4014 24.8525 56.4898 25.5681 55.1438 26.1006C54.0527 26.521 52.8724 26.7496 51.6057 26.7883L51.2531 25.472C52.5405 25.3008 53.4473 25.1292 53.9731 24.9578C55.0084 24.615 55.7187 24.0893 56.1091 23.3854C56.4222 22.8119 56.5766 21.7172 56.5766 20.0968V19.5528C55.1158 20.2018 53.5852 20.5242 51.9843 20.5242C50.9327 20.5242 50.0051 20.2018 49.2058 19.5528C48.3084 18.8466 47.8598 17.9507 47.8598 16.8653V8.17164L49.9958 7.45627V16.2069C49.9958 17.1417 50.3041 17.8616 50.9212 18.3666C51.5381 18.8719 52.3372 19.1141 53.3164 19.0958C54.2956 19.0752 55.3447 18.7049 56.4596 17.9804V7.77164H58.5956V19.1232ZM66.9336 20.467C66.6997 20.4863 66.4651 20.4963 66.2304 20.4968C65.022 20.4968 64.0802 20.2154 63.4072 19.651C62.7366 19.0867 62.4003 18.3073 62.4003 17.3134V9.08584H60.937V7.77164H62.4V4.28179L64.5338 3.53899V7.77164H66.9338V9.08584H64.5338V17.2559C64.5338 18.04 64.7487 18.5952 65.1788 18.9197C65.548 19.187 66.1345 19.3404 66.9338 19.3793L66.9336 20.467ZM79.8662 20.2956H77.7302V12.2327C77.7302 11.4122 77.5339 10.7063 77.1438 10.1163C76.6926 9.44903 76.0663 9.11538 75.2624 9.11538C74.2833 9.11538 73.0588 9.62043 71.5889 10.6308V20.2956H69.4527V1.0229L71.5889 0.364746V9.14281C72.9536 8.17164 74.4444 7.68488 76.0639 7.68488C77.1951 7.68488 78.1112 8.05722 78.8123 8.80002C79.5157 9.54282 79.8662 10.4685 79.8662 11.5745V20.2956ZM91.2189 13.7914C91.2189 12.4795 90.9643 11.3963 90.4572 10.5393C89.8542 9.49475 88.917 8.94398 87.6504 8.88701C85.3089 9.01948 84.1404 10.6603 84.1404 13.805C84.1404 15.247 84.3835 16.4515 84.874 17.4182C85.5005 18.6501 86.4398 19.2581 87.6926 19.2377C90.0434 19.2191 91.2189 17.4046 91.2189 13.7914ZM93.5582 13.805C93.5582 15.6723 93.0698 17.2264 92.0952 18.4672C91.0225 19.8569 89.5411 20.554 87.6504 20.554C85.7762 20.554 84.3156 19.8569 83.2616 18.4672C82.306 17.2264 81.8291 15.6723 81.8291 13.805C81.8291 12.05 82.3458 10.5735 83.3786 9.37119C84.47 8.09614 85.9047 7.45627 87.6784 7.45627C89.4521 7.45627 90.8964 8.09614 92.0089 9.37142C93.0418 10.5735 93.5582 12.0498 93.5582 13.805ZM105.804 20.2956H103.668V11.7757C103.668 10.8408 103.38 10.1119 102.805 9.5862C102.231 9.06286 101.464 8.80916 100.508 8.8298C99.4941 8.84809 98.5288 9.17259 97.6127 9.80097V20.2956H95.4767V9.54282C96.7059 8.66754 97.8371 8.09614 98.87 7.82885C99.8446 7.57961 100.705 7.45604 101.445 7.45604C101.953 7.45604 102.429 7.50434 102.878 7.60024C103.717 7.78992 104.399 8.14186 104.925 8.6584C105.511 9.2298 105.804 9.91516 105.804 10.7175V20.2956Z" fill="#646464"/>
<path d="M13.3309 1.10031C12.2321 1.10523 11.1827 1.19691 10.2591 1.35682C7.53861 1.82669 7.04471 2.81053 7.04471 4.62462V7.02066H13.4733V7.81927H4.63229C2.76387 7.81927 1.12802 8.91752 0.61638 11.0066C0.0261018 13.4013 -3.16203e-05 14.8956 0.61638 17.3959C1.07335 19.2572 2.16448 20.5833 4.0329 20.5833H6.24321V17.7111C6.24321 15.636 8.07902 13.8055 10.2591 13.8055H16.6798C18.4674 13.8055 19.8942 12.3663 19.8942 10.6109V4.62485C19.8942 2.92096 18.4245 1.64099 16.68 1.35682C15.5757 1.17698 14.4299 1.09538 13.3309 1.10031ZM9.85441 3.02741C10.5185 3.02741 11.0606 3.56622 11.0606 4.22907C11.0606 4.88933 10.5185 5.42322 9.85465 5.42322C9.18813 5.42322 8.6482 4.88933 8.6482 4.22907C8.6482 3.56622 9.18813 3.02741 9.85441 3.02741Z" fill="url(#paint0_linear_298_44)"/>
<path d="M20.6959 7.81934V10.6109C20.6959 12.7753 18.8196 14.5969 16.68 14.5969H10.2591C8.5003 14.5969 7.04474 16.0691 7.04474 17.7916V23.778C7.04474 25.4817 8.55976 26.4838 10.2591 26.9727C12.294 27.5577 14.2453 27.6634 16.6798 26.9727C18.2984 26.5143 19.8942 25.5921 19.8942 23.778V21.382H13.4733V20.5834H23.1084C24.9768 20.5834 25.673 19.3088 26.3228 17.396C26.9939 15.4267 26.9653 13.5329 26.3228 11.0067C25.861 9.18793 24.9792 7.81934 23.1084 7.81934H20.6959ZM17.0845 22.9792C17.751 22.9792 18.291 23.5133 18.291 24.1736C18.291 24.8364 17.751 25.3752 17.0845 25.3752C16.4204 25.3752 15.8785 24.8364 15.8785 24.1736C15.8785 23.5133 16.4204 22.9792 17.0845 22.9792Z" fill="url(#paint1_linear_298_44)"/>
<path d="M109.963 5.90983H110.338V3.61273H111.225V3.33887H109.076V3.61273H109.963V5.90983ZM111.557 5.90983H111.877V3.81179L112.571 5.90936H112.927L113.651 3.81906V5.90959H114V3.33887H113.538L112.748 5.54124L112.073 3.33887H111.556L111.557 5.90983Z" fill="#646464"/>
<path opacity="0.444" d="M22.161 31.0419C22.161 31.4752 21.2534 31.8907 19.6378 32.1971C18.0223 32.5034 15.8311 32.6756 13.5464 32.6756C11.2616 32.6756 9.07047 32.5034 7.45492 32.1971C5.83937 31.8907 4.93176 31.4752 4.93176 31.0419C4.93176 30.6086 5.83937 30.1931 7.45492 29.8867C9.07047 29.5803 11.2616 29.4082 13.5464 29.4082C15.8311 29.4082 18.0223 29.5803 19.6378 29.8867C21.2534 30.1931 22.161 30.6086 22.161 31.0419Z" fill="url(#paint2_radial_298_44)"/>
</g>
<defs>
<linearGradient id="paint0_linear_298_44" x1="0.163752" y1="1.10018" x2="14.708" y2="13.7734" gradientUnits="userSpaceOnUse">
<stop stop-color="#5A9FD4"/>
<stop offset="1" stop-color="#306998"/>
</linearGradient>
<linearGradient id="paint1_linear_298_44" x1="16.93" y1="23.9722" x2="11.7679" y2="16.5755" gradientUnits="userSpaceOnUse">
<stop stop-color="#FFD43B"/>
<stop offset="1" stop-color="#FFE873"/>
</linearGradient>
<radialGradient id="paint2_radial_298_44" cx="0" cy="0" r="1" gradientUnits="userSpaceOnUse" gradientTransform="translate(13.5464 31.0418) rotate(-90) scale(1.63359 7.34237)">
<stop stop-color="#B8B8B8" stop-opacity="0.498"/>
<stop offset="1" stop-color="#7F7F7F" stop-opacity="0"/>
</radialGradient>
<clipPath id="clip0_298_44">
<rect width="114" height="33" fill="white"/>
</clipPath>
</defs>
</svg>
