<svg width="114" height="28" viewBox="0 0 114 28" fill="none" xmlns="http://www.w3.org/2000/svg">
<path d="M4.4785 0.0078125V22.8864H12.8908V26.8269H0V0.0078125H4.4785ZM28.6866 11.3826V8.97066H32.9432V26.8368H28.7068V24.4149C28.1217 25.3082 27.3148 26.003 26.2658 26.4993C25.2168 27.0254 24.1476 27.2735 23.0885 27.2735C21.7066 27.2735 20.4458 27.0254 19.306 26.5291C18.1918 26.0539 17.1892 25.3579 16.3606 24.4844C15.5392 23.6178 14.8893 22.6079 14.4442 21.5067C13.9858 20.3561 13.7564 19.1296 13.7684 17.8938C13.7684 16.6432 14.0004 15.4422 14.4543 14.3206C14.894 13.2049 15.5443 12.1811 16.3707 11.3032C17.1917 10.425 18.1873 9.72227 19.2959 9.23865C20.4458 8.74237 21.7167 8.49423 23.0784 8.49423C24.1375 8.49423 25.1966 8.75229 26.2456 9.2585C27.2946 9.77463 28.1016 10.4694 28.6664 11.3627L28.6866 11.3826ZM28.3033 20.0874C28.569 19.389 28.7057 18.6495 28.7068 17.9037C28.7068 17.1295 28.5656 16.4149 28.3033 15.7201C28.0618 15.0515 27.6919 14.4349 27.2139 13.9037C26.737 13.3927 26.1608 12.9809 25.5194 12.6928C24.8297 12.3814 24.0792 12.2222 23.3205 12.2263C22.5135 12.2263 21.7873 12.395 21.1417 12.7027C20.5094 12.9917 19.9405 13.3997 19.4674 13.9037C18.9906 14.4323 18.6269 15.0501 18.3982 15.7201C18.148 16.4217 18.0217 17.1602 18.025 17.9037C18.025 18.668 18.146 19.3926 18.3982 20.0874C18.6402 20.7822 19.0034 21.3777 19.4674 21.874C19.9365 22.3926 20.5056 22.8143 21.1417 23.1147C21.7873 23.4125 22.5135 23.5713 23.3205 23.5713C24.1274 23.5713 24.8637 23.4224 25.5194 23.1147C26.1627 22.8209 26.7391 22.4023 27.2139 21.8839C27.6887 21.3615 28.0583 20.7553 28.3033 20.0973V20.0874ZM36.292 26.8368V8.97066H47.811V13.0799H40.5284V26.8269H36.292V26.8368ZM63.1932 11.3826V8.97066H67.4297V26.8368H63.1932V24.4149C62.6284 25.3082 61.8114 26.003 60.7724 26.4993C59.7133 27.0254 58.6542 27.2735 57.585 27.2735C56.2032 27.2735 54.9423 27.0254 53.8025 26.5291C52.6884 26.0539 51.6858 25.3579 50.8572 24.4844C50.0357 23.6178 49.3858 22.6079 48.9407 21.5067C48.4858 20.3555 48.2598 19.1289 48.275 17.8938C48.275 16.6432 48.4969 15.4422 48.9508 14.3206C49.3906 13.2049 50.0408 12.1811 50.8673 11.3032C51.6882 10.425 52.6839 9.72227 53.7924 9.23865C54.9423 8.74237 56.2132 8.49423 57.5749 8.49423C58.634 8.49423 59.6932 8.75229 60.7422 9.2585C61.7912 9.77463 62.6082 10.4694 63.163 11.3627L63.1932 11.3826ZM62.8099 20.0874C63.0688 19.3877 63.1986 18.6483 63.1932 17.9037C63.1932 17.1295 63.0621 16.4149 62.8099 15.7201C62.5714 15.0523 62.2051 14.4357 61.7307 13.9037C61.2478 13.3905 60.6646 12.9786 60.0159 12.6928C59.3603 12.395 58.624 12.2263 57.8271 12.2263C57.0202 12.2263 56.2939 12.395 55.6383 12.7027C55.0059 12.9917 54.4371 13.3997 53.9639 13.9037C53.4871 14.4323 53.1235 15.0501 52.8947 15.7201C52.6479 16.4222 52.5251 17.1608 52.5316 17.9037C52.5316 18.668 52.6526 19.3926 52.8947 20.0874C53.1469 20.7822 53.4999 21.3777 53.9639 21.874C54.433 22.3926 55.0022 22.8143 55.6383 23.1147C56.2939 23.4125 57.0202 23.5713 57.8271 23.5713C58.634 23.5713 59.3603 23.4224 60.026 23.1147C60.6766 22.8232 61.26 22.4044 61.7408 21.8839C62.2119 21.3607 62.5781 20.7545 62.82 20.0973L62.8099 20.0874ZM84.456 8.97066H88.7631L81.8032 26.8368H76.4573L69.4974 8.97066H73.7843L79.1302 22.6482L84.456 8.98058V8.97066ZM98.0126 8.51408C103.792 8.51408 107.736 13.5563 106.99 19.4521H92.8986C92.8986 20.9807 94.4923 23.9584 98.2446 23.9584C101.472 23.9584 103.641 21.1792 103.641 21.1792L106.506 23.3628C103.933 26.0427 101.835 27.2834 98.5371 27.2834C92.6666 27.2834 88.6924 23.611 88.6924 17.8839C88.6924 12.6928 92.8078 8.49423 98.0025 8.49423L98.0126 8.51408ZM92.9188 16.3553H103.106C103.066 16.0079 102.501 11.8292 97.9823 11.8292C93.4433 11.8292 92.9591 16.0179 92.9188 16.3553ZM109.764 26.807V0.0078125H114V26.8269H109.764V26.807Z" fill="#FF2D20"/>
</svg>
