<svg width="114" height="23" viewBox="0 0 114 23" fill="none" xmlns="http://www.w3.org/2000/svg">
<g clip-path="url(#clip0_299_102)">
<path d="M113.773 5.37162V17.0494H109.957V14.9247C109.635 15.7249 109.145 16.3344 108.486 16.7504C107.828 17.1649 107.014 17.3744 106.049 17.3744C105.186 17.3744 104.433 17.1563 103.79 16.7186C103.147 16.281 102.651 15.6801 102.301 14.9175C101.955 14.1549 101.779 13.294 101.779 12.3292C101.768 11.3354 101.953 10.4428 102.333 9.65274C102.712 8.86267 103.248 8.24737 103.937 7.80395C104.627 7.36197 105.415 7.13953 106.298 7.13953C108.116 7.13953 109.335 7.96138 109.957 9.60508V5.37162H113.773ZM109.387 13.7504C109.778 13.3561 109.97 12.8434 109.97 12.2179C109.97 11.6142 109.782 11.1202 109.403 10.7418C109.025 10.3648 108.506 10.1742 107.855 10.1742C107.212 10.1742 106.698 10.3663 106.313 10.7519C105.929 11.1361 105.738 11.6344 105.738 12.2512C105.738 12.8679 105.929 13.3706 106.313 13.7591C106.698 14.1491 107.206 14.3426 107.84 14.3426C108.482 14.3412 108.998 14.1433 109.387 13.7504ZM101.096 7.73895V11.243C100.7 10.9715 100.188 10.8371 99.5542 10.8371C98.7238 10.8371 98.0844 11.0986 97.6388 11.6229C97.1918 12.1472 96.9697 12.9618 96.9697 14.0653V17.0494H93.1544V7.56129H96.8919V10.5771C97.0984 9.47509 97.4351 8.6619 97.8977 8.13615C98.3574 7.61184 98.953 7.35041 99.6787 7.35041C100.229 7.35041 100.7 7.48041 101.096 7.73895ZM82.6197 16.6926C81.7214 16.2391 81.0367 15.618 80.5642 14.8279C80.0931 14.0379 79.8555 13.1568 79.8555 12.1833C79.8555 11.2098 80.0903 10.3417 80.5642 9.57908C81.0381 8.81645 81.7186 8.21848 82.614 7.78517C83.5052 7.35186 84.5704 7.13665 85.8054 7.13665C87.0404 7.13665 88.1056 7.35186 88.9982 7.78517C89.8909 8.21848 90.5713 8.81212 91.0381 9.57041C91.5064 10.3273 91.7398 11.1968 91.7398 12.1818C91.7398 13.1539 91.5064 14.035 91.0381 14.825C90.5713 15.6151 89.888 16.2362 88.9898 16.6912C88.09 17.1447 87.0291 17.3715 85.804 17.3715C84.5775 17.3715 83.5165 17.1476 82.6197 16.6926ZM87.3516 13.8154C87.7307 13.4211 87.9217 12.8997 87.9217 12.2512C87.9217 11.6026 87.7321 11.0856 87.3516 10.7028C86.9739 10.3186 86.4576 10.1265 85.804 10.1265C85.1377 10.1265 84.6171 10.3186 84.238 10.7028C83.8589 11.087 83.6707 11.6026 83.6707 12.2512C83.6707 12.8997 83.8589 13.4211 84.238 13.8154C84.6157 14.2083 85.1377 14.4076 85.804 14.4076C86.4576 14.4062 86.9739 14.2083 87.3516 13.8154ZM71.5544 16.6926C70.6618 16.2391 69.9884 15.6223 69.5386 14.8438C69.0887 14.0653 68.8624 13.1886 68.8624 12.2165C68.8624 11.243 69.0958 10.372 69.5626 9.60508C70.0309 8.83812 70.7155 8.23437 71.6195 7.79672C72.522 7.35908 73.6014 7.14098 74.8576 7.14098C76.4151 7.14098 77.7081 7.48185 78.7351 8.16359V11.1318C78.3729 10.8718 77.95 10.6609 77.4676 10.4991C76.9852 10.3374 76.4688 10.255 75.9171 10.255C74.951 10.255 74.197 10.4385 73.6523 10.8068C73.1077 11.1751 72.8333 11.6546 72.8333 12.2512C72.8333 12.8347 73.0978 13.3113 73.6283 13.6869C74.1573 14.061 74.9241 14.2487 75.9327 14.2487C76.4505 14.2487 76.9626 14.1693 77.4676 14.0147C77.9698 13.8559 78.4041 13.6638 78.7662 13.437V16.3084C77.626 17.0219 76.3019 17.3787 74.7953 17.3787C73.5278 17.3744 72.4471 17.1476 71.5544 16.6926ZM60.5288 17.0335C59.6871 16.8067 58.9288 16.4774 58.2541 16.0441V13.3518C58.7647 13.762 59.4466 14.1 60.3039 14.3657C61.1597 14.6301 61.9873 14.7629 62.788 14.7629C63.1628 14.7629 63.4443 14.7109 63.6353 14.6098C63.8277 14.5073 63.9239 14.3845 63.9239 14.243C63.9239 14.0812 63.8716 13.9469 63.7669 13.8385C63.6622 13.7288 63.4599 13.6392 63.16 13.5627L61.2913 13.125C60.2218 12.865 59.4622 12.5054 59.0109 12.0446C58.5596 11.5853 58.3347 10.983 58.3347 10.2377C58.3347 9.60941 58.5299 9.06488 58.926 8.59835C59.3207 8.13326 59.8809 7.77361 60.608 7.52085C61.3365 7.26664 62.1853 7.13953 63.1628 7.13953C64.0342 7.13953 64.8335 7.23631 65.5606 7.4313C66.2878 7.62629 66.889 7.87328 67.3671 8.17659V10.7245C66.8777 10.4197 66.316 10.1814 65.6766 10.0008C65.0372 9.82173 64.3822 9.73507 63.7046 9.73507C62.7285 9.73507 62.2419 9.9084 62.2419 10.2536C62.2419 10.4154 62.3169 10.5367 62.4682 10.6176C62.6196 10.6985 62.8969 10.7822 63.3001 10.8703L64.8576 11.1621C65.8747 11.3441 66.6329 11.6662 67.1309 12.1255C67.6302 12.5848 67.8792 13.2637 67.8792 14.1621C67.8792 15.1471 67.4676 15.9285 66.6414 16.5077C65.8167 17.0869 64.6454 17.3758 63.1289 17.3758C62.2362 17.3744 61.3691 17.2603 60.5288 17.0335ZM52.7469 9.79718C53.9126 10.32 55.3583 10.3432 56.5508 9.79718V17.0999H52.7469V9.79718ZM54.651 8.57091C55.7007 8.57091 56.5523 7.77361 56.5523 6.79144C56.5523 5.80927 55.7007 5.01197 54.651 5.01197C53.5999 5.01197 52.7483 5.80927 52.7483 6.79144C52.7483 7.77361 53.5999 8.57091 54.651 8.57091ZM38.6176 5.69516H44.6906C46.1547 5.69516 47.3911 5.93348 48.4054 6.40868C49.4183 6.88388 50.1765 7.54685 50.6801 8.39469C51.1823 9.24254 51.4355 10.2146 51.4355 11.308C51.4355 12.3783 51.1724 13.3489 50.6476 14.2184C50.1228 15.0894 49.3249 15.7769 48.2498 16.2853C47.1761 16.7923 45.8449 17.0479 44.2549 17.0479H38.6176V5.69516ZM44.1926 14.1621C45.1772 14.1621 45.9369 13.905 46.4659 13.3937C46.995 12.878 47.2595 12.179 47.2595 11.2921C47.2595 10.4688 47.0233 9.81307 46.5522 9.32198C46.0812 8.83089 45.3668 8.58246 44.4119 8.58246H42.512V14.1621H44.1926ZM28.7731 18.5847C26.323 20.4538 23.9478 21.5861 21.6109 22.3271C21.0323 21.5197 20.5216 20.6574 20.0788 19.7532C20.9183 19.428 21.7274 19.0263 22.4964 18.553C22.297 18.3999 22.0989 18.2395 21.9051 18.0763C17.3061 20.2949 12.2503 20.2949 7.59612 18.0763C7.40288 18.2408 7.20523 18.3997 7.00339 18.553C7.76729 19.0209 8.57504 19.4239 9.41816 19.7504C8.97538 20.6574 8.46046 21.5168 7.8847 22.3257C5.55056 21.5833 3.17681 20.4509 0.728085 18.5847C0.227306 13.1149 1.22886 7.56562 4.92105 1.87335C6.753 0.998062 8.71226 0.361093 10.7621 0C11.0153 0.462199 11.3152 1.08617 11.5175 1.58159C13.6536 1.24794 15.8095 1.24794 17.9852 1.58159C18.1875 1.08617 18.4817 0.462199 18.7321 0C20.7791 0.361093 22.7369 0.995173 24.5674 1.86902C27.7688 6.74522 29.3602 12.2439 28.7731 18.5847ZM12.594 12.2714C12.6195 10.6494 11.4736 9.31909 10.0519 9.31909C8.63022 9.31909 7.50841 10.6508 7.50841 12.2714C7.50841 13.8905 8.65426 15.2208 10.0519 15.2208C11.4736 15.2208 12.5968 13.8905 12.594 12.2714ZM21.9914 12.2714C22.0169 10.6494 20.871 9.31909 19.4493 9.31909C18.0276 9.31909 16.9058 10.6508 16.9058 12.2714C16.9058 13.8905 18.0517 15.2208 19.4493 15.2208C20.871 15.2208 21.9914 13.8905 21.9914 12.2714Z" fill="#5865F2"/>
</g>
<defs>
<clipPath id="clip0_299_102">
<rect width="114" height="23" fill="white"/>
</clipPath>
</defs>
</svg>
