<svg width="114" height="22" viewBox="0 0 114 22" fill="none" xmlns="http://www.w3.org/2000/svg">
<g clip-path="url(#clip0_299_97)">
<path d="M15.1486 10.7191C15.0568 9.96996 14.6895 9.2208 14.1387 8.75258L4.68229 1.07368C3.48876 0.137233 1.83619 0.324523 0.918094 1.54191C-2.14577e-06 2.75929 0.183617 4.44491 1.37714 5.38136L8.26286 11.0001L1.37714 16.6188C0.183617 17.5552 -2.14577e-06 19.2408 0.918094 20.4582C1.83619 21.6756 3.48876 21.8629 4.68229 20.9264L14.1387 13.0603C14.7813 12.4984 15.1486 11.7492 15.1486 10.9064V10.7191Z" fill="#0D55FF"/>
<path d="M21.8232 15.9351H13.6521C13.5603 15.9351 13.3767 15.9351 13.2849 16.0287L7.13362 20.9919C7.04181 21.0855 7.04181 21.1792 7.13362 21.2728C7.13362 21.3665 7.22542 21.3665 7.31723 21.3665H21.915C23.3839 21.3665 24.6693 20.0554 24.5774 18.4635C24.4856 16.9652 23.2003 15.9351 21.8232 15.9351Z" fill="#00C9DB"/>
<path d="M24.5774 18.6508C24.5774 20.1491 23.3839 21.3665 21.915 21.3665C20.446 21.3665 19.2525 20.1491 19.2525 18.6508C19.2525 17.1524 20.446 15.9351 21.915 15.9351C23.3839 15.9351 24.5774 17.1524 24.5774 18.6508Z" fill="#7000F2"/>
<path d="M109.593 18.557H107.573L103.166 7.41328H105.37L108.583 16.0286L111.797 7.41328H114L109.593 18.557ZM94.1691 11.721H100.412C100.32 10.2226 99.1268 9.00524 97.2906 9.00524C95.7299 9.00524 94.5364 10.0353 94.1691 11.721ZM97.4743 18.9316C94.2609 18.9316 91.9657 16.4032 91.9657 13.032C91.9657 9.66076 94.2609 7.13234 97.3825 7.13234C100.596 7.13234 102.707 9.37983 102.707 13.2193V13.4066H94.1691C94.2609 15.5604 95.8217 17.0587 97.6579 17.0587C98.9432 17.0587 100.045 16.4032 100.688 15.0922L102.524 16.0286C101.514 17.8079 99.6777 18.9316 97.4743 18.9316ZM84.6209 18.9316C81.7748 18.9316 79.3878 16.3096 79.3878 13.032C79.3878 9.7544 81.7748 7.13234 84.6209 7.13234C86.1817 7.13234 87.6506 7.8815 88.3851 9.00524H88.4769L88.3851 7.50692V2.35645H90.4049V18.557H88.4769V17.0587H88.3851C87.5588 18.1825 86.1817 18.9316 84.6209 18.9316ZM84.8963 17.0587C86.9162 17.0587 88.3851 15.4668 88.3851 13.032C88.3851 10.6909 86.9162 9.00524 84.8963 9.00524C82.9683 9.00524 81.4076 10.6909 81.4076 13.032C81.4076 15.3731 82.9683 17.0587 84.8963 17.0587ZM78.6533 17.1524C78.6533 17.9952 78.0106 18.6507 77.0925 18.6507C76.2662 18.6507 75.5318 17.9015 75.5318 17.1524C75.5318 16.3096 76.2662 15.654 77.0925 15.654C78.0106 15.654 78.6533 16.3096 78.6533 17.1524ZM69.0133 17.0587C70.9413 17.0587 72.502 15.3731 72.502 13.032C72.502 10.6909 70.9413 9.00524 69.0133 9.00524C66.9935 9.00524 65.5245 10.6909 65.5245 13.032C65.5245 15.3731 66.9935 17.0587 69.0133 17.0587ZM69.3805 18.9316C67.8198 18.9316 66.3508 18.1825 65.6163 17.0587H65.5245V18.557H63.5965V2.35645H65.6163V7.50692L65.5245 9.00524H65.6163C66.3508 7.8815 67.7279 7.13234 69.3805 7.13234C72.2266 7.13234 74.6137 9.7544 74.6137 13.032C74.5219 16.3096 72.2266 18.9316 69.3805 18.9316ZM53.4056 11.721H59.6487C59.5569 10.2226 58.3634 9.00524 56.5272 9.00524C54.9664 9.00524 53.7729 10.0353 53.4056 11.721ZM56.7108 18.9316C53.4975 18.9316 51.2022 16.4032 51.2022 13.032C51.2022 9.66076 53.4975 7.13234 56.619 7.13234C59.8323 7.13234 61.9439 9.37983 61.9439 13.2193V13.4066H53.4056C53.4975 15.5604 55.0582 17.0587 56.8944 17.0587C58.1797 17.0587 59.1897 16.4032 59.9241 15.0922L61.7603 16.0286C60.7504 17.8079 58.9142 18.9316 56.7108 18.9316ZM50.9268 7.50692L47.438 18.6507H45.3264L42.5721 10.129L39.9096 18.6507H37.798L34.2174 7.50692H36.3291L38.7161 15.935L41.3786 7.50692H43.4902L46.1527 15.935L48.5397 7.50692H50.9268Z" fill="#5F6368"/>
</g>
<defs>
<clipPath id="clip0_299_97">
<rect width="114" height="22" fill="white"/>
</clipPath>
</defs>
</svg>
