<svg width="114" height="24" viewBox="0 0 114 24" fill="none" xmlns="http://www.w3.org/2000/svg">
<g clip-path="url(#clip0_298_40)">
<path d="M75.7837 0.104004H95.6405V3.90122H87.7635V23.8777H83.8247V3.90122H75.7837V0.104004ZM43.1267 0.104004V3.90122H27.2101V10.0097H40.0102V13.8069H27.2101V20.0805H43.1267V23.878H23.2716V3.90122H23.2699V0.104004H43.1267ZM53.0418 0.113896H47.8875L66.3492 23.8876H71.5185L62.2865 12.0089L71.5038 0.131883L66.3492 0.140276L59.7059 8.68858L53.0418 0.113896ZM58.331 17.0957L55.7498 13.7706L47.8728 23.9059H53.0418L58.331 17.0957Z" fill="black"/>
<path fill-rule="evenodd" clip-rule="evenodd" d="M23.4096 23.8779L4.92312 0.0942383H0V23.868H3.9385V5.17598L18.4619 23.8779H23.4096Z" fill="black"/>
<path d="M96.5259 23.7328C96.3888 23.7351 96.2528 23.7088 96.1258 23.6554C95.9987 23.602 95.8834 23.5227 95.7866 23.4222C95.5812 23.2151 95.4796 22.9645 95.4822 22.6674C95.4796 22.3787 95.5812 22.1308 95.7866 21.9236C95.8834 21.8231 95.9987 21.7438 96.1258 21.6904C96.2528 21.6371 96.3888 21.6108 96.5259 21.6131C96.8034 21.6131 97.0461 21.7165 97.2515 21.9236C97.4599 22.1305 97.5637 22.3787 97.5666 22.6674C97.5661 22.8568 97.5153 23.0425 97.4197 23.204C97.3259 23.3635 97.1946 23.4958 97.038 23.5883C96.8833 23.6841 96.7061 23.7341 96.5259 23.7328ZM103.248 13.7174H104.993V20.6841C104.991 21.3241 104.857 21.8718 104.596 22.3322C104.332 22.7927 103.966 23.144 103.496 23.3919C103.029 23.6371 102.482 23.7627 101.86 23.7627C101.292 23.7627 100.782 23.6563 100.329 23.4492C99.875 23.2423 99.5148 22.9318 99.2506 22.5229C98.9835 22.1143 98.8527 21.6047 98.8527 20.9947H100.601C100.604 21.2614 100.662 21.4932 100.774 21.6865C100.885 21.8778 101.046 22.032 101.239 22.1305C101.439 22.2342 101.668 22.2861 101.927 22.2861C102.207 22.2861 102.448 22.2261 102.642 22.1032C102.837 21.9833 102.987 21.8034 103.091 21.5639C103.192 21.3271 103.246 21.0327 103.248 20.6841V13.7174ZM112.175 16.442C112.132 16.0196 111.945 15.6899 111.62 15.4558C111.291 15.2189 110.867 15.1014 110.346 15.1014C109.981 15.1014 109.666 15.1587 109.405 15.2705C109.143 15.385 108.94 15.5373 108.801 15.731C108.663 15.9243 108.593 16.1449 108.588 16.3928C108.588 16.6 108.636 16.7796 108.729 16.9294C108.823 17.0823 108.948 17.2103 109.111 17.3138C109.278 17.4231 109.458 17.5118 109.645 17.5781C109.842 17.6489 110.04 17.7088 110.237 17.758L111.147 17.9894C111.51 18.0749 111.864 18.1934 112.207 18.3438C112.536 18.4849 112.844 18.6738 113.122 18.9049C113.389 19.1274 113.607 19.4059 113.762 19.7221C113.92 20.0411 114 20.4143 114 20.8448C114 21.4251 113.856 21.9344 113.565 22.376C113.274 22.8146 112.855 23.1578 112.305 23.4057C111.758 23.6509 111.096 23.7762 110.317 23.7762C109.565 23.7762 108.908 23.6563 108.356 23.4165C107.801 23.1797 107.368 22.8308 107.056 22.3733C106.744 21.9156 106.576 21.3571 106.552 20.7006H108.281C108.305 21.0435 108.412 21.3298 108.593 21.5612C108.777 21.7899 109.018 21.959 109.311 22.0735C109.608 22.185 109.938 22.2423 110.304 22.2423C110.686 22.2423 111.022 22.1823 111.313 22.0654C111.601 21.9482 111.828 21.7846 111.991 21.572C112.156 21.3622 112.239 21.1146 112.241 20.831C112.239 20.5723 112.164 20.357 112.02 20.188C111.873 20.0192 111.67 19.8774 111.411 19.7632C111.115 19.6365 110.81 19.5336 110.499 19.4553L109.394 19.1663C108.596 18.9565 107.963 18.6378 107.502 18.2101C107.038 17.7823 106.808 17.2157 106.808 16.5044C106.808 15.9216 106.963 15.4093 107.275 14.9707C107.584 14.5322 108.009 14.1913 108.545 13.9491C109.084 13.7039 109.693 13.584 110.371 13.584C111.059 13.584 111.662 13.7039 112.183 13.9491C112.703 14.1916 113.111 14.5295 113.407 14.9599C113.704 15.3904 113.859 15.8832 113.867 16.442H112.175Z" fill="black"/>
</g>
<defs>
<clipPath id="clip0_298_40">
<rect width="114" height="24" fill="white"/>
</clipPath>
</defs>
</svg>
