<svg width="114" height="40" viewBox="0 0 114 40" fill="none" xmlns="http://www.w3.org/2000/svg">
<g clip-path="url(#clip0_299_57)">
<path d="M13.4623 0H19.6935V28.982C16.4971 29.5918 14.1501 29.836 11.6009 29.836C3.99348 29.8355 0.0280762 26.3801 0.0280762 19.7525C0.0280762 13.3692 4.2365 9.22238 10.7509 9.22238C11.7624 9.22238 12.5312 9.30342 13.4623 9.54735V0ZM13.4623 14.5886C12.734 14.3449 12.1271 14.2636 11.3581 14.2636C8.2019 14.2636 6.38091 16.2153 6.38091 19.6303C6.38091 22.9645 8.12098 24.794 11.3176 24.794C12.0055 24.794 12.5722 24.7536 13.4623 24.6316V14.5886Z" fill="#092E20"/>
<path d="M29.6066 9.66921V24.1838C29.6066 29.1849 29.2422 31.5838 28.15 33.6572C27.1382 35.6498 25.8028 36.9099 23.0515 38.2927L17.2651 35.5279C20.0167 34.2266 21.3519 33.0886 22.2015 31.3396C23.0919 29.5511 23.3754 27.4771 23.3754 22.0291V9.66921H29.6066ZM23.3754 0.0332031H29.6066V6.45721H23.3754V0.0332031ZM33.3705 11.0921C36.1223 9.79144 38.7523 9.22227 41.6252 9.22227C44.8219 9.22227 46.9258 10.0758 47.8567 11.7429C48.3824 12.6779 48.5443 13.8976 48.5443 16.5V29.2255C45.752 29.6321 42.2319 29.9169 39.6424 29.9169C34.4227 29.9169 32.0755 28.0867 32.0755 24.0212C32.0755 19.6297 35.1912 17.5969 42.8388 16.9462V15.5639C42.8388 14.4256 42.2723 14.0193 40.6941 14.0193C38.3879 14.0193 35.7981 14.6698 33.37 15.9303L33.3705 11.0921ZM43.1225 21.0534C38.995 21.4599 37.6596 22.1104 37.6596 23.7369C37.6596 24.9563 38.4286 25.5254 40.1279 25.5254C41.0588 25.5254 41.9082 25.4444 43.1223 25.2411L43.1225 21.0534ZM51.5793 10.6449C55.2612 9.66921 58.2961 9.22227 61.3713 9.22227C64.568 9.22227 66.8745 9.9538 68.2507 11.377C69.5454 12.7183 69.9498 14.1819 69.9498 17.3131V29.5914H63.7183V17.5571C63.7183 15.1584 62.9091 14.2635 60.6837 14.2635C59.8341 14.2635 59.0653 14.3448 57.8105 14.7107V29.5914H51.5793V10.6449ZM72.3722 33.0067C74.5576 34.1453 76.7424 34.6733 79.0487 34.6733C83.1349 34.6733 84.875 33.0067 84.875 29.022V28.9C83.6615 29.5096 82.4471 29.7538 80.829 29.7538C75.3663 29.7538 71.8859 26.1353 71.8859 20.4029C71.8859 13.2872 77.0251 9.2624 86.129 9.2624C88.7997 9.2624 91.2683 9.54672 94.2624 10.1565L92.1287 14.6729C90.4698 14.3477 91.9958 14.6294 90.7421 14.5074V15.1582L90.8227 17.8005L90.8629 21.216C90.9034 22.0695 90.9034 22.9235 90.9441 23.7773V25.4853C90.9441 30.852 90.499 33.3726 89.1641 35.4463C87.2217 38.4959 83.863 39.9999 79.0884 39.9999C76.6605 39.9999 74.557 39.634 72.3716 38.7802L72.3722 33.0067ZM84.7542 14.3041H84.107C82.8935 14.2635 81.4774 14.5885 80.5058 15.1983C79.009 16.0523 78.2395 17.5974 78.2395 19.7928C78.2395 22.9238 79.7778 24.7126 82.5291 24.7126C83.3788 24.7126 84.0668 24.5497 84.8755 24.306V22.1513C84.8755 21.4193 84.8356 20.6057 84.8356 19.7524L84.7954 16.8659L84.7547 14.7923L84.7542 14.3041ZM103.937 9.1407C110.168 9.1407 113.972 13.0848 113.972 19.4678C113.972 26.0141 110.007 30.1205 103.694 30.1205C97.4622 30.1205 93.6179 26.1764 93.6179 19.834C93.6184 13.2468 97.5841 9.1407 103.937 9.1407ZM103.815 25.0785C106.202 25.0785 107.619 23.0861 107.619 19.6302C107.619 16.2152 106.243 14.1822 103.856 14.1822C101.387 14.1822 99.9705 16.1748 99.9705 19.6302C99.971 23.0864 101.387 25.0785 103.815 25.0785Z" fill="#092E20"/>
</g>
<defs>
<clipPath id="clip0_299_57">
<rect width="114" height="40" fill="white"/>
</clipPath>
</defs>
</svg>
