<svg width="114" height="67" viewBox="0 0 114 67" fill="none" xmlns="http://www.w3.org/2000/svg">
<g clip-path="url(#clip0_299_79)">
<path d="M32.4965 24.3332C32.4965 25.7119 32.6451 26.8298 32.9052 27.6496C33.2025 28.4694 33.574 29.3637 34.0942 30.3326C34.2799 30.6307 34.3542 30.9288 34.3542 31.1897C34.3542 31.5623 34.1313 31.9349 33.6483 32.3076L31.3076 33.8726C30.9732 34.0962 30.6388 34.208 30.3415 34.208C29.97 34.208 29.5985 34.0217 29.2269 33.6863C28.7067 33.1274 28.2609 32.5312 27.8893 31.9349C27.5178 31.3015 27.1463 30.5934 26.7376 29.7364C23.8395 33.1646 20.1983 34.8788 15.8141 34.8788C12.6931 34.8788 10.2037 33.9844 8.38317 32.1958C6.56259 30.4071 5.63373 28.0223 5.63373 25.0412C5.63373 21.8738 6.74837 19.3026 9.0148 17.3649C11.2812 15.4271 14.2908 14.4583 18.1177 14.4583C19.3809 14.4583 20.6813 14.5701 22.0561 14.7564C23.4308 14.9427 24.8427 15.2408 26.3288 15.5762V12.856C26.3288 10.0239 25.7344 8.04894 24.5826 6.89377C23.3936 5.7386 21.3873 5.17964 18.5264 5.17964C17.226 5.17964 15.8884 5.3287 14.5137 5.66407C13.139 5.99944 11.8014 6.40934 10.501 6.93104C9.90651 7.19188 9.46065 7.34094 9.20057 7.41546C8.94049 7.48999 8.75472 7.52725 8.6061 7.52725C8.08593 7.52725 7.82585 7.15462 7.82585 6.37208V4.54616C7.82585 3.94994 7.90016 3.50278 8.08593 3.24194C8.27171 2.98109 8.6061 2.72025 9.12626 2.4594C10.4267 1.78865 11.9872 1.2297 13.8077 0.782536C15.6283 0.298109 17.5604 0.0745272 19.6039 0.0745272C24.0253 0.0745272 27.2577 1.08064 29.3384 3.09288C31.3819 5.10512 32.4222 8.16074 32.4222 12.2597V24.3332H32.4965ZM17.4117 29.9972C18.6378 29.9972 19.9011 29.7736 21.2387 29.3265C22.5762 28.8793 23.7652 28.0595 24.7684 26.9416C25.3628 26.2336 25.8087 25.4511 26.0316 24.5567C26.2545 23.6624 26.4032 22.5818 26.4032 21.3148V19.7497C25.3257 19.4889 24.1739 19.2653 22.9849 19.1162C21.796 18.9672 20.6442 18.8927 19.4924 18.8927C17.003 18.8927 15.1825 19.3771 13.9564 20.3832C12.7303 21.3893 12.1358 22.8053 12.1358 24.6685C12.1358 26.4199 12.5816 27.7241 13.5105 28.6185C14.4022 29.5501 15.7026 29.9972 17.4117 29.9972ZM47.2469 34.0217C46.5781 34.0217 46.1323 33.9099 45.835 33.6491C45.5378 33.4255 45.2777 32.9038 45.0548 32.1958L36.3234 3.39099C36.1005 2.64572 35.989 2.16129 35.989 1.90045C35.989 1.30423 36.2863 0.968854 36.8808 0.968854H40.5219C41.2278 0.968854 41.7109 1.08065 41.9709 1.34149C42.2682 1.56507 42.4911 2.08676 42.714 2.79477L48.956 27.4633L54.7521 2.79477C54.9379 2.0495 55.1608 1.56507 55.4581 1.34149C55.7553 1.11791 56.2755 0.968854 56.9442 0.968854H59.9166C60.6226 0.968854 61.1056 1.08065 61.4028 1.34149C61.7 1.56507 61.9601 2.08676 62.1087 2.79477L67.9792 27.7614L74.4069 2.79477C74.6298 2.0495 74.8899 1.56507 75.15 1.34149C75.4472 1.11791 75.9303 0.968854 76.599 0.968854H80.0544C80.6489 0.968854 80.9833 1.26696 80.9833 1.90045C80.9833 2.08676 80.9461 2.27308 80.909 2.49666C80.8718 2.72025 80.7975 3.01835 80.6489 3.42825L71.6946 32.233C71.4717 32.9783 71.2116 33.4627 70.9144 33.6863C70.6171 33.9099 70.1341 34.059 69.5025 34.059H66.3072C65.6013 34.059 65.1183 33.9472 64.821 33.6863C64.5238 33.4255 64.2637 32.9411 64.1151 32.1958L58.3561 8.16074L52.6343 32.1585C52.4485 32.9038 52.2256 33.3882 51.9284 33.6491C51.6311 33.9099 51.111 34.0217 50.4422 34.0217H47.2469ZM94.9906 35.0278C93.0585 35.0278 91.1265 34.8042 89.2688 34.3571C87.411 33.9099 85.962 33.4255 84.996 32.8665C84.4015 32.5312 83.9928 32.1585 83.8442 31.8231C83.6956 31.4878 83.6213 31.1151 83.6213 30.7798V28.8793C83.6213 28.0968 83.9185 27.7241 84.4758 27.7241C84.6987 27.7241 84.9217 27.7614 85.1446 27.8359C85.3675 27.9105 85.7019 28.0595 86.0735 28.2086C87.3367 28.7675 88.7114 29.2147 90.1605 29.5128C91.6467 29.8109 93.0957 29.96 94.5819 29.96C96.9226 29.96 98.7432 29.5501 100.006 28.7303C101.27 27.9105 101.938 26.718 101.938 25.1902C101.938 24.1468 101.604 23.2898 100.935 22.5818C100.267 21.8738 99.0033 21.2403 97.1827 20.6441L91.7953 18.9672C89.083 18.1101 87.0766 16.8432 85.8505 15.1663C84.6244 13.5267 83.9928 11.7008 83.9928 9.76307C83.9928 8.198 84.3272 6.81924 84.996 5.62681C85.6648 4.43437 86.5565 3.39099 87.6711 2.57119C88.7858 1.71413 90.049 1.08065 91.5352 0.633482C93.0214 0.186318 94.5819 0 96.2167 0C97.0341 0 97.8886 0.0372636 98.706 0.149055C99.5606 0.260845 100.341 0.4099 101.121 0.558954C101.864 0.745273 102.57 0.931591 103.239 1.15517C103.908 1.37875 104.428 1.60234 104.799 1.82592C105.32 2.12403 105.691 2.42214 105.914 2.75751C106.137 3.05562 106.248 3.46552 106.248 3.98721V5.7386C106.248 6.52114 105.951 6.93104 105.394 6.93104C105.097 6.93104 104.614 6.78198 103.982 6.48387C101.864 5.51502 99.4863 5.03059 96.8483 5.03059C94.7305 5.03059 93.0585 5.36596 91.9067 6.07397C90.755 6.78198 90.1605 7.86263 90.1605 9.39044C90.1605 10.4338 90.532 11.3281 91.2751 12.0362C92.0182 12.7442 93.3929 13.4522 95.3621 14.0857L100.638 15.7625C103.313 16.6196 105.245 17.812 106.397 19.3398C107.549 20.8676 108.106 22.619 108.106 24.5567C108.106 26.1591 107.772 27.6124 107.14 28.8793C106.471 30.1463 105.58 31.2642 104.428 32.1585C103.276 33.0901 101.901 33.7609 100.304 34.2453C98.6317 34.767 96.8855 35.0278 94.9906 35.0278Z" fill="#252F3E"/>
<path fill-rule="evenodd" clip-rule="evenodd" d="M102.013 53.1377C89.7889 62.1927 72.029 66.9997 56.7585 66.9997C35.3574 66.9997 16.0742 59.0626 1.50955 45.8713C0.357761 44.8279 1.39809 43.4119 2.77281 44.2317C18.5264 53.3985 37.9582 58.9508 58.0589 58.9508C71.6203 58.9508 86.5193 56.1188 100.229 50.3056C102.273 49.374 104.019 51.6471 102.013 53.1377Z" fill="#FF9900"/>
<path fill-rule="evenodd" clip-rule="evenodd" d="M107.103 47.3247C105.542 45.3125 96.774 46.3558 92.7984 46.8403C91.6095 46.9893 91.4237 45.9459 92.5012 45.1634C99.4863 40.2446 110.967 41.6606 112.305 43.3002C113.642 44.9771 111.933 56.4916 105.394 62.0066C104.391 62.8636 103.425 62.4165 103.871 61.2986C105.357 57.6095 108.663 49.2997 107.103 47.3247Z" fill="#FF9900"/>
</g>
<defs>
<clipPath id="clip0_299_79">
<rect width="114" height="67" fill="white"/>
</clipPath>
</defs>
</svg>
