<svg width="18" height="18" viewBox="0 0 18 18" fill="none" xmlns="http://www.w3.org/2000/svg">
<path d="M17.3605 10.8266C16.9883 10.2476 16.6162 9.68932 16.244 9.11055C16.1615 8.98654 16.1615 8.9038 16.244 8.77979C16.6162 8.22165 16.9676 7.66333 17.3398 7.10519C17.774 6.44368 17.5466 5.80261 16.8021 5.53396C16.1821 5.30658 15.5619 5.05856 14.9416 4.83117C14.8176 4.78971 14.7555 4.70698 14.7555 4.56233C14.7349 3.88018 14.6936 3.19785 14.6521 2.53633C14.6109 1.81272 14.0527 1.39923 13.3498 1.58534C12.6882 1.75063 12.0267 1.93673 11.3857 2.12284C11.241 2.16412 11.1585 2.12284 11.0549 2.01947C10.6414 1.48178 10.2073 0.965105 9.794 0.448241C9.33904 -0.130533 8.63607 -0.130533 8.16067 0.448241C7.74718 0.965105 7.31305 1.48197 6.9202 1.99883C6.81682 2.14348 6.71345 2.16412 6.54817 2.12284C5.90729 1.93673 5.26642 1.77145 4.81146 1.64725C3.92257 1.44051 3.38507 1.79209 3.34361 2.53633C3.30233 3.21848 3.26106 3.90082 3.24023 4.60379C3.24023 4.74844 3.17832 4.81035 3.05431 4.87245L1.13169 5.61669C0.469993 5.88554 0.263247 6.52641 0.656102 7.12582C1.02832 7.70479 1.40035 8.26293 1.77257 8.8417C1.85511 8.9659 1.85511 9.04845 1.77257 9.19328C1.38157 9.77117 1.00246 10.357 0.635465 10.9504C0.284073 11.5088 0.511455 12.1703 1.1315 12.4183C1.77257 12.6663 2.43408 12.9143 3.07495 13.1625C3.2196 13.204 3.26106 13.2865 3.26106 13.4314C3.2817 14.0929 3.36443 14.734 3.36443 15.3953C3.36443 16.057 3.94321 16.6564 4.74955 16.4084C5.39043 16.2016 6.0313 16.057 6.67218 15.8707C6.79619 15.8294 6.87892 15.8502 6.96166 15.9742C7.39579 16.5117 7.80928 17.0286 8.24341 17.5661C8.71881 18.1449 9.40114 18.1449 9.85591 17.5661C10.29 17.0284 10.7035 16.5116 11.1377 15.9742C11.2204 15.8709 11.2823 15.8294 11.4271 15.8709C12.0886 16.057 12.7502 16.2223 13.4119 16.4084C14.094 16.5945 14.6728 16.181 14.6936 15.478C14.7349 14.7959 14.7762 14.1135 14.797 13.4106C14.797 13.2453 14.8795 13.1834 15.0037 13.1419C15.6342 12.9097 16.2613 12.6685 16.8849 12.4183C17.5466 12.0875 17.7533 11.4262 17.3605 10.8266ZM12.4194 7.43575L8.28468 11.5707C8.18131 11.6739 8.03666 11.7566 7.89182 11.7772C7.85055 11.7772 7.78845 11.798 7.74718 11.798C7.56107 11.798 7.35432 11.7153 7.20968 11.5705L5.51444 9.87524C5.37536 9.73503 5.29733 9.54554 5.29733 9.34806C5.29733 9.15057 5.37536 8.96109 5.51444 8.82087C5.65465 8.6818 5.84413 8.60376 6.04162 8.60376C6.23911 8.60376 6.42859 8.6818 6.5688 8.82087L7.72654 9.97861L11.3238 6.38139C11.464 6.24231 11.6535 6.16428 11.8509 6.16428C12.0484 6.16428 12.2379 6.24231 12.3781 6.38139C12.7089 6.67087 12.7089 7.14608 12.4194 7.43575Z" fill="#0C5ADB"/>
</svg>
